<?xml version="1.0" encoding="UTF-8" standalone="no"?>
<!-- Created with Inkscape (http://www.inkscape.org/) -->

<svg
   width="50mm"
   height="50mm"
   viewBox="0 0 50 50"
   version="1.1"
   id="svg952"
   inkscape:version="1.1.2 (0a00cf5339, 2022-02-04)"
   sodipodi:docname="icon.svg"
   xmlns:inkscape="http://www.inkscape.org/namespaces/inkscape"
   xmlns:sodipodi="http://sodipodi.sourceforge.net/DTD/sodipodi-0.dtd"
   xmlns="http://www.w3.org/2000/svg"
   xmlns:svg="http://www.w3.org/2000/svg">
  <sodipodi:namedview
     id="namedview954"
     pagecolor="#ffffff"
     bordercolor="#666666"
     borderopacity="1.0"
     inkscape:pageshadow="2"
     inkscape:pageopacity="0.0"
     inkscape:pagecheckerboard="0"
     inkscape:document-units="mm"
     showgrid="false"
     inkscape:zoom="2.3891875"
     inkscape:cx="51.272661"
     inkscape:cy="74.293039"
     inkscape:window-width="1920"
     inkscape:window-height="1107"
     inkscape:window-x="0"
     inkscape:window-y="0"
     inkscape:window-maximized="1"
     inkscape:current-layer="layer1"
     fit-margin-top="0"
     fit-margin-left="0"
     fit-margin-right="0"
     fit-margin-bottom="0">
    <inkscape:grid
       type="xygrid"
       id="grid1009"
       originx="-8.4598996e-15"
       originy="0" />
  </sodipodi:namedview>
  <defs
     id="defs949" />
  <g
     inkscape:label="Monkey"
     inkscape:groupmode="layer"
     id="layer1"
     transform="translate(6.881126,-82.08442)">
    <path
       stroke="none"
       fill="#6d4526"
       d="m 5.4991669,94.938833 0.2910417,-0.277812 0.013229,-0.02646 q 5.1726044,-4.960936 12.4089584,-4.960936 7.262813,0 12.448646,4.987396 l 0.01323,0.01323 0.264583,0.264583 0.47625,0.502709 1.74625,-0.171979 q 3.717396,0 6.35,2.632604 2.645834,2.659062 2.645834,6.363232 l -0.01323,0.58208 v 0.0132 q -0.185208,3.33374 -2.632604,5.76791 -1.785937,1.78594 -4.048125,2.36802 -0.859895,2.80458 -2.659062,5.22552 l -0.582083,0.75406 v -0.0132 l -0.396875,0.46303 -0.886355,0.9525 q -2.592916,2.59291 -5.715,3.91583 -3.227916,1.3626 -7.011458,1.3626 -2.394479,0 -4.550833,-0.54239 -1.27,-0.33073 -2.447396,-0.82021 -3.1353126,-1.32292 -5.7150001,-3.91583 l -0.8995833,-0.9525 q -2.5664583,-2.91042 -3.62479165,-6.42938 -2.27541655,-0.58208 -4.04812495,-2.36802 -2.4606249,-2.43417 -2.6458333,-5.76791 v -0.0132 l -0.013229,-0.58208 q 0,-3.70417 2.6590624,-6.363232 2.61937496,-2.632604 6.3367708,-2.632604 l 1.74625,0.15875 0.4894791,-0.48948"
       id="path126"
       style="stroke-width:0.264583" />
    <path
       stroke="none"
       fill="#8e5a32"
       d="m 36.190834,104.2654 q 0,-1.83886 -1.322917,-3.14855 -1.309688,-1.309683 -3.135313,-1.309683 -1.865312,0 -3.175,1.309683 -1.322916,1.30969 -1.322916,3.14855 0,1.86531 1.322916,3.16177 1.309688,1.33614 3.175,1.33614 1.825625,0 3.135313,-1.33614 1.322917,-1.29646 1.322917,-3.16177 m -35.95687537,0 q 0,1.86531 1.32291667,3.16177 1.3096875,1.33614 3.1353125,1.33614 1.8653125,0 3.1749999,-1.33614 1.3229167,-1.29646 1.3229167,-3.16177 0,-1.83886 -1.3229167,-3.14855 -1.3096874,-1.309683 -3.1749999,-1.309683 -1.825625,0 -3.1353125,1.309683 -1.32291667,1.30969 -1.32291667,3.14855 m -4.89479153,0.52916 q 0.1719791,-2.93687 2.3283333,-5.093227 2.31510406,-2.315104 5.5959374,-2.315104 3.2676041,0 5.6223958,2.315104 2.1298954,2.156357 2.3018754,5.093227 -0.17198,2.93687 -2.3018754,5.08 -2.3547917,2.32833 -5.6223958,2.32833 -3.28083334,0 -5.5959374,-2.32833 -2.1563542,-2.14313 -2.3283333,-5.08 m 45.7464579,0 q -0.171979,2.93687 -2.328333,5.08 -2.315104,2.32833 -5.595938,2.32833 -3.267604,0 -5.622395,-2.32833 -2.129896,-2.14313 -2.301875,-5.08 0.171979,-2.93687 2.301875,-5.093227 2.354791,-2.315104 5.622395,-2.315104 3.280834,0 5.595938,2.315104 2.156354,2.156357 2.328333,5.093227"
       id="path128"
       style="stroke-width:0.264583" />
    <path
       stroke="none"
       fill="#b67340"
       d="m -4.6608329,104.79456 -0.013229,-0.52916 q 0,-3.26761 2.3415625,-5.6224 2.31510406,-2.315104 5.5959374,-2.315104 3.2676041,0 5.6223958,2.315104 2.3151042,2.35479 2.3151042,5.6224 l -0.01323,0.52916 q -0.171979,-2.93687 -2.3018744,-5.093227 -2.3547917,-2.315104 -5.6223958,-2.315104 -3.28083334,0 -5.5959374,2.315104 -2.1563542,2.156357 -2.3283333,5.093227 m 29.8979169,0 -0.01323,-0.52916 q 0,-3.26761 2.315105,-5.6224 2.354791,-2.315104 5.622395,-2.315104 3.280834,0 5.595938,2.315104 2.341562,2.35479 2.341562,5.6224 l -0.01323,0.52916 q -0.171979,-2.93687 -2.328333,-5.093227 -2.315104,-2.315104 -5.595938,-2.315104 -3.267604,0 -5.622395,2.315104 -2.129896,2.156357 -2.301875,5.093227"
       id="path130"
       style="stroke-width:0.264583" />
    <path
       stroke="none"
       fill="#774b2a"
       d="m 0.23395863,104.2654 q 0,-1.83886 1.32291667,-3.14855 1.3096875,-1.309683 3.1353125,-1.309683 1.8653125,0 3.1749999,1.309683 1.3229167,1.30969 1.3229167,3.14855 0,1.86531 -1.3229167,3.16177 -1.3096874,1.33614 -3.1749999,1.33614 -1.825625,0 -3.1353125,-1.33614 -1.32291667,-1.29646 -1.32291667,-3.16177 m 35.95687537,0 q 0,1.86531 -1.322917,3.16177 -1.309688,1.33614 -3.135313,1.33614 -1.865312,0 -3.175,-1.33614 -1.322916,-1.29646 -1.322916,-3.16177 0,-1.83886 1.322916,-3.14855 1.309688,-1.309683 3.175,-1.309683 1.825625,0 3.135313,1.309683 1.322917,1.30969 1.322917,3.14855"
       id="path132"
       style="stroke-width:0.264583" />
    <path
       stroke="none"
       fill="#a16639"
       d="m 35.145729,107.79758 v 0.13229 0.26458 q -0.14552,5.29167 -3.188229,9.39271 l -0.555625,0.70115 -0.370416,0.43656 -0.846667,0.89958 q -2.434167,2.4474 -5.371042,3.69094 -3.042708,1.28323 -6.601354,1.28323 -2.262187,0 -4.299479,-0.51594 -1.177396,-0.29104 -2.288646,-0.76729 -2.9501041,-1.24354 -5.3842707,-3.69094 L 5.3933336,118.72487 Q 1.4510419,114.25341 1.2790628,108.19445 v -0.26458 -0.13229 q 0.1455208,-6.77333 4.9609375,-11.588747 l 0.5953125,-0.555625 q 0.7276041,0.502709 1.6933333,0.96573 4.0084379,1.918229 9.6837499,1.918229 5.675313,0 9.68375,-1.918229 0.965729,-0.463021 1.706563,-0.96573 l 0.582083,0.555625 q 0.978958,0.978959 1.772708,2.050521 3.069167,4.153956 3.188229,9.538226 m -6.35,-5.46364 q -1.957916,-1.95792 -4.709583,-1.95792 -2.778125,0 -4.722812,1.95792 -0.410104,0.39687 -1.150938,0.39687 -0.740833,0 -1.137708,-0.39687 -1.957917,-1.95792 -4.709583,-1.95792 -2.7648965,0 -4.7228131,1.95792 -1.9579166,1.95791 -1.9579166,4.70958 0,2.76489 1.9579166,4.73604 h 0.013229 l 1.11125,0.89958 q 0.013229,3.87615 2.7648961,6.61458 1.098021,1.09802 2.38125,1.75948 1.944688,1.00542 4.299479,1.00542 3.915834,0 6.693958,-2.7649 l 0.886355,-1.00541 q 1.852083,-2.42094 1.878541,-5.60917 l 1.124479,-0.89958 q 1.957917,-1.97115 1.957917,-4.73604 0,-2.75167 -1.957917,-4.70958 m -9.181041,8.95614 q 0.515937,-0.51594 1.084792,-0.68792 0.595312,-0.15875 0.886354,0.13229 0.291041,0.29104 0.132291,0.88636 -0.15875,0.56885 -0.687916,1.08479 l -0.02646,0.0397 q -0.291041,0.27781 -0.687916,0.27781 -0.423334,0 -0.714375,-0.29104 -0.304271,-0.30427 -0.304271,-0.72761 0,-0.4101 0.277812,-0.68791 l 0.03969,-0.0265 m -2.553229,1.44198 q -0.3175,0.29104 -0.727604,0.29104 -0.410105,0 -0.701146,-0.27781 l -0.02646,-0.0397 q -0.529166,-0.51594 -0.674687,-1.08479 -0.15875,-0.59532 0.132292,-0.88636 0.30427,-0.29104 0.886354,-0.13229 0.582083,0.17198 1.084791,0.68792 l 0.03969,0.0265 q 0.277812,0.27781 0.277812,0.68791 0,0.42334 -0.291041,0.72761"
       id="path134"
       style="stroke-width:0.264583" />
    <path
       stroke="none"
       fill="#aa6c3b"
       d="m 6.8353128,95.653208 q 4.7757292,-4.392083 11.3770832,-4.392083 6.614583,0 11.390313,4.392083 -0.740834,0.502709 -1.706563,0.96573 -4.008437,1.918229 -9.68375,1.918229 -5.675312,0 -9.6837499,-1.918229 -0.9657292,-0.463021 -1.6933333,-0.96573"
       id="path136"
       style="stroke-width:0.264583" />
    <path
       stroke="none"
       fill="#b4723f"
       d="M 6.8353128,95.653208 6.2400003,96.208833 Q 1.4245836,101.02425 1.2790628,107.79758 v -0.13229 q 0,-7.02469 4.9609375,-11.985623 l 0.2778125,-0.264584 q 4.8683332,-4.683125 11.6945832,-4.683125 6.839479,0 11.707813,4.683125 l 0.264583,0.264584 q 0.978958,0.978958 1.772708,2.050521 3.188229,4.299482 3.188229,9.935102 v 0.13229 Q 35.026667,102.41331 31.9575,98.259354 31.16375,97.187792 30.184792,96.208833 l -0.582083,-0.555625 q -4.77573,-4.392083 -11.390313,-4.392083 -6.601354,0 -11.3770832,4.392083"
       id="path138"
       style="stroke-width:0.264583" />
    <path
       stroke="none"
       fill="#ffffff"
       d="m 27.499271,107.4404 q 0,-0.87313 -0.595312,-1.44198 -0.595313,-0.56886 -1.42875,-0.56886 -0.820209,0 -1.441979,0.56886 -0.595313,0.56885 -0.595313,1.44198 0,0.83343 0.595313,1.40228 0.62177,0.60854 1.441979,0.60854 0.833437,0 1.42875,-0.60854 0.595312,-0.56885 0.595312,-1.40228 m 1.547813,-0.0661 q 0,1.33614 -0.926042,2.24895 -0.9525,0.96573 -2.301875,0.96573 -1.322917,0 -2.262187,-0.96573 -0.9525,-0.91281 -0.9525,-2.24895 0,-1.33615 0.9525,-2.27542 0.93927,-0.92604 2.262187,-0.92604 1.349375,0 2.301875,0.92604 0.926042,0.93927 0.926042,2.27542 m -6.138334,6.60135 q 0.767292,2.02406 0,4.31271 -4.1275,1.49489 -8.995833,0 -0.859896,-2.40771 0,-4.32594 l 0.687917,0.11906 q 4.008437,1.40229 7.342187,0.0529 0.47625,-0.19844 0.965729,-0.15875 M 7.5629169,107.37425 q 0,-1.33615 0.9525,-2.27542 0.9525,-0.92604 2.2754161,-0.92604 1.322917,0 2.301876,0.92604 0.926041,0.93927 0.926041,2.27542 0,1.33614 -0.926041,2.24895 -0.978959,0.96573 -2.301876,0.96573 -1.3229161,0 -2.2754161,-0.96573 -0.9525,-0.91281 -0.9525,-2.24895 m 1.5742708,0.0661 q 0,0.83343 0.5953125,1.40228 0.5688538,0.60854 1.4155208,0.60854 0.833438,0 1.42875,-0.60854 0.595313,-0.56885 0.595313,-1.40228 0,-0.87313 -0.595313,-1.44198 -0.595312,-0.56885 -1.42875,-0.56885 -0.846667,0 -1.4155208,0.56885 -0.5953125,0.56885 -0.5953125,1.44198"
       id="path140"
       style="stroke-width:0.264583" />
    <path
       stroke="none"
       fill="#5b5b5b"
       d="m 9.1371877,107.4404 q 0,-0.87313 0.5953125,-1.44198 0.5688538,-0.56886 1.4155208,-0.56886 0.833438,0 1.42875,0.56886 0.595313,0.56885 0.595313,1.44198 0,0.83343 -0.595313,1.40228 -0.595312,0.60854 -1.42875,0.60854 -0.846667,0 -1.4155208,-0.60854 -0.5953125,-0.56885 -0.5953125,-1.40228 m 18.3620833,0 q 0,0.83343 -0.595312,1.40228 -0.595313,0.60854 -1.42875,0.60854 -0.820209,0 -1.441979,-0.60854 -0.595313,-0.56885 -0.595313,-1.40228 0,-0.87313 0.595313,-1.44198 0.62177,-0.56886 1.441979,-0.56886 0.833437,0 1.42875,0.56886 0.595312,0.56885 0.595312,1.44198"
       id="path142"
       style="stroke-width:0.264583" />
    <path
       stroke="none"
       fill="#bf8559"
       d="m 29.047084,107.37425 q 0,-1.33615 -0.926042,-2.27542 -0.9525,-0.92604 -2.301875,-0.92604 -1.322917,0 -2.262187,0.92604 -0.9525,0.93927 -0.9525,2.27542 0,1.33614 0.9525,2.24895 0.93927,0.96573 2.262187,0.96573 1.349375,0 2.301875,-0.96573 0.926042,-0.91281 0.926042,-2.24895 m -0.251355,-5.04031 q 1.957917,1.95791 1.957917,4.70958 0,2.76489 -1.957917,4.73604 l -1.124479,0.89958 q -0.02646,3.18823 -1.878541,5.60917 l -0.886355,1.00541 q -2.778124,2.7649 -6.693958,2.7649 -2.354791,0 -4.299479,-1.00542 -1.283229,-0.66146 -2.38125,-1.75948 -2.7516668,-2.73843 -2.7648959,-6.61458 l -1.11125,-0.89958 h -0.013229 q -1.9579166,-1.97115 -1.9579166,-4.73604 0,-2.75167 1.9579166,-4.70958 1.9579166,-1.95792 4.7228129,-1.95792 2.751666,0 4.709583,1.95792 0.396875,0.39687 1.137708,0.39687 0.740834,0 1.150938,-0.39687 1.944687,-1.95792 4.722812,-1.95792 2.751667,0 4.709583,1.95792 m -9.181041,8.95614 -0.03969,0.0265 q -0.277812,0.27781 -0.277812,0.68791 0,0.42334 0.304271,0.72761 0.291041,0.29104 0.714375,0.29104 0.396875,0 0.687916,-0.27781 l 0.02646,-0.0397 q 0.529166,-0.51594 0.687916,-1.08479 0.15875,-0.59532 -0.132291,-0.88636 -0.291042,-0.29104 -0.886354,-0.13229 -0.568855,0.17198 -1.084792,0.68792 m -2.553229,1.44198 q 0.291041,-0.30427 0.291041,-0.72761 0,-0.4101 -0.277812,-0.68791 l -0.03969,-0.0265 q -0.502708,-0.51594 -1.084791,-0.68792 -0.582084,-0.15875 -0.886354,0.13229 -0.291042,0.29104 -0.132292,0.88636 0.145521,0.56885 0.674687,1.08479 l 0.02646,0.0397 q 0.291041,0.27781 0.701146,0.27781 0.410104,0 0.727604,-0.29104 m 5.847291,5.55625 0.661459,-0.26459 q 0.79375,-0.35718 1.124479,-1.15093 0.3175,-0.80698 -0.01323,-1.61396 -0.33073,-0.80698 -1.137709,-1.12448 l -0.635,-0.15875 q -0.489479,-0.0397 -0.965729,0.15875 -3.33375,1.34937 -7.342187,-0.0529 l -0.687917,-0.11906 q -0.463021,0 -0.912812,0.21167 -0.79375,0.38364 -1.071563,1.21708 -0.291042,0.80698 0.0926,1.60073 0.370417,0.78052 1.203854,1.07156 l 0.687917,0.2249 q 4.868333,1.49489 8.995833,0 M 7.5629169,107.37425 q 0,1.33614 0.9525,2.24895 0.9525,0.96573 2.2754161,0.96573 1.322917,0 2.301876,-0.96573 0.926041,-0.91281 0.926041,-2.24895 0,-1.33615 -0.926041,-2.27542 -0.978959,-0.92604 -2.301876,-0.92604 -1.3229161,0 -2.2754161,0.92604 -0.9525,0.93927 -0.9525,2.27542"
       id="path144"
       style="stroke-width:0.264583" />
    <path
       stroke="none"
       fill="#e7e7e7"
       d="m 22.90875,113.9756 0.635,0.15875 q 0.806979,0.3175 1.137709,1.12448 0.330729,0.80698 0.01323,1.61396 -0.330729,0.79375 -1.124479,1.15093 l -0.661459,0.26459 q 0.767292,-2.28865 0,-4.31271 m -8.995833,4.31271 -0.687917,-0.2249 q -0.833437,-0.29104 -1.203854,-1.07156 -0.383646,-0.79375 -0.0926,-1.60073 0.277813,-0.83344 1.071563,-1.21708 0.449791,-0.21167 0.912812,-0.21167 -0.859896,1.91823 0,4.32594"
       id="path146"
       style="stroke-width:0.264583" />
  </g>
</svg>
