<svg xmlns="http://www.w3.org/2000/svg" xmlns:xlink="http://www.w3.org/1999/xlink" id="Layer_1" width="305" height="248.987" x="0" y="0" enable-background="new 0 0 305 248.987" version="1.1" viewBox="0 0 305 248.987" xml:space="preserve"><g><polygon points="55.914 100.587 127.11 25.084 228.099 48.989 257.888 148.397 186.693 223.903 85.706 199.997"/><g><path fill="#FFF" d="M156.901,154.946c-16.819,0-30.456-13.634-30.456-30.453s13.637-30.456,30.456-30.456 c2.157,0,4.259,0.228,6.291,0.658l12.18-20.744c-2.352-0.859-4.774-1.562-7.263-2.088l-1.772-9.971h-9.435h-9.437l-1.77,9.971 c-6.547,1.388-12.652,3.965-18.079,7.494l-8.308-5.799L105.963,86.9l5.799,8.305c-3.526,5.429-6.103,11.535-7.494,18.082 l-9.968,1.772v18.869l9.968,1.77c1.391,6.547,3.967,12.654,7.494,18.082l-5.799,8.307l13.347,13.346l8.305-5.803 c5.427,3.529,11.532,6.107,18.079,7.494l1.772,9.969h9.435h9.435l1.77-9.969c3.22-0.684,6.331-1.654,9.309-2.883l-12.035-20.498 C162.684,154.522,159.844,154.946,156.901,154.946z"/><path fill="#FFF" d="M209.532,113.287c-1.388-6.547-3.965-12.652-7.494-18.082l5.802-8.305l-13.348-13.343l-8.303,5.799 c-1.354-0.88-2.755-1.704-4.19-2.463l-11.85,20.174c10.185,4.926,17.206,15.355,17.206,27.426 c0,11.297-6.155,21.152-15.291,26.408l11.824,20.137c0.781-0.449,1.545-0.916,2.302-1.408l8.303,5.803l13.343-13.346l-5.797-8.307 c3.528-5.428,6.105-11.535,7.494-18.082l9.971-1.77v-18.869L209.532,113.287z"/></g></g></svg>