<svg xmlns="http://www.w3.org/2000/svg" xmlns:xlink="http://www.w3.org/1999/xlink" id="Layer_1" width="819.533" height="248.987" x="0" y="0" enable-background="new 0 0 819.533 248.987" version="1.1" viewBox="0 0 819.533 248.987" xml:space="preserve"><g><path d="M334.423,199.716c-8.381,0-15.979-1.381-22.789-4.143c-6.81-2.76-12.643-6.76-17.502-12 c-4.855-5.236-8.595-11.691-11.214-19.359c-2.62-7.666-3.93-16.454-3.93-26.361s1.333-18.691,4.001-26.36 c2.667-7.667,6.43-14.145,11.29-19.432c4.855-5.284,10.688-9.285,17.498-12c6.81-2.714,14.36-4.072,22.646-4.072 c6.383,0,12.334,0.833,17.858,2.499c5.524,1.668,10.36,4.098,14.503,7.287c4.143,3.191,7.551,7.168,10.218,11.931 c2.662,4.763,4.38,10.194,5.145,16.288H360.43c-0.194-3.524-1.001-6.644-2.43-9.358c-1.429-2.715-3.313-4.979-5.643-6.787 c-2.335-1.808-5.054-3.189-8.144-4.143c-3.099-0.952-6.359-1.428-9.791-1.428c-4.954,0-9.501,0.951-13.644,2.857 c-4.143,1.905-7.716,4.738-10.716,8.5c-2.999,3.763-5.334,8.502-7,14.218c-1.666,5.714-2.501,12.382-2.501,20.001 c0,7.429,0.807,13.978,2.43,19.644c1.618,5.67,3.929,10.408,6.929,14.217c2.999,3.811,6.573,6.67,10.716,8.572 c4.143,1.908,8.737,2.857,13.786,2.857c3.431,0,6.692-0.451,9.791-1.357c3.09-0.904,5.809-2.262,8.144-4.072 c2.33-1.807,4.214-4.07,5.643-6.785c1.428-2.715,2.235-5.832,2.43-9.359h21.717c-0.764,6.193-2.482,11.646-5.145,16.359 c-2.667,4.717-6.075,8.693-10.218,11.93c-4.143,3.24-8.979,5.693-14.503,7.359S340.806,199.716,334.423,199.716z"/><path d="M462.013,97.849c-2.857-0.952-7.147-1.428-12.861-1.428c-10.573,0-19.714,5.619-27.431,16.856v83.582h-21.146V78.56h21.146 v16.575c8.666-12.764,18.907-19.145,30.72-19.145c2.947,0,6.141,0.285,9.572,0.854V97.849z"/><path d="M526.877,199.716c-8.67,0-16.553-1.404-23.647-4.215c-7.095-2.807-13.165-6.857-18.215-12.143 c-5.049-5.287-8.955-11.762-11.717-19.43s-4.143-16.359-4.143-26.076s1.356-18.406,4.071-26.076 c2.715-7.665,6.502-14.142,11.361-19.429c4.855-5.287,10.688-9.334,17.503-12.144c6.805-2.81,14.308-4.214,22.499-4.214 c8.381,0,15.979,1.381,22.789,4.143c6.811,2.762,12.647,6.787,17.502,12.073c4.86,5.284,8.595,11.765,11.215,19.429 c2.619,7.669,3.93,16.408,3.93,26.218v5h-89.012c0.479,6.955,1.718,12.955,3.716,18.004c2.003,5.049,4.594,9.215,7.788,12.502 c3.189,3.283,6.857,5.738,11.001,7.355c4.143,1.623,8.594,2.43,13.358,2.43c3.616,0,7.143-0.475,10.574-1.428 c3.426-0.949,6.501-2.332,9.216-4.143c2.715-1.809,4.926-4.072,6.645-6.787c1.713-2.715,2.662-5.785,2.856-9.217h21.717 c-0.859,6.1-2.738,11.527-5.643,16.287c-2.909,4.766-6.625,8.766-11.147,12.002c-4.523,3.24-9.691,5.693-15.5,7.359 C539.781,198.884,533.545,199.716,526.877,199.716z M557.882,126.28c-1.714-11.43-5.524-19.953-11.433-25.575 c-5.904-5.619-13.193-8.428-21.859-8.428c-4.19,0-8.097,0.69-11.712,2.069c-3.621,1.383-6.887,3.479-9.791,6.288 s-5.357,6.359-7.355,10.645c-2.003,4.285-3.432,9.287-4.286,15.001H557.882z"/><path d="M645.749,199.716c-32.385,0-49.294-12.713-50.723-38.146h21.146c0,14.385,9.763,21.574,29.291,21.574 c8.761,0,15.429-1.809,20.004-5.43c4.57-3.617,6.857-8.143,6.857-13.572c0-2.666-0.456-4.857-1.357-6.572 c-0.906-1.713-2.624-3.26-5.145-4.641c-2.524-1.382-6.027-2.715-10.502-4.002c-4.48-1.286-10.289-2.785-17.432-4.501 c-14-3.619-24.146-7.524-30.43-11.715c-6.383-4.38-9.572-11.955-9.572-22.718c0-4.952,1.044-9.501,3.142-13.644 c2.093-4.143,5.073-7.717,8.932-10.716c3.854-3.002,8.5-5.358,13.929-7.074c5.43-1.716,11.428-2.57,18.001-2.57 c30.861,0,46.67,11,47.434,33.002h-21c-0.764-11.143-9.098-16.714-25.005-16.714c-3.427,0-6.621,0.332-9.572,0.999 c-2.952,0.667-5.548,1.645-7.788,2.931c-2.235,1.284-4.001,2.928-5.287,4.926c-1.286,2.002-1.927,4.288-1.927,6.86 c0,4.762,1.809,8.144,5.43,10.144s12.523,4.715,26.719,8.144c7.237,1.713,13.501,3.597,18.788,5.643 c5.287,2.05,9.644,4.214,13.069,6.501c3.526,2.192,6.146,5.287,7.859,9.288c1.718,4,2.572,8.81,2.572,14.429 c0,5.336-1.12,10.311-3.355,14.93c-2.24,4.621-5.429,8.598-9.572,11.932c-4.143,3.334-9.121,5.953-14.93,7.855 C659.512,198.765,652.986,199.716,645.749,199.716z"/><path d="M763.619,197.146c-4.57,0.857-9.62,1.287-15.144,1.287c-6.857,0-12.145-0.906-15.86-2.715 c-3.711-1.809-6.479-4.309-8.286-7.5c-1.809-3.189-2.881-7-3.213-11.434c-0.337-4.428-0.503-9.307-0.503-14.643V95.134h-14.569 V78.56h14.569V49.271h21.005V78.56h19.144v16.575h-19.144v68.148c0,4.195,0.261,7.527,0.787,10.004 c0.522,2.479,1.286,4.357,2.283,5.645c1.001,1.285,2.216,2.121,3.645,2.5s2.999,0.57,4.713,0.57c3.621,0,7.146-0.285,10.573-0.857 V197.146z"/></g><g><polygon points="55.914 100.587 127.11 25.084 228.099 48.989 257.888 148.397 186.693 223.903 85.706 199.997"/><g><path fill="#FFF" d="M156.901,154.946c-16.819,0-30.456-13.634-30.456-30.453s13.637-30.456,30.456-30.456 c2.157,0,4.259,0.228,6.291,0.658l12.18-20.744c-2.352-0.859-4.774-1.562-7.263-2.088l-1.772-9.971h-9.435h-9.437l-1.77,9.971 c-6.547,1.388-12.652,3.965-18.079,7.494l-8.308-5.799L105.963,86.9l5.799,8.305c-3.526,5.429-6.103,11.535-7.494,18.082 l-9.968,1.772v18.869l9.968,1.77c1.391,6.547,3.967,12.654,7.494,18.082l-5.799,8.307l13.347,13.346l8.305-5.803 c5.427,3.529,11.532,6.107,18.079,7.494l1.772,9.969h9.435h9.435l1.77-9.969c3.22-0.684,6.331-1.654,9.309-2.883l-12.035-20.498 C162.684,154.522,159.844,154.946,156.901,154.946z"/><path fill="#FFF" d="M209.532,113.287c-1.388-6.547-3.965-12.652-7.494-18.082l5.802-8.305l-13.348-13.343l-8.303,5.799 c-1.354-0.88-2.755-1.704-4.19-2.463l-11.85,20.174c10.185,4.926,17.206,15.355,17.206,27.426 c0,11.297-6.155,21.152-15.291,26.408l11.824,20.137c0.781-0.449,1.545-0.916,2.302-1.408l8.303,5.803l13.343-13.346l-5.797-8.307 c3.528-5.428,6.105-11.535,7.494-18.082l9.971-1.77v-18.869L209.532,113.287z"/></g></g></svg>