<svg xmlns="http://www.w3.org/2000/svg" width="106" height="40" viewBox="0 0 106 40"><path fill="#585858" d="M38.194 17.148H36.27c-.234 0-.364-.078-.39-.234-.26-1.092-.546-2.158-.78-3.224h-4.602c-.078.26-.546 2.184-.78 3.224-.026.182-.182.234-.364.234H27.56c-.26 0-.442-.156-.338-.442l3.822-15.262c.052-.182.182-.338.468-.338h2.574c.26 0 .39.052.468.312l3.926 15.236c.078.208.026.494-.286.494zm-5.46-13.233c-.208 1.066-.468 2.106-.676 3.172l-1.04 4.472h3.562l-1.04-4.394-.728-3.25h-.078zM49.79 16.836V9.92c0-2.574-1.404-4.368-4.03-4.368-.936 0-2.158.312-2.938 1.04-.026 0-.052-.026-.078-.026v-.571c0-.234-.078-.312-.286-.312h-1.794c-.208 0-.312.13-.312.338v10.816c0 .208.13.312.338.312h1.794c.234 0 .338-.104.338-.312V9.92c0-1.274.962-2.236 2.262-2.236 1.56 0 2.236.962 2.236 2.262v6.89c0 .208.104.312.338.312h1.82c.208 0 .312-.104.312-.312zm4.056-3.587c-1.17-.78-1.872-2.028-1.872-3.536 0-2.366 2.131-4.212 4.602-4.212 1.117 0 2.392.312 3.197 1.04.91-.65 1.795-.962 2.627-.962.285 0 .39.13.39.39v1.456c0 .26-.052.312-.261.312-.52 0-1.092-.052-1.664.13.391.676.521 1.248.521 1.846 0 2.444-2.157 4.238-4.81 4.238-1.066 0-2.184.702-2.262 1.742a14.41 14.41 0 012.938-.338c2.496 0 5.304.806 5.304 3.458 0 1.534-1.378 2.938-2.729 3.536-.234.104-.521.182-.676-.104l-.703-1.065c-.129-.208-.077-.39.209-.546.701-.417 1.404-1.066 1.404-1.716 0-1.118-1.509-1.404-2.757-1.404-1.118 0-2.756.208-4.004.39-.104.026-.182.026-.26.026-.702 0-.988-1.3-.988-2.132 0-.912.728-1.978 1.794-2.549zm5.095-3.433c0-1.17-.936-2.184-2.235-2.184-1.404 0-2.341 1.014-2.341 2.184S55.225 12 56.602 12c1.429 0 2.339-.987 2.339-2.184zm5.279-3.795v6.916c0 2.574 1.378 4.342 4.03 4.342.936 0 2.184-.286 2.964-1.014 0 0 .026.026.052.026v.572c0 .208.078.286.286.286h1.794c.208 0 .313-.104.313-.312V5.995c0-.182-.131-.312-.338-.312h-1.795c-.207 0-.338.13-.338.338v6.89c0 1.3-.961 2.262-2.236 2.262-1.586 0-2.262-.988-2.262-2.262V5.995c0-.182-.104-.312-.338-.312h-1.82c-.182 0-.312.13-.312.338zM76.727.847v13c0 2.366.649 3.51 2.989 3.51.156 0 .546 0 .806-.052.234-.026.364-.104.364-.416v-1.404c0-.182-.026-.442-.286-.442h-.312c-.832 0-1.093-.26-1.093-1.352V.82c0-.156-.104-.234-.26-.234H76.96c-.156 0-.233.104-.233.261zm10.425 4.628c3.275 0 4.342 1.664 4.342 4.316v7.046c0 .234-.104.312-.286.312h-1.742c-.183 0-.26-.104-.26-.26v-.598l-.078-.026c-.78.78-1.742 1.04-2.808 1.04-2.601 0-4.03-1.612-4.03-3.979 0-2.262 1.481-4.03 4.237-4.03.754 0 1.795.182 2.393.65h.078v-.597c0-1.17-.572-1.82-2.184-1.82-.703 0-1.898.234-2.627.572-.26.104-.39.052-.468-.156l-.442-1.275c-.051-.182 0-.364.156-.416.989-.467 2.393-.779 3.719-.779zm-2.574 7.774c0 1.17.598 2.08 2.132 2.08 1.3 0 2.132-.884 2.132-2.08 0-1.17-.676-2.08-2.132-2.08-1.3-.001-2.132.883-2.132 2.08zm10.14-7.541c-.208 0-.312.104-.312.312v10.816c0 .208.13.312.338.312h1.82c.207 0 .312-.104.312-.312V10.83c0-1.638.624-2.834 2.444-2.834.285 0 .649.104.961.104.131 0 .234-.078.287-.338l.363-1.664c.026-.078.026-.13.026-.208 0-.286-.521-.39-1.118-.39-1.326 0-2.521.754-3.12 1.742h-.077V5.995c0-.208-.131-.286-.365-.286h-1.559zM105.3 15.822c0-.858-.702-1.534-1.586-1.534-.832 0-1.534.702-1.534 1.534s.702 1.534 1.534 1.534c.884 0 1.586-.702 1.586-1.534z"/><path fill="#C30023" d="M38.09 34.625c0-3.146-2.496-3.979-4.758-4.811-1.3-.494-2.886-1.066-2.886-2.393 0-1.715 1.17-2.287 2.522-2.287.91 0 1.872.338 2.938.936.26.13.572.156.728-.104l.65-1.118c.156-.261.286-.442-.052-.702-1.378-.962-2.99-1.248-4.472-1.248-2.678 0-4.862 1.689-4.862 4.498 0 2.859 2.418 3.874 4.446 4.576 1.638.572 3.172 1.144 3.172 2.73 0 1.455-1.092 2.34-3.016 2.34-1.066 0-2.34-.494-3.198-1.326-.286-.234-.442-.364-.702-.104l-.988 1.015c-.286.285-.26.441-.026.676 1.118 1.326 3.042 1.976 4.966 1.976 3.198-.001 5.538-1.742 5.538-4.654zm10.972 2.443c.156-.208.104-.39-.234-.624l-1.066-.702c-.312-.208-.442-.156-.65.104-.364.493-1.014 1.3-2.288 1.3-1.274 0-2.262-.91-2.262-2.158v-3.146c0-1.273.988-2.209 2.288-2.209.598 0 1.612.441 2.132 1.248.156.26.338.494.702.233l1.17-.832c.234-.155.234-.468.13-.624-.988-1.43-2.444-2.158-4.082-2.158-2.73 0-4.81 1.717-4.81 4.473v2.964c0 2.678 1.898 4.368 4.758 4.368 1.768 0 3.172-.702 4.212-2.237zm11.518 1.743V31.92c0-2.573-1.352-4.394-4.082-4.394-.832 0-2.028.208-2.809.91l-.104-.026v-5.486c0-.233-.104-.338-.312-.338h-1.82c-.208 0-.312.104-.312.338v15.912c0 .209.13.313.338.313h1.794c.234 0 .337-.104.337-.338v-6.864c0-1.3.885-2.288 2.263-2.288 1.56 0 2.235.963 2.235 2.288v6.89c0 .209.104.313.338.313h1.82c.211-.002.314-.105.314-.339zm2.626-10.79v6.916c0 2.573 1.378 4.342 4.03 4.342.936 0 2.184-.286 2.963-1.014 0 0 .027.026.053.026v.571c0 .208.078.286.286.286h1.794c.208 0 .313-.104.313-.313V27.994c0-.182-.131-.312-.338-.312h-1.795c-.208 0-.338.13-.338.338v6.89c0 1.301-.962 2.262-2.236 2.262-1.586 0-2.262-.987-2.262-2.262v-6.916c0-.182-.104-.312-.338-.312h-1.82c-.182.001-.312.131-.312.339zm12.506-5.174v13c0 2.366.649 3.51 2.989 3.51.156 0 .547 0 .807-.052.234-.026.364-.104.364-.416v-1.404c0-.182-.026-.441-.286-.441h-.313c-.832 0-1.092-.261-1.092-1.353V22.82c0-.156-.104-.234-.26-.234h-1.977c-.154 0-.232.104-.232.261zm15.132 10.399c0 .416-.313.702-.624.702h-6.344v.91c0 1.248.676 2.313 2.262 2.313 1.04 0 1.872-.676 2.366-1.273.208-.26.391-.234.572-.104l1.066.728c.182.104.416.26.207.624-.91 1.534-2.496 2.158-4.264 2.158-2.859 0-4.68-1.717-4.68-4.342v-2.938c0-2.678 1.949-4.524 4.731-4.524 2.834 0 4.706 1.82 4.706 4.524v1.222zm-4.706-3.64c-1.3 0-2.235.78-2.235 2.132v.416h4.472v-.441c-.001-1.17-.781-2.107-2.237-2.107zM17.23 5.218V39L2.628 30.697 0 7.308 17.23 1z"/><path fill="none" d="M14.282 21.012h5.882l-2.939-7.26z"/><path fill="none" d="M17.207 21.012v-7.218l-2.925 7.218z"/><path fill="#F8F8F8" d="M14.348 21.012l2.923-7.218V6.265L7.22 29.391h3.755l2.024-5.184h4.272v-3.195z"/></svg>