<svg xmlns="http://www.w3.org/2000/svg" width="266.42" height="112.66" viewBox="0 0 266.42 112.66"><path d="M10 41.87c4.05 0 6.89.99 8.52 2.93C20.17 46.72 21 50.09 21 54.91c0 4.68-.79 7.94-2.39 9.72-1.59 1.79-4.45 2.68-8.61 2.68V41.87zm0-32.83c.06-.03.22-.04.47-.04h1.16C17.2 9 20 13.08 20 21.2c0 4.83-.73 8.2-2.19 10.11-1.46 1.83-4.06 2.74-7.81 2.74V9.04zM0 76h13.27C25.08 76 31 69.13 31 55.36c0-5.02-.73-8.77-2.17-11.27-1.5-2.53-4.3-4.59-8.36-6.22 3.55-1.26 6.02-3.12 7.42-5.59C29.3 29.83 30 26.06 30 20.97 30 7.65 24.6 1 13.8 1H0v75zM39.01 1h10v75h-10zm18.28 8h11.72v67h10V9h11.38V1h-33.1zm40.73 67h10V38h15v38h10V1h-10v29h-15V1h-10zm75.1-13.67c-1.28 3.78-3.64 5.67-7.06 5.67-3.5 0-5.89-2.01-7.17-6.08-1.25-4.26-1.86-11.94-1.86-23 0-12.02.57-20.02 1.76-24C160 10.98 162.42 9 166.06 9c3.63 0 6.02 2.15 7.2 6.47 1.18 4.28 1.77 12.95 1.77 26.05 0 10.12-.64 17.06-1.91 20.81zm10.58-43.55c-.87-5.31-2.29-9.42-4.25-12.31-2.97-4.32-7.5-6.47-13.61-6.47-6.84 0-11.69 2.79-14.56 8.36-2.85 5.56-4.26 15.01-4.26 28.36 0 15 1.43 25.42 4.3 31.28 2.91 6 7.89 9 14.99 9 6.74 0 11.53-2.78 14.41-8.36 2.87-5.58 4.31-15 4.31-28.27 0-9.47-.45-16.65-1.33-21.59zM214.12 0c-5.22 0-9.38 1.73-12.48 5.17-3.07 3.42-4.61 8.05-4.61 13.87 0 4.33.79 7.91 2.35 10.74.81 1.45 2.06 3.14 3.75 5.08s3.81 4.15 6.37 6.67c1.66 1.64 3.04 3.13 4.15 4.47 1.09 1.34 1.97 2.52 2.59 3.55 1.19 2.15 1.8 4.59 1.8 7.29 0 3.13-.78 5.61-2.35 7.43-1.56 1.83-3.73 2.73-6.5 2.73-2.97 0-6.25-1.31-9.86-3.97v10.28c3.06 2.47 6.75 3.69 11.1 3.69 5.12 0 9.34-1.83 12.66-5.5 3.29-3.76 4.95-8.56 4.95-14.37 0-4.29-.75-7.9-2.24-10.86-1.5-3.05-4.31-6.68-8.43-10.86-2.25-2.24-4.08-4.16-5.49-5.76-1.41-1.59-2.42-2.89-3.05-3.9-1.2-1.88-1.79-4.13-1.79-6.77 0-2.98.84-5.37 2.53-7.16 1.69-1.87 3.87-2.82 6.55-2.82 2.46 0 5.25 1.11 8.34 3.31V2.53C221.18.84 217.73 0 214.12 0zm19.2 9h11.72v67h10V9h11.38V1h-33.1z" fill-rule="evenodd" clip-rule="evenodd" fill="#333"/><g fill-rule="evenodd" clip-rule="evenodd" fill="#FF642C"><circle cx="13.43" cy="101.16" r="11.5"/><circle cx="43.79" cy="101.16" r="11.5"/><circle cx="74.15" cy="101.16" r="11.5"/></g></svg>