<svg width="249" height="58" viewBox="0 0 249 58" xmlns="http://www.w3.org/2000/svg"><path d="M52.778 56.315h11.998V0H52.778v56.315zm75.972-32.564v-5.037h-.151v-.002h-10.471v.002h-.588v37.601h11.347V36.61c0-5.718 6.449-8.226 10.875-6.958.044.013.088.005.134.005v-10.94c-4.646 0-8.917 2.018-11.146 5.035zM90.154 47.606c-5.878 0-10.642-4.518-10.642-10.092 0-5.574 4.764-10.092 10.642-10.092 5.877 0 10.642 4.518 10.642 10.092 0 5.574-4.765 10.092-10.642 10.092zm10.535-26.287a19.746 19.746 0 00-11.457-3.647c-10.958 0-19.841 8.884-19.841 19.842 0 10.958 8.883 19.842 19.841 19.842 4.269 0 8.22-1.353 11.457-3.646v2.605h9.801v-37.6h-9.801v2.604zm67.264-3.618c-4.498 0-8.754 1.396-11.599 5.248v-4.235h-.151v-.002h-10.471v.002h-.588v37.601h11.347V35.748c0-5.718 3.835-8.518 8.452-8.518 4.948 0 7.792 2.956 7.792 8.44v20.645h11.245V32.403c0-8.752-6.958-14.702-16.027-14.702zm73.057 25.276a7.067 7.067 0 100 14.134 7.067 7.067 0 000-14.134zm-32.289 4.63c-5.878 0-10.642-4.519-10.642-10.093s4.764-10.092 10.642-10.092c5.877 0 10.641 4.518 10.641 10.092 0 5.574-4.764 10.092-10.641 10.092zm10.535-26.288a19.746 19.746 0 00-11.457-3.647c-10.958 0-19.842 8.884-19.842 19.842 0 10.958 8.884 19.842 19.842 19.842 4.269 0 8.22-1.353 11.457-3.646v2.605h9.8v-37.6h-9.8v2.604zm16.926-1.919h.547c.343 0 .489.167.489.423 0 .255-.095.445-.489.445h-.547V19.4zm.008 1.327h.546l.46 1.05h.547l-.511-1.138c.329-.145.496-.43.496-.816 0-.533-.408-.89-.999-.89h-1.043v2.837h.504v-1.043zM0 56.315h12.506V0H0v56.315zM44.604.005H32.462c-.248 12.713-7.592 23.687-18.239 29.118L32.88 56.315h15.234L31.155 31.581C39.623 23.274 44.433 12.076 44.604.005zm192.001 18.213c1.189 0 2.152.978 2.152 2.181s-.963 2.18-2.152 2.18c-1.188 0-2.151-.977-2.151-2.18 0-1.203.963-2.18 2.151-2.18zm0 4.88c1.473 0 2.669-1.212 2.669-2.699 0-1.488-1.196-2.698-2.669-2.698s-2.662 1.21-2.662 2.698c0 1.487 1.189 2.698 2.662 2.698z" fill-rule="evenodd"/></svg>