<svg xmlns="http://www.w3.org/2000/svg" width="221" height="35" viewBox="0 0 221 35"><defs><radialGradient id="a" cx="41.074%" cy="35.914%" r="65.435%" fx="41.074%" fy="35.914%"><stop stop-color="#FFF" offset="0%"/><stop stop-color="#F9E5B9" offset="0%"/><stop stop-color="#F7DDA0" offset="8%"/><stop stop-color="#F5D27F" offset="12%"/><stop stop-color="#EDB860" offset="21%"/><stop stop-color="#DD8927" offset="46%"/><stop stop-color="#D67029" offset="61%"/><stop stop-color="#D0612B" offset="82%"/><stop stop-color="#C7462D" offset="95%"/></radialGradient></defs><g fill="none"><path fill="#12385D" d="M23.91 10.388c-2.471 0-5.523 1.042-7.139 3.888-1.396-2.55-3.678-3.888-6.653-3.888-1.533 0-4.14.373-5.973 2.613v-1.88H.022v23.24h4.125V20.266c0-5.485 3.608-6.08 5.159-6.08 3.253 0 4.834 1.935 4.834 5.916V34.36h4.178V20.48c0-4.64 2.721-6.293 5.267-6.293 3.083-.004 4.784 2.12 4.784 5.969v14.205h4.178V20.048c-.003-6.05-3.23-9.66-8.637-9.66zm23.637.054c-6.612 0-11.23 4.997-11.23 12.15 0 7.527 4.719 12.204 12.318 12.204 3.33 0 5.712-.798 8.498-2.85l.373-.268-2.217-3.22-.392.314c-1.293 1.036-3.173 2.225-6.252 2.225-4.931 0-7.938-2.776-8.124-7.451h17.515l.05-.409a21.8 21.8 0 000-2.8c-.415-6.009-4.542-9.895-10.539-9.895zm-6.795 9.573c.78-3.677 3.36-5.935 6.85-5.935 3.792 0 6.224 2.208 6.584 5.935H40.752zm26.926 10.121c-.844-.774-1.219-2.24-1.219-4.731V14.513h6.546v-3.688h-6.546V1.34l-4.179.976v8.509h-3.359l-1.013 3.692h4.372v10.838c0 6.43 2.223 9.223 7.445 9.331.767 0 1.637 0 2.518-.054l.342-.02.95-3.78-.652.056c-2.41.207-4.212.159-5.205-.752zm17.624-19.694c-7.137 0-11.934 4.905-11.934 12.204 0 3.476.95 6.445 2.746 8.586 1.922 2.293 4.726 3.507 8.105 3.507 2.563 0 5.949-1.12 7.972-4.157v3.778h4.124V14.412l-.186-.14c-1.46-1.146-4.896-3.83-10.827-3.83zm6.896 5.885v4.533c0 3.36-.901 6.073-2.613 7.839a7.053 7.053 0 01-5.039 2.184c-2.262 0-4.02-.767-5.226-2.28-1.12-1.408-1.717-3.433-1.717-5.854 0-5.138 3.065-8.458 7.81-8.458 3.385.005 5.535 1.078 6.785 2.036zm17.684 4.19c-3.257-.948-5.235-1.667-5.235-3.66s2.34-2.673 4.348-2.673c2.224.027 4.39.712 6.223 1.971l.606.426.657-3.94-.237-.17c-1.463-1.034-4.262-2.083-7.249-2.083-2.267 0-4.335.547-5.823 1.538a5.696 5.696 0 00-2.65 4.931c0 4.72 4.011 5.886 7.548 6.905 2.885.838 5.379 1.563 5.379 3.957 0 2.947-3.42 3.266-4.888 3.266a12.589 12.589 0 01-6.658-2.073l-.319-.215-.272.273c-.083.082-.265.334-.956 1.295-.286.397-.588.82-.821 1.138l-.291.396.41.27a16.2 16.2 0 009.019 2.727c5.507 0 9.066-2.8 9.066-7.118-.003-4.873-4.358-6.14-7.857-7.161zm29.412 5.157l-4.532-15.31h-2.051l-4.572 15.317-5.077-15.046h-4.253l8.691 24.184h1.368l4.885-15.213 4.806 15.213h1.369l8.737-24.184h-4.298zm12.327-14.853h4.179v23.542h-4.179zm16.702 19.315c-.843-.774-1.218-2.24-1.218-4.731V14.513h6.545v-3.688h-6.547V1.34l-4.17.976v8.509h-3.36l-1.013 3.692h4.373v10.838c0 6.43 2.223 9.223 7.443 9.331.767 0 1.637 0 2.518-.054l.342-.02.944-3.778-.651.056c-2.412.205-4.215.157-5.206-.754zm25.189-1.443c-1.607 1.072-3.811 2.302-6.611 2.302-4.974 0-8.188-3.32-8.188-8.459 0-2.575.808-4.71 2.337-6.174 1.452-1.388 3.475-2.122 5.851-2.122 2.947 0 5.226 1.396 6.314 2.068l.32.187.559.325.857-3.86-.265-.187a14.054 14.054 0 00-7.778-2.404c-3.546 0-6.593 1.105-8.8 3.198-2.297 2.198-3.517 5.313-3.517 9.016 0 7.3 4.947 12.204 12.317 12.204 3.104 0 5.852-.868 8.644-2.729l.373-.244-1.986-3.404-.427.283zm17.514-18.25c-2.572 0-5.962 1.026-7.972 3.797V1.34l-4.178.974V34.36h4.184V22.699c0-2.759.86-5.028 2.49-6.564a7.131 7.131 0 014.828-1.95c4.048 0 5.7 2.308 5.7 7.97V34.36h4.233V22.105c-.002-7.848-3.039-11.663-9.285-11.663z"/><circle cx="153.613" cy="4.331" r="4.015" fill="url(#a)" transform="rotate(-3.21 153.613 4.331)"/></g></svg>