<svg width="89" height="35" preserveAspectRatio="xMinYMin meet" xmlns="http://www.w3.org/2000/svg" viewBox="0 0 65 25.5" class="m-logo__logo"><path d="M4.6 15.2c0 .7.3 1.3.8 1.6.5.3 1.1.5 1.8.5.9 0 2.3-.4 2.3-1.6 0-1.1-1.5-1.4-2.3-1.6-3-.8-6.8-.8-6.8-4.8C.3 6 4.1 5 6.9 5c3.2 0 6.6.9 6.7 4.7H9.3c0-.6-.2-1-.6-1.3-.5-.2-1-.3-1.6-.3-.8 0-2.1.1-2.1 1.1 0 1.4 3.2 1.6 5.4 2.1 3 .6 3.7 2.7 3.7 3.9 0 3.9-3.7 5.2-7 5.2-3.5 0-7-1.2-7.2-5.2h4.7zm26.1 4.9H26v-2h-.1c-.9 1.5-2.8 2.4-4.5 2.4-4.2 0-5.4-2.4-5.4-6.3V5.4h4.8v8.5c0 1.9.8 2.6 2.4 2.6 1 0 2.6-.7 2.6-3.3V5.4h4.8v14.7zm11.5 0h-5.6L31.8 5.4h4.9l2.7 9.7h.1l2.7-9.7h4.9zM48 9.9c.1-1.9 1-3.1 2.3-3.9 1.3-.7 3-1 4.7-1 3.5 0 6.8.8 6.8 4.9v6.4c0 1.2 0 2.6.6 3.8h-4.8c-.2-.5-.2-.9-.3-1.4-1.2 1.3-3.1 1.8-4.8 1.8-2.8 0-5-1.4-5-4.4 0-4.8 5.2-4.4 8.5-5.1.8-.2 1.3-.5 1.3-1.4 0-1.1-1.3-1.5-2.3-1.5-1.3 0-2.2.6-2.4 1.8H48zm6.2 7.6c2.3 0 3-1.3 2.9-4.3-.7.4-1.9.5-3 .8-1.1.3-2 .7-2 1.9.1 1.2 1 1.6 2.1 1.6" fill="#6F6F6E"/></svg>