<svg xmlns="http://www.w3.org/2000/svg" width="143" height="163" viewBox="0 0 143 163">
  <g fill="none" fill-rule="evenodd">
    <path fill="#FF8700" d="M95.522 71.532l-6.28 36.91c-1.298 6.64-5.67 8.438-9.553 8.438h-29.1l12.258-67.6c-12.24-5.598-24.738-9.254-34.69-9.254-9.47 0-17.16 2.563-22.272 8.698-3.604 4.36-5.4 9.744-5.4 16.15 0 19.217 15.118 45.886 40.99 67.64 23.065 19.23 48.44 29.997 66.905 29.997 9.213 0 16.644-2.82 21.52-8.45 3.84-4.36 5.37-10.01 5.37-16.412 0-18.675-15.22-44.856-39.75-66.114"/>
    <path fill="#AA0013" d="M43.285.03c-4.617 0-8.456 3.1-9.48 7.963l-4.094 22.28h36.594l-15.71 86.607H79.69c3.88 0 8.254-1.797 9.552-8.44l13.304-78.166h26.317c4.636 0 8.466-3.077 9.49-7.94L142.46.03H43.286"/>
  </g>
</svg>
