<svg xmlns="http://www.w3.org/2000/svg" width="522" height="298" viewBox="0 0 522 298"><g fill="none" fill-rule="evenodd"><path fill="#F8781A" d="M61.983 64.404H38.875c-2.525 0-3.838 1.925-2.86 4.276l15.763 38.084c.979 2.365-.17 5.12-2.524 6.114l-1.537.588c-2.373.988-5.115-.107-6.095-2.467L25.869 72.913c-1.002-2.36-3.295-2.8-5.107-.996L4.359 88.39c-1.816 1.808-3.3 1.22-3.3-1.327V3.436c0-2.522 1.484-3.128 3.3-1.379l58.995 59.061c1.817 1.803 1.203 3.286-1.371 3.286zm89.339 101.298c30.308.062 52.356 22.173 52.418 52.682v70.308c-.16 2.698-2.408 4.781-5.155 4.781-2.85 0-5.156-2.208-5.22-4.999l-.043-70.09c0-24.476-17.561-41.983-42-41.983-24.476 0-42.254 17.507-42.254 41.983v70.09c-.058 2.791-2.355 5-5.214 5-2.841 0-5.147-2.209-5.218-5v-16.577c-8.94 14.988-25.183 24.481-45.095 24.481-30.303-.045-52.432-22.12-52.481-52.398v-70.099c.049-2.805 2.36-5.049 5.219-5.049 2.849 0 5.155 2.244 5.213 5.05v70.098c0 24.467 17.783 41.978 42.049 41.978 24.685 0 42.187-17.51 42.187-41.978l.058-70.099c.058-2.805 2.36-5.049 5.227-5.049a5.121 5.121 0 0 1 5.147 4.822v16.514c2.084-3.499 4.497-6.732 7.356-9.58 9.386-9.343 22.556-14.886 37.806-14.886z"/><path fill="#FFF" d="M516.742 166.98c2.805 0 5.103 2.19 5.147 4.925v72.789c-.044 30.232-22.165 52.343-52.619 52.405-30.304-.062-52.405-22.173-52.477-52.405v-72.665a5.179 5.179 0 0 1 5.21-5.05c2.858 0 5.164 2.245 5.218 5.05v72.665c0 24.408 17.792 41.924 42.05 41.986 24.692-.062 42.2-17.578 42.2-41.986l.043-72.665c.063-2.805 2.378-5.05 5.228-5.05zm-231.784-1.278c34.416 0 62.181 29.587 62.234 65.865-.053 35.781-27.818 64.801-62.234 64.801-34.395 0-62.17-29.02-62.219-64.8V119.155c.049-2.743 2.347-4.992 5.21-4.992s5.164 2.25 5.204 4.992v77.273c10.766-18.309 29.814-30.727 51.805-30.727zm0 120.238c28.493-.044 51.815-24.46 51.815-54.373 0-30.472-23.375-55.113-51.815-55.166-28.464.053-51.805 24.694-51.805 55.166 0 29.912 23.341 54.33 51.805 54.373zm122.77 5.334c0 2.752-1.968 4.938-4.443 5.005l-1.087.04c-12.021 0-21.568-4.322-27.997-12.007-6.483-7.695-9.867-18.567-9.867-31.565v-133.59c0-2.743 2.298-4.992 5.147-4.992 2.85 0 5.165 2.248 5.21 4.991l.062 133.591c.054 19.756 8.237 32.993 28.638 33.643 2.369.055 4.337 2.187 4.337 4.885z"/></g></svg>