<svg width="112" height="58" xmlns="http://www.w3.org/2000/svg"><path fill="none" d="M-1-1h582v402H-1z"/><path d="M42.742 23.568c4.397.081 7.884 3.752 7.884 8.139v7.41a.723.723 0 01-.724.723h-2.658a.723.723 0 01-.724-.723v-7.483c0-3.586-2.787-3.974-3.985-3.974s-3.986.388-3.986 3.974v7.483a.723.723 0 01-.723.723h-2.658a.723.723 0 01-.725-.723v-7.483c0-4.894 3.344-8.16 8.3-8.066h-.001zm14.891 8.267v.154c0 3.791 2.875 4.357 4.588 4.357 1.714 0 4.59-.566 4.59-4.357 0-3.793-2.876-4.358-4.59-4.358-1.68 0-4.51.546-4.587 4.204h-.002.001zm4.588 8.606c-5.2 0-8.695-3.396-8.695-8.452V18.281c0-.399.324-.723.724-.723h1.449a1.93 1.93 0 011.933 1.927v5.139c1.295-.702 2.848-1.089 4.59-1.089 5.2 0 8.694 3.398 8.694 8.454 0 5.056-3.494 8.452-8.695 8.452zm26.482-.002c-4.397-.082-7.884-3.753-7.884-8.139v-7.41c0-.399.324-.723.724-.723H84.2c.4 0 .725.324.725.723v7.482c0 3.587 2.787 3.975 3.985 3.975s3.985-.388 3.985-3.975V24.89c0-.399.325-.723.725-.723h2.656c.401 0 .725.324.725.723v7.482c0 4.895-3.343 8.161-8.298 8.067zm-11.508-.6H74.54a.724.724 0 01-.726-.722V18.281c0-.398.325-.722.726-.722h1.448a1.93 1.93 0 011.933 1.927v19.63a.724.724 0 01-.726.723zm-51.361-4.354c2-.693 3.81-1.778 5.35-3.165v.052c0 4.827-3.252 8.07-8.093 8.07-3.701 0-6.468-1.902-7.567-4.955a15.657 15.657 0 006.755.8 15.56 15.56 0 003.555-.802zm-6.727-4.15a.368.368 0 01-.476.35 14.417 14.417 0 01-3.63-1.75v-5.03c0-.399.324-.722.725-.722h2.656c.4 0 .725.323.725.722v6.43zm7.97-6.43c0-.399.325-.723.726-.723h2.657c.4 0 .723.324.723.723v5.03a14.397 14.397 0 01-3.63 1.75.368.368 0 01-.476-.35v-6.43z" fill-rule="evenodd" fill="#FA6019"/></svg>