<?xml version="1.0" encoding="utf-8"?>
<!-- Generator: Adobe Illustrator 16.0.0, SVG Export Plug-In . SVG Version: 6.00 Build 0)  -->
<!DOCTYPE svg PUBLIC "-//W3C//DTD SVG 1.1//EN" "http://www.w3.org/Graphics/SVG/1.1/DTD/svg11.dtd">
<svg version="1.1" xmlns="http://www.w3.org/2000/svg" xmlns:xlink="http://www.w3.org/1999/xlink" x="0px" y="0px" width="106px"
	 height="40px" viewBox="0 0 106 40" enable-background="new 0 0 106 40" xml:space="preserve">
<g id="Ebene_1">
	<title>brand</title>
	<desc></desc>
	<path id="Combined-Shape" fill="#585858" d="M38.194,17.148H36.27c-0.234,0-0.364-0.078-0.39-0.234
		c-0.26-1.092-0.546-2.158-0.78-3.224h-4.602c-0.078,0.26-0.546,2.184-0.78,3.224c-0.026,0.182-0.182,0.234-0.364,0.234H27.56
		c-0.26,0-0.442-0.156-0.338-0.442l3.822-15.262c0.052-0.182,0.182-0.338,0.468-0.338h2.574c0.26,0,0.39,0.052,0.468,0.312
		l3.926,15.236C38.558,16.862,38.506,17.148,38.194,17.148z M32.734,3.915c-0.208,1.066-0.468,2.106-0.676,3.172l-1.04,4.472h3.562
		l-1.04-4.394l-0.728-3.25H32.734z"/>
	<path id="Path" fill="#585858" d="M49.79,16.836V9.92c0-2.574-1.404-4.368-4.03-4.368c-0.936,0-2.158,0.312-2.938,1.04
		c-0.026,0-0.052-0.026-0.078-0.026V5.995c0-0.234-0.078-0.312-0.286-0.312h-1.794c-0.208,0-0.312,0.13-0.312,0.338v10.816
		c0,0.208,0.13,0.312,0.338,0.312h1.794c0.234,0,0.338-0.104,0.338-0.312V9.92c0-1.274,0.962-2.236,2.262-2.236
		c1.56,0,2.236,0.962,2.236,2.262v6.89c0,0.208,0.104,0.312,0.338,0.312h1.82C49.686,17.148,49.79,17.044,49.79,16.836z"/>
	<path id="Combined-Shape_1_" fill="#585858" d="M53.846,13.249c-1.17-0.78-1.872-2.028-1.872-3.536
		c0-2.366,2.131-4.212,4.602-4.212c1.117,0,2.392,0.312,3.197,1.04c0.91-0.65,1.795-0.962,2.627-0.962c0.285,0,0.39,0.13,0.39,0.39
		v1.456c0,0.26-0.052,0.312-0.261,0.312c-0.52,0-1.092-0.052-1.664,0.13c0.391,0.676,0.521,1.248,0.521,1.846
		c0,2.444-2.157,4.238-4.81,4.238c-1.066,0-2.184,0.702-2.262,1.742c1.144-0.26,2.313-0.338,2.938-0.338
		c2.496,0,5.304,0.806,5.304,3.458c0,1.534-1.378,2.938-2.729,3.536c-0.234,0.104-0.521,0.182-0.676-0.104l-0.703-1.065
		c-0.129-0.208-0.077-0.39,0.209-0.546c0.701-0.417,1.404-1.066,1.404-1.716c0-1.118-1.509-1.404-2.757-1.404
		c-1.118,0-2.756,0.208-4.004,0.39c-0.104,0.026-0.182,0.026-0.26,0.026c-0.702,0-0.988-1.3-0.988-2.132
		C52.052,14.886,52.78,13.82,53.846,13.249z M58.941,9.816c0-1.17-0.936-2.184-2.235-2.184c-1.404,0-2.341,1.014-2.341,2.184
		S55.225,12,56.602,12C58.031,12,58.941,11.013,58.941,9.816z"/>
	<path id="Path_1_" fill="#585858" d="M64.22,6.021v6.916c0,2.574,1.378,4.342,4.03,4.342c0.936,0,2.184-0.286,2.964-1.014
		c0,0,0.026,0.026,0.052,0.026v0.572c0,0.208,0.078,0.286,0.286,0.286h1.794c0.208,0,0.313-0.104,0.313-0.312V5.995
		c0-0.182-0.131-0.312-0.338-0.312h-1.795c-0.207,0-0.338,0.13-0.338,0.338v6.89c0,1.3-0.961,2.262-2.236,2.262
		c-1.586,0-2.262-0.988-2.262-2.262V5.995c0-0.182-0.104-0.312-0.338-0.312h-1.82C64.35,5.683,64.22,5.813,64.22,6.021z"/>
	<path id="Path_2_" fill="#585858" d="M76.727,0.847v13c0,2.366,0.649,3.51,2.989,3.51c0.156,0,0.546,0,0.806-0.052
		c0.234-0.026,0.364-0.104,0.364-0.416v-1.404c0-0.182-0.026-0.442-0.286-0.442h-0.312c-0.832,0-1.093-0.26-1.093-1.352V0.82
		c0-0.156-0.104-0.234-0.26-0.234H76.96C76.804,0.586,76.727,0.69,76.727,0.847z"/>
	<path id="Combined-Shape_2_" fill="#585858" d="M87.152,5.475c3.275,0,4.342,1.664,4.342,4.316v7.046
		c0,0.234-0.104,0.312-0.286,0.312h-1.742c-0.183,0-0.26-0.104-0.26-0.26v-0.598l-0.078-0.026c-0.78,0.78-1.742,1.04-2.808,1.04
		c-2.601,0-4.03-1.612-4.03-3.979c0-2.262,1.481-4.03,4.237-4.03c0.754,0,1.795,0.182,2.393,0.65h0.078V9.349
		c0-1.17-0.572-1.82-2.184-1.82c-0.703,0-1.898,0.234-2.627,0.572c-0.26,0.104-0.39,0.052-0.468-0.156L83.277,6.67
		c-0.051-0.182,0-0.364,0.156-0.416C84.422,5.787,85.826,5.475,87.152,5.475z M84.578,13.249c0,1.17,0.598,2.08,2.132,2.08
		c1.3,0,2.132-0.884,2.132-2.08c0-1.17-0.676-2.08-2.132-2.08C85.41,11.168,84.578,12.052,84.578,13.249z"/>
	<path id="Path_3_" fill="#585858" d="M94.718,5.708c-0.208,0-0.312,0.104-0.312,0.312v10.816c0,0.208,0.13,0.312,0.338,0.312h1.82
		c0.207,0,0.312-0.104,0.312-0.312v-6.006c0-1.638,0.624-2.834,2.444-2.834c0.285,0,0.649,0.104,0.961,0.104
		c0.131,0,0.234-0.078,0.287-0.338l0.363-1.664c0.026-0.078,0.026-0.13,0.026-0.208c0-0.286-0.521-0.39-1.118-0.39
		c-1.326,0-2.521,0.754-3.12,1.742h-0.077V5.995c0-0.208-0.131-0.286-0.365-0.286H94.718z"/>
	<path id="Path_4_" fill="#585858" d="M105.3,15.822c0-0.858-0.702-1.534-1.586-1.534c-0.832,0-1.534,0.702-1.534,1.534
		s0.702,1.534,1.534,1.534C104.598,17.356,105.3,16.654,105.3,15.822z"/>
	<path id="Path_5_" fill="#C30023" d="M38.09,34.625c0-3.146-2.496-3.979-4.758-4.811c-1.3-0.494-2.886-1.066-2.886-2.393
		c0-1.715,1.17-2.287,2.522-2.287c0.91,0,1.872,0.338,2.938,0.936c0.26,0.13,0.572,0.156,0.728-0.104l0.65-1.118
		c0.156-0.261,0.286-0.442-0.052-0.702c-1.378-0.962-2.99-1.248-4.472-1.248c-2.678,0-4.862,1.689-4.862,4.498
		c0,2.859,2.418,3.874,4.446,4.576c1.638,0.572,3.172,1.144,3.172,2.73c0,1.455-1.092,2.34-3.016,2.34
		c-1.066,0-2.34-0.494-3.198-1.326c-0.286-0.234-0.442-0.364-0.702-0.104l-0.988,1.015c-0.286,0.285-0.26,0.441-0.026,0.676
		c1.118,1.326,3.042,1.976,4.966,1.976C35.75,39.278,38.09,37.537,38.09,34.625z"/>
	<path id="Path_6_" fill="#C30023" d="M49.062,37.068c0.156-0.208,0.104-0.39-0.234-0.624l-1.066-0.702
		c-0.312-0.208-0.442-0.156-0.65,0.104c-0.364,0.493-1.014,1.3-2.288,1.3c-1.274,0-2.262-0.91-2.262-2.158v-3.146
		c0-1.273,0.988-2.209,2.288-2.209c0.598,0,1.612,0.441,2.132,1.248c0.156,0.26,0.338,0.494,0.702,0.233l1.17-0.832
		c0.234-0.155,0.234-0.468,0.13-0.624c-0.988-1.43-2.444-2.158-4.082-2.158c-2.73,0-4.81,1.717-4.81,4.473v2.964
		c0,2.678,1.898,4.368,4.758,4.368C46.618,39.305,48.022,38.603,49.062,37.068z"/>
	<path id="Path_7_" fill="#C30023" d="M60.58,38.811V31.92c0-2.573-1.352-4.394-4.082-4.394c-0.832,0-2.028,0.208-2.809,0.91
		l-0.104-0.026v-5.486c0-0.233-0.104-0.338-0.312-0.338h-1.82c-0.208,0-0.312,0.104-0.312,0.338v15.912
		c0,0.209,0.13,0.313,0.338,0.313h1.794c0.234,0,0.337-0.104,0.337-0.338v-6.864c0-1.3,0.885-2.288,2.263-2.288
		c1.56,0,2.235,0.963,2.235,2.288v6.89c0,0.209,0.104,0.313,0.338,0.313h1.82C60.477,39.148,60.58,39.045,60.58,38.811z"/>
	<path id="Path_8_" fill="#C30023" d="M63.206,28.021v6.916c0,2.573,1.378,4.342,4.03,4.342c0.936,0,2.184-0.286,2.963-1.014
		c0,0,0.027,0.026,0.053,0.026v0.571c0,0.208,0.078,0.286,0.286,0.286h1.794c0.208,0,0.313-0.104,0.313-0.313V27.994
		c0-0.182-0.131-0.312-0.338-0.312h-1.795c-0.208,0-0.338,0.13-0.338,0.338v6.89c0,1.301-0.962,2.262-2.236,2.262
		c-1.586,0-2.262-0.987-2.262-2.262v-6.916c0-0.182-0.104-0.312-0.338-0.312h-1.82C63.336,27.683,63.206,27.813,63.206,28.021z"/>
	<path id="Path_9_" fill="#C30023" d="M75.712,22.847v13c0,2.366,0.649,3.51,2.989,3.51c0.156,0,0.547,0,0.807-0.052
		c0.234-0.026,0.364-0.104,0.364-0.416v-1.404c0-0.182-0.026-0.441-0.286-0.441h-0.313c-0.832,0-1.092-0.261-1.092-1.353V22.82
		c0-0.156-0.104-0.234-0.26-0.234h-1.977C75.79,22.586,75.712,22.69,75.712,22.847z"/>
	<path id="Combined-Shape_3_" fill="#C30023" d="M90.844,33.246c0,0.416-0.313,0.702-0.624,0.702h-6.344v0.91
		c0,1.248,0.676,2.313,2.262,2.313c1.04,0,1.872-0.676,2.366-1.273c0.208-0.26,0.391-0.234,0.572-0.104l1.066,0.728
		c0.182,0.104,0.416,0.26,0.207,0.624c-0.91,1.534-2.496,2.158-4.264,2.158c-2.859,0-4.68-1.717-4.68-4.342v-2.938
		c0-2.678,1.949-4.524,4.731-4.524c2.834,0,4.706,1.82,4.706,4.524V33.246z M86.138,29.606c-1.3,0-2.235,0.78-2.235,2.132v0.416
		h4.472v-0.441C88.374,30.543,87.594,29.606,86.138,29.606z"/>
</g>
<g id="Ebene_2">
	<g id="brand" transform="translate(-172.000000, -30.000000)">
		<g transform="translate(172.000000, 30.000000)">
			<g id="Group-2_1_" transform="translate(0.000000, 1.000000)">
				<polygon id="Shape_2_" fill="#C30023" points="17.23,4.218 17.23,23.445 17.23,38 2.628,29.697 0,6.308 17.23,0 				"/>
				<polygon fill="none" points="14.282,20.012 20.164,20.012 17.225,12.752 				"/>
			</g>
		</g>
	</g>
	<g>
		<polygon fill="none" points="17.207,21.012 17.207,13.794 14.282,21.012 		"/>
		<polygon fill="#F8F8F8" points="14.348,21.012 17.271,13.794 17.271,6.265 7.22,29.391 10.975,29.391 12.999,24.207
			17.271,24.207 17.271,21.012 		"/>
	</g>
</g>
</svg>
