<?xml version="1.0" encoding="utf-8"?>
<!-- Generator: Adobe Illustrator 16.0.0, SVG Export Plug-In . SVG Version: 6.00 Build 0)  -->
<!DOCTYPE svg PUBLIC "-//W3C//DTD SVG 1.1//EN" "http://www.w3.org/Graphics/SVG/1.1/DTD/svg11.dtd">
<svg version="1.1" id="Layer_1" xmlns="http://www.w3.org/2000/svg" xmlns:xlink="http://www.w3.org/1999/xlink" x="0px" y="0px"
	 width="266.42px" height="112.66px" viewBox="0 0 266.42 112.66" enable-background="new 0 0 266.42 112.66" xml:space="preserve">
<g>
	<path fill-rule="evenodd" clip-rule="evenodd" fill="#333333" d="M10,41.87c4.05,0,6.89,0.99,8.52,2.93
		C20.17,46.72,21,50.09,21,54.91c0,4.68-0.79,7.94-2.39,9.72c-1.59,1.79-4.45,2.68-8.61,2.68V41.87z M10,9.04
		C10.06,9.01,10.22,9,10.47,9h0.42h0.74C17.2,9,20,13.08,20,21.2c0,4.83-0.73,8.2-2.19,10.11c-1.46,1.83-4.06,2.74-7.81,2.74V9.04z
		 M0,76h13.27C25.08,76,31,69.13,31,55.36c0-5.02-0.73-8.77-2.17-11.27c-1.5-2.53-4.3-4.59-8.36-6.22c3.55-1.26,6.02-3.12,7.42-5.59
		C29.3,29.83,30,26.06,30,20.97C30,7.65,24.6,1,13.8,1H0V76z"/>
	<rect x="39.01" y="1" fill-rule="evenodd" clip-rule="evenodd" fill="#333333" width="10" height="75"/>
	<polygon fill-rule="evenodd" clip-rule="evenodd" fill="#333333" points="57.29,9 69.01,9 69.01,76 79.01,76 79.01,9 90.39,9 
		90.39,1 57.29,1 	"/>
	<polygon fill-rule="evenodd" clip-rule="evenodd" fill="#333333" points="98.02,76 108.02,76 108.02,38 123.02,38 123.02,76 
		133.02,76 133.02,1 123.02,1 123.02,30 108.02,30 108.02,1 98.02,1 	"/>
	<path fill-rule="evenodd" clip-rule="evenodd" fill="#333333" d="M173.12,62.33c-1.28,3.78-3.64,5.67-7.06,5.67
		c-3.5,0-5.89-2.01-7.17-6.08c-1.25-4.26-1.86-11.94-1.86-23c0-12.02,0.57-20.02,1.76-24C160,10.98,162.42,9,166.06,9
		c3.63,0,6.02,2.15,7.2,6.47c1.18,4.28,1.77,12.95,1.77,26.05C175.03,51.64,174.39,58.58,173.12,62.33z M183.7,18.78
		c-0.87-5.31-2.29-9.42-4.25-12.31C176.48,2.15,171.95,0,165.84,0c-6.84,0-11.69,2.79-14.56,8.36c-2.85,5.56-4.26,15.01-4.26,28.36
		c0,15,1.43,25.42,4.3,31.28c2.91,6,7.89,9,14.99,9c6.74,0,11.53-2.78,14.41-8.36c2.87-5.58,4.31-15,4.31-28.27
		C185.03,30.9,184.58,23.72,183.7,18.78z"/>
	<path fill-rule="evenodd" clip-rule="evenodd" fill="#333333" d="M214.12,0c-5.22,0-9.38,1.73-12.48,5.17
		c-3.07,3.42-4.61,8.05-4.61,13.87c0,4.33,0.79,7.91,2.35,10.74c0.81,1.45,2.06,3.14,3.75,5.08s3.81,4.15,6.37,6.67
		c1.66,1.64,3.04,3.13,4.15,4.47c1.09,1.34,1.97,2.52,2.59,3.55c1.19,2.15,1.8,4.59,1.8,7.29c0,3.13-0.78,5.61-2.35,7.43
		c-1.56,1.83-3.73,2.73-6.5,2.73c-2.97,0-6.25-1.31-9.86-3.97v10.28c3.06,2.47,6.75,3.69,11.1,3.69c5.12,0,9.34-1.83,12.66-5.5
		c3.29-3.76,4.95-8.56,4.95-14.37c0-4.29-0.75-7.9-2.24-10.86c-1.5-3.05-4.31-6.68-8.43-10.86c-2.25-2.24-4.08-4.16-5.49-5.76
		c-1.41-1.59-2.42-2.89-3.05-3.9c-1.2-1.88-1.79-4.13-1.79-6.77c0-2.98,0.84-5.37,2.53-7.16c1.69-1.87,3.87-2.82,6.55-2.82
		c2.46,0,5.25,1.11,8.34,3.31V2.53C221.18,0.84,217.73,0,214.12,0z"/>
	<polygon fill-rule="evenodd" clip-rule="evenodd" fill="#333333" points="233.32,9 245.04,9 245.04,76 255.04,76 255.04,9 
		266.42,9 266.42,1 233.32,1 	"/>
</g>
<g>
	<circle fill-rule="evenodd" clip-rule="evenodd" fill="#FF642C" cx="13.43" cy="101.16" r="11.5"/>
	<circle fill-rule="evenodd" clip-rule="evenodd" fill="#FF642C" cx="43.79" cy="101.16" r="11.5"/>
	<circle fill-rule="evenodd" clip-rule="evenodd" fill="#FF642C" cx="74.15" cy="101.16" r="11.5"/>
</g>
</svg>
