<svg id="Layer_1" xmlns="http://www.w3.org/2000/svg" viewBox="0 0 190 42"><style>.st0{fill:#40495b}.st2{opacity:0}.st3{fill:red}</style><path class="st0" d="M143 36.8c-.2 0-.4-.1-.4-.4v-31c0-.2.1-.4.4-.4h16.2c.2 0 .4.1.4.4v2.9c0 .2-.2.4-.4.4h-12.6c-.2 0-.4.2-.4.4v9.2c0 .2.2.4.4.4h9.4c.2 0 .4.1.4.4v2.6c0 .2-.1.4-.4.4h-9.4c-.2 0-.4.2-.4.4v10.6c0 .2.2.4.4.4h13.1c.2 0 .4.2.4.4v2.7c0 .2-.1.4-.4.4H143v-.2zM80.1 5.1l-6.8 12.5-6.7-12.5h-4.5l9.1 15.8-9.1 15.9h4.5l6.7-12.6 6.8 12.6h4.5l-9.1-15.9 9.1-15.8z"/><path d="M35.5 5.1L26.4 21l9.1 15.9h18.2l9.3-16-9.2-15.8H35.5zm3 2.6h13.7l2.7 4.6H41.2l-2.7-4.6zm-4.9 6L36.3 9l2.7 4.6-2.7 4.7-2.7-4.6zm17.9 1.9l-.4-.6h5.4l2.7 4.6h-5.4l-2.3-4zm-10.3-.7h5.4l-2.7 4.6h-5.4l2.7-4.6zm5 6l2.7-4.7 2.7 4.7-2.6 4.8-2.8-4.8zm-16.8 0l2.7-4.7 6.9 12-2.7 4.6-6.9-11.9zm24.4 1.3h5.4l-6.9 12H47l6.8-12zm-15.3 0h5.4l2.7 4.7h-5.4l-2.7-4.7zm2.7 7.4h5.5l-2.6 4.6h-5.5l2.6-4.6z" fill="#fbc33b"/><path class="st0" d="M133.5 5.1L125 31.9l-8.6-26.8h-4l10.4 31.7h4.2l10.5-31.7zM90.2 36.8c-.2 0-.4-.1-.4-.4v-31c0-.2.1-.4.4-.4h16.2c.2 0 .4.1.4.4v2.9c0 .2-.2.4-.4.4H93.8c-.2 0-.4.2-.4.4v9.2c0 .2.2.4.4.4h9.4c.2 0 .4.1.4.4v2.6c0 .2-.1.4-.4.4h-9.4c-.2 0-.4.2-.4.4v10.6c0 .2.2.4.4.4h13.1c.2 0 .4.2.4.4v2.7c0 .2-.1.4-.4.4H90.2v-.2zM18.5 20.4c1.7-1.1 3-2.9 3-5.2v-3c0-5.2-3.1-7.1-9.2-7.1H5.4c-.3 0-.4.2-.4.3v31c0 .2.1.4.4.4h7.5c6.4 0 9.1-2 9.1-7.2V26c0-2.7-1.3-4.6-3.5-5.6M8.5 8.8c0-.2.1-.4.4-.4h5.2c2.7 0 3.9 1 3.9 3.2v4c0 2-1.7 3.4-3.9 3.4H8.9c-.2 0-.4-.2-.4-.4V8.8zm10 21.1c0 2.2-1.2 3.2-4 3.2H8.9c-.2 0-.4-.2-.4-.4V22.6c0-.2.2-.4.4-.4h5.7c2.2 0 3.9 1.2 3.9 3.2v4.5zM177.9 21.4l.2-.1c3.2-.9 4.7-2.9 4.7-6.2v-3c0-4.7-3-7-9.1-7h-7.2c-.2 0-.4.2-.4.4v31c0 .2.1.4.4.4h2.7c.2 0 .4-.1.4-.4v-14c0-.2.1-.4.4-.4h4.5l6.5 14.6h4l-7.1-15.3zm-8-2.6c-.2 0-.4-.1-.4-.4V8.9c0-.2.1-.4.4-.4h5.2c2.9 0 4.2 1.1 4.2 3.5v3c0 2.5-1.2 3.6-4.2 3.6h-5.2v.2z"/><g class="st2"><path class="st3" d="M189.8.2v41.5H.2V.2h189.6m.2-.2H0v42h190V0z"/></g><g class="st2"><path class="st3" d="M189.8 52.2v41.5H.2V52.2h189.6m.2-.2H0v42h190V52z"/></g></svg>