<svg id="Réteg_2" data-name="Réteg 2" xmlns="http://www.w3.org/2000/svg" viewBox="0 0 123.01 63.1"><title>logo</title><path d="M8.83,64.05a7.68,7.68,0,0,1-5.72-2.32A7.79,7.79,0,0,1,.82,56v0A7.93,7.93,0,0,1,9,47.9a9,9,0,0,1,3.53.61,8.23,8.23,0,0,1,2.63,1.8l-2.18,2.52a5.93,5.93,0,0,0-4-1.76,4.2,4.2,0,0,0-3.23,1.41,4.92,4.92,0,0,0-1.3,3.45v0a5.07,5.07,0,0,0,1.28,3.48,4.19,4.19,0,0,0,3.25,1.42,4.89,4.89,0,0,0,2.17-.44,8.55,8.55,0,0,0,1.94-1.39l2.18,2.21a9.2,9.2,0,0,1-2.77,2.09A8.42,8.42,0,0,1,8.83,64.05Z" transform="translate(-0.82 -0.95)"/><path d="M29.39,61.7a8.1,8.1,0,0,1-5.95,2.35,8,8,0,0,1-5.92-2.33A7.7,7.7,0,0,1,15.17,56v0a7.77,7.77,0,0,1,2.37-5.73,8.12,8.12,0,0,1,5.95-2.35,8.08,8.08,0,0,1,5.92,2.33,7.72,7.72,0,0,1,2.36,5.7v0A7.78,7.78,0,0,1,29.39,61.7ZM20.1,59.46a4.44,4.44,0,0,0,3.39,1.42,4.4,4.4,0,0,0,3.37-1.4A4.86,4.86,0,0,0,28.17,56v0a4.9,4.9,0,0,0-1.33-3.48,4.45,4.45,0,0,0-3.4-1.43,4.45,4.45,0,0,0-3.37,1.4,4.9,4.9,0,0,0-1.31,3.46v0A4.9,4.9,0,0,0,20.1,59.46Z" transform="translate(-0.82 -0.95)"/><path d="M33.15,63.79V48.17h3.17l7.32,9.61V48.17H47V63.79H44.11l-7.57-9.93v9.93Z" transform="translate(-0.82 -0.95)"/><path d="M49.1,63.79V48.17H61v3.12H52.54v3.32H60v3.13H52.54v6Z" transform="translate(-0.82 -0.95)"/><path d="M62.22,63.79V48.17h3.44V63.79Z" transform="translate(-0.82 -0.95)"/><path d="M75.41,64.05a8.06,8.06,0,0,1-5.91-2.27A7.75,7.75,0,0,1,67.2,56v0a7.82,7.82,0,0,1,2.34-5.73,7.91,7.91,0,0,1,5.85-2.35,9.83,9.83,0,0,1,3.43.52A9.07,9.07,0,0,1,81.52,50l-2.16,2.61a7.43,7.43,0,0,0-1.9-1.2,5.56,5.56,0,0,0-2.18-.38A4.12,4.12,0,0,0,72.1,52.5a4.9,4.9,0,0,0-1.31,3.43v0a4.93,4.93,0,0,0,1.33,3.54,4.46,4.46,0,0,0,3.4,1.41A5.42,5.42,0,0,0,78.76,60V57.76H75.3v-3h6.78v6.79A10,10,0,0,1,75.41,64.05Z" transform="translate(-0.82 -0.95)"/><path d="M91.23,64.05a7.35,7.35,0,0,1-5.55-2.32A7.93,7.93,0,0,1,83.46,56v0a8,8,0,0,1,2.24-5.72,7.34,7.34,0,0,1,5.57-2.36,8.06,8.06,0,0,1,3.34.63,10.64,10.64,0,0,1,2.73,1.87l-.82.85A7.38,7.38,0,0,0,91.25,49a6.17,6.17,0,0,0-4.7,2,7,7,0,0,0-1.88,5v0a7,7,0,0,0,1.91,5,6.15,6.15,0,0,0,4.69,2,6.56,6.56,0,0,0,2.88-.6,9.47,9.47,0,0,0,2.5-1.83l.78.76a10.49,10.49,0,0,1-2.81,2A7.83,7.83,0,0,1,91.23,64.05Z" transform="translate(-0.82 -0.95)" fill="#ed1c24"/><path d="M97.61,63.79l7.27-15.74H106l7.27,15.74H112l-2-4.38H100.8l-2,4.38Zm3.68-5.43h8.23l-4.1-9Z" transform="translate(-0.82 -0.95)" fill="#ed1c24"/><path d="M117.22,63.79V49.24h-5.44V48.17h12v1.07h-5.45V63.79Z" transform="translate(-0.82 -0.95)" fill="#ed1c24"/><path d="M70.76,12.06V1L59.65,12.06H50.41L43,4.65V28.73A11.11,11.11,0,0,0,54.12,39.84H70.79V12.06Z" transform="translate(-0.82 -0.95)" fill="#ed1c24"/><rect x="45.54" y="14.9" width="21.07" height="9.58" rx="4.62" ry="4.62" fill="#fff"/><circle cx="61.42" cy="19.69" r="3.7"/><path d="M51.49,17.73a3,3,0,1,1-3,3,3,3,0,0,1,3-3m0-.74a3.71,3.71,0,1,0,3.7,3.71A3.71,3.71,0,0,0,51.49,17Z" transform="translate(-0.82 -0.95)" fill="#ed1c24"/><path d="M58.56,28.25a.37.37,0,0,0-.53,0L56.9,29.38l-1.14-1.13a.37.37,0,1,0-.52.52l1.29,1.29v2.52a.37.37,0,0,0,.37.37.38.38,0,0,0,.37-.37V30.06l1.29-1.29A.37.37,0,0,0,58.56,28.25Z" transform="translate(-0.82 -0.95)" fill="#fff"/><path d="M41.72,29.67h7.5a.28.28,0,0,0,.28-.28.27.27,0,0,0-.28-.28h-7.5a.27.27,0,0,0-.28.28A.28.28,0,0,0,41.72,29.67Z" transform="translate(-0.82 -0.95)" fill="#fff"/><path d="M50.64,30.45H40.3a.28.28,0,0,0-.28.28.29.29,0,0,0,.28.28H50.64a.29.29,0,0,0,.28-.28A.28.28,0,0,0,50.64,30.45Z" transform="translate(-0.82 -0.95)" fill="#fff"/><path d="M49.22,31.79h-7.5a.27.27,0,0,0-.28.28.28.28,0,0,0,.28.28h7.5a.28.28,0,0,0,.28-.28A.27.27,0,0,0,49.22,31.79Z" transform="translate(-0.82 -0.95)" fill="#fff"/><path d="M64.63,29.39h7.51a.28.28,0,0,0,0-.56H64.63a.28.28,0,0,0,0,.56Z" transform="translate(-0.82 -0.95)" fill="#fff"/><path d="M73.55,30.17H63.22a.28.28,0,1,0,0,.56H73.55a.28.28,0,0,0,0-.56Z" transform="translate(-0.82 -0.95)" fill="#fff"/><path d="M72.14,31.51H64.63a.28.28,0,0,0,0,.56h7.51a.28.28,0,0,0,0-.56Z" transform="translate(-0.82 -0.95)" fill="#fff"/><path d="M84.42,19.4h0a3.74,3.74,0,0,0-7.25,1.27,3.84,3.84,0,0,0,.3,1.48,11.94,11.94,0,0,1,.71,4.08A12.17,12.17,0,0,1,66,38.39,12.56,12.56,0,0,1,62.8,38,15.21,15.21,0,0,0,84.42,19.4Z" transform="translate(-0.82 -0.95)" fill="#ed1c24"/></svg>