<svg xmlns="http://www.w3.org/2000/svg" width="148" height="48"><g fill="#00A082" fill-rule="evenodd"><path d="M.06 31.102v-.092c0-9.057 7.04-16.727 16.946-16.727 4.929 0 8.214 1.154 11.219 3.28a2.866 2.866 0 011.174 2.31c0 1.526-1.267 2.82-2.864 2.82-.751 0-1.314-.324-1.784-.648-2.112-1.524-4.412-2.542-7.98-2.542-6.055 0-10.655 5.223-10.655 11.414v.093c0 6.654 4.459 11.552 11.172 11.552 3.098 0 5.914-.97 7.933-2.449V34.06h-6.478c-1.409 0-2.581-1.062-2.581-2.448 0-1.387 1.172-2.496 2.581-2.496h9.154c1.642 0 2.91 1.248 2.91 2.866v8.64c0 1.617-.657 2.773-2.018 3.604-2.817 1.849-6.76 3.512-11.688 3.512C6.819 47.737.06 40.53.06 31.102zm35.924-15.11c0-1.525 1.22-2.773 2.815-2.773 1.597 0 2.864 1.248 2.864 2.773v28.65c0 1.571-1.268 2.772-2.864 2.772-1.548 0-2.815-1.2-2.815-2.773v-28.65zm10.079 19.131v-.094c0-6.977 5.632-12.753 13.237-12.753 7.604 0 13.191 5.684 13.191 12.662v.091c0 6.933-5.633 12.709-13.285 12.709-7.558 0-13.143-5.684-13.143-12.615zm20.748 0v-.094c0-4.296-3.146-7.854-7.605-7.854-4.554 0-7.464 3.512-7.464 7.763v.091c0 4.252 3.145 7.81 7.558 7.81 4.6 0 7.51-3.512 7.51-7.716zm19.861 12.522h-.282c-1.548 0-2.582-.97-3.238-2.45l-8.26-18.622c-.142-.416-.33-.876-.33-1.386 0-1.386 1.267-2.68 2.816-2.68 1.548 0 2.346.878 2.816 2.034l6.384 16.172 6.478-16.264c.423-.971 1.173-1.942 2.676-1.942 1.549 0 2.769 1.156 2.769 2.68 0 .51-.187 1.064-.327 1.34l-8.262 18.669c-.66 1.432-1.69 2.45-3.24 2.45zm13.9-12.522v-.094c0-6.977 5.633-12.753 13.24-12.753 7.602 0 13.189 5.684 13.189 12.662v.091c0 6.933-5.633 12.709-13.285 12.709-7.557 0-13.144-5.684-13.144-12.615zm20.75 0v-.094c0-4.296-3.146-7.854-7.606-7.854-4.553 0-7.463 3.512-7.463 7.763v.091c0 4.252 3.144 7.81 7.558 7.81 4.599 0 7.51-3.512 7.51-7.716z"/><g><path d="M136.499.127c-6.15 0-11.153 4.927-11.153 10.98 0 2.306.728 4.52 2.103 6.402l.297.405 5.806 8.067s.709 1.14 2.254 1.14h1.387c1.546 0 2.252-1.14 2.252-1.14l5.808-8.067.294-.405a10.787 10.787 0 002.105-6.402c0-6.053-5.003-10.98-11.153-10.98zm4.59 14.222l-.309.426-4.28 5.947-4.274-5.935-.314-.431a5.475 5.475 0 01-1.074-3.249c0-3.073 2.54-5.573 5.66-5.573 3.122 0 5.661 2.5 5.661 5.573 0 1.165-.37 2.286-1.07 3.242zm-7.727 17.725v-.022c0-1.64 1.323-2.999 3.11-2.999 1.789 0 3.101 1.336 3.101 2.977v.022c0 1.628-1.324 2.986-3.122 2.986-1.775 0-3.09-1.335-3.09-2.964z"/></g></g></svg>