<svg width="249px" height="58px" viewBox="0 0 249 58" version="1.1" xmlns="http://www.w3.org/2000/svg" xmlns:xlink="http://www.w3.org/1999/xlink">
    <!-- Generator: Sketch 42 (36781) - http://www.bohemiancoding.com/sketch -->
    <title>Page 1</title>
    <desc>Created with Sketch.</desc>
    <defs></defs>
    <g id="klarna-UI" stroke="none" stroke-width="1" fill="none" fill-rule="evenodd">
        <g id="Product---business-(desktop)" transform="translate(-676.000000, -1589.000000)" fill="#000000">
            <path d="M728.778,1645.3152 L740.776,1645.3152 L740.776,1589.0002 L728.778,1589.0002 L728.778,1645.3152 Z M804.75,1612.7512 L804.75,1607.7142 L804.599,1607.7142 L804.599,1607.7122 L794.128,1607.7122 L794.128,1607.7142 L793.54,1607.7142 L793.54,1645.3152 L804.887,1645.3152 L804.887,1625.6092 C804.887,1619.8912 811.336,1617.3832 815.762,1618.6512 C815.806,1618.6642 815.85,1618.6562 815.896,1618.6562 L815.896,1607.7152 C811.25,1607.7152 806.979,1609.7342 804.75,1612.7512 L804.75,1612.7512 Z M766.154,1636.6062 C760.276,1636.6062 755.512,1632.0882 755.512,1626.5142 C755.512,1620.9402 760.276,1616.4222 766.154,1616.4222 C772.031,1616.4222 776.796,1620.9402 776.796,1626.5142 C776.796,1632.0882 772.031,1636.6062 766.154,1636.6062 L766.154,1636.6062 Z M776.689,1610.3192 C773.452,1608.0252 769.501,1606.6722 765.232,1606.6722 C754.274,1606.6722 745.391,1615.5562 745.391,1626.5142 C745.391,1637.4722 754.274,1646.3562 765.232,1646.3562 C769.501,1646.3562 773.452,1645.0032 776.689,1642.7102 L776.689,1645.3152 L786.49,1645.3152 L786.49,1607.7142 L776.689,1607.7142 L776.689,1610.3192 Z M843.953,1606.7012 C839.455,1606.7012 835.199,1608.0972 832.354,1611.9492 L832.354,1607.7142 L832.203,1607.7142 L832.203,1607.7122 L821.732,1607.7122 L821.732,1607.7142 L821.144,1607.7142 L821.144,1645.3152 L832.491,1645.3152 L832.491,1624.7482 C832.491,1619.0302 836.326,1616.2302 840.943,1616.2302 C845.891,1616.2302 848.735,1619.1862 848.735,1624.6702 L848.735,1645.3152 L859.98,1645.3152 L859.98,1621.4032 C859.98,1612.6512 853.022,1606.7012 843.953,1606.7012 L843.953,1606.7012 Z M917.01,1631.9772 C913.107,1631.9772 909.943,1635.1412 909.943,1639.0442 C909.943,1642.9462 913.107,1646.1102 917.01,1646.1102 C920.912,1646.1102 924.076,1642.9462 924.076,1639.0442 C924.076,1635.1412 920.912,1631.9772 917.01,1631.9772 L917.01,1631.9772 Z M884.721,1636.6062 C878.843,1636.6062 874.079,1632.0882 874.079,1626.5142 C874.079,1620.9402 878.843,1616.4222 884.721,1616.4222 C890.598,1616.4222 895.362,1620.9402 895.362,1626.5142 C895.362,1632.0882 890.598,1636.6062 884.721,1636.6062 L884.721,1636.6062 Z M895.256,1610.3192 C892.019,1608.0252 888.068,1606.6722 883.799,1606.6722 C872.841,1606.6722 863.957,1615.5562 863.957,1626.5142 C863.957,1637.4722 872.841,1646.3562 883.799,1646.3562 C888.068,1646.3562 892.019,1645.0032 895.256,1642.7102 L895.256,1645.3152 L905.056,1645.3152 L905.056,1607.7142 L895.256,1607.7142 L895.256,1610.3192 Z M912.182,1608.4002 L912.729,1608.4002 C913.072,1608.4002 913.218,1608.5672 913.218,1608.8232 C913.218,1609.0782 913.123,1609.2682 912.729,1609.2682 L912.182,1609.2682 L912.182,1608.4002 Z M912.19,1609.7272 L912.736,1609.7272 L913.196,1610.7772 L913.743,1610.7772 L913.232,1609.6392 C913.561,1609.4942 913.728,1609.2092 913.728,1608.8232 C913.728,1608.2902 913.32,1607.9332 912.729,1607.9332 L911.686,1607.9332 L911.686,1610.7702 L912.19,1610.7702 L912.19,1609.7272 Z M676,1645.3152 L688.506,1645.3152 L688.506,1589.0002 L676,1589.0002 L676,1645.3152 Z M720.604,1589.0052 L708.462,1589.0052 C708.214,1601.7182 700.87,1612.6922 690.223,1618.1232 L708.88,1645.3152 L724.114,1645.3152 L707.155,1620.5812 C715.623,1612.2742 720.433,1601.0762 720.604,1589.0052 L720.604,1589.0052 Z M912.605,1607.2182 C913.794,1607.2182 914.757,1608.1962 914.757,1609.3992 C914.757,1610.6022 913.794,1611.5792 912.605,1611.5792 C911.417,1611.5792 910.454,1610.6022 910.454,1609.3992 C910.454,1608.1962 911.417,1607.2182 912.605,1607.2182 L912.605,1607.2182 Z M912.605,1612.0972 C914.078,1612.0972 915.274,1610.8862 915.274,1609.3992 C915.274,1607.9112 914.078,1606.7012 912.605,1606.7012 C911.132,1606.7012 909.943,1607.9112 909.943,1609.3992 C909.943,1610.8862 911.132,1612.0972 912.605,1612.0972 L912.605,1612.0972 Z" id="Page-1"></path>
        </g>
    </g>
</svg>