<?xml version="1.0" encoding="UTF-8" standalone="no"?>
<!-- Created with Inkscape (http://www.inkscape.org/) -->

<svg
   version="1.1"
   id="svg2"
   xml:space="preserve"
   width="541.21332"
   height="253.44"
   viewBox="0 0 541.21332 253.44"
   sodipodi:docname="passgenau.digital_Zeichenfläche 1.eps"
   xmlns:inkscape="http://www.inkscape.org/namespaces/inkscape"
   xmlns:sodipodi="http://sodipodi.sourceforge.net/DTD/sodipodi-0.dtd"
   xmlns="http://www.w3.org/2000/svg"
   xmlns:svg="http://www.w3.org/2000/svg"><defs
     id="defs6" /><sodipodi:namedview
     id="namedview4"
     pagecolor="#ffffff"
     bordercolor="#666666"
     borderopacity="1.0"
     inkscape:pageshadow="2"
     inkscape:pageopacity="0.0"
     inkscape:pagecheckerboard="0" /><g
     id="g8"
     inkscape:groupmode="layer"
     inkscape:label="ink_ext_XXXXXX"
     transform="matrix(1.3333333,0,0,-1.3333333,0,253.44)"><g
       id="g10"
       transform="scale(0.1)"><path
         d="m 2466.51,494.051 c -3.49,3.84 -8.02,5.75 -13.59,5.75 -5.58,0 -10.11,-1.91 -13.59,-5.75 -3.48,-3.832 -5.23,-8.18 -5.23,-13.063 0,-4.879 1.75,-9.226 5.23,-13.066 3.48,-3.832 8.01,-5.75 13.59,-5.75 5.57,0 10.1,1.918 13.59,5.75 3.48,3.84 5.22,8.187 5.22,13.066 0,4.883 -1.74,9.231 -5.22,13.063"
         style="fill:#205629;fill-opacity:1;fill-rule:nonzero;stroke:none"
         id="path12" /><path
         d="m 1929.29,620.301 c -14.32,14.211 -31.6,21.371 -51.86,21.371 -3.9,0 -7.65,-0.34 -11.34,-0.883 -0.02,0 -0.05,0 -0.08,-0.008 -15.39,-2.23 -28.89,-9.031 -40.43,-20.48 -14.22,-14.422 -21.38,-31.711 -21.38,-51.86 v -95.73 c 0,-2.871 1.02,-5.32 3.17,-7.473 2.05,-2.047 4.5,-3.066 7.47,-3.066 h 0.51 c 2.86,0 5.42,1.019 7.46,3.066 2.05,2.153 3.18,4.602 3.18,7.473 v 95.73 c 0,14.118 5.01,26.289 15.13,36.411 1.19,1.187 2.52,2.078 3.77,3.136 1.45,1.211 2.85,2.551 4.38,3.582 0.72,0.489 1.52,0.789 2.26,1.231 2.09,1.258 4.18,2.519 6.41,3.437 0.83,0.34 1.74,0.481 2.58,0.782 2.23,0.769 4.44,1.57 6.79,2.019 3.26,0.633 6.63,0.949 10.12,0.949 14.22,0 26.29,-5.109 36.42,-15.136 10.02,-10.122 15.13,-22.293 15.13,-36.411 v -95.73 c 0,-2.871 1.03,-5.32 3.07,-7.473 2.15,-2.047 4.71,-3.066 7.67,-3.066 h 0.31 0.1 c 0.68,0 1.25,0.25 1.88,0.359 2.17,0.367 4.13,1.141 5.69,2.707 2.05,1.942 2.97,4.5 2.97,7.473 v 38.348 57.382 c 0,20.149 -7.16,37.438 -21.38,51.86"
         style="fill:#205629;fill-opacity:1;fill-rule:nonzero;stroke:none"
         id="path14" /><path
         d="m 2366.4,638.609 c -2.04,2.039 -4.5,3.063 -7.46,3.063 h -0.52 c -2.86,0 -5.42,-1.024 -7.46,-3.063 -2.05,-2.148 -3.17,-4.609 -3.17,-7.468 v -95.743 c 0,-14.109 -5.02,-26.277 -15.14,-36.41 -1.19,-1.187 -2.51,-2.078 -3.77,-3.129 -1.45,-1.218 -2.85,-2.558 -4.38,-3.589 -0.72,-0.481 -1.52,-0.782 -2.26,-1.231 -2.09,-1.25 -4.18,-2.508 -6.41,-3.437 -0.83,-0.34 -1.73,-0.481 -2.58,-0.77 -2.22,-0.781 -4.44,-1.582 -6.79,-2.031 -3.26,-0.621 -6.63,-0.949 -10.12,-0.949 -14.22,0 -26.29,5.117 -36.41,15.136 -10.03,10.133 -15.14,22.301 -15.14,36.41 v 95.743 c 0,2.859 -1.02,5.32 -3.07,7.468 -2.15,2.039 -4.7,3.063 -7.67,3.063 h -0.31 -0.1 c -0.67,0 -1.25,-0.242 -1.88,-0.363 -2.17,-0.368 -4.12,-1.137 -5.69,-2.7 -2.04,-1.949 -2.96,-4.5 -2.96,-7.468 v -38.36 -57.383 c 0,-20.148 7.16,-37.429 21.37,-51.847 14.32,-14.219 31.61,-21.379 51.86,-21.379 3.9,0 7.66,0.348 11.34,0.879 0.03,0 0.05,0.008 0.08,0.008 15.39,2.242 28.9,9.031 40.44,20.492 14.21,14.418 21.37,31.699 21.37,51.847 v 95.743 c 0,2.859 -1.02,5.32 -3.17,7.468"
         style="fill:#205629;fill-opacity:1;fill-rule:nonzero;stroke:none"
         id="path16" /><path
         d="m 3071.67,672.859 c 3.54,0 6.54,1.223 9.01,3.692 2.57,2.57 3.85,5.629 3.85,9.16 0,3.43 -1.28,6.43 -3.85,9 -2.47,2.469 -5.47,3.699 -9.01,3.699 -3.64,0 -6.7,-1.23 -9.16,-3.699 -2.46,-2.461 -3.7,-5.461 -3.7,-9 0,-3.641 1.24,-6.691 3.7,-9.16 2.46,-2.469 5.52,-3.692 9.16,-3.692"
         style="fill:#a5c658;fill-opacity:1;fill-rule:nonzero;stroke:none"
         id="path18" /><path
         d="m 3071.83,632.672 h -0.32 c -2.79,0 -5.14,-0.961 -7.07,-2.891 -1.93,-1.929 -2.89,-4.293 -2.89,-7.07 V 476.602 c 0,-2.68 0.96,-4.981 2.89,-6.911 1.93,-1.929 4.28,-2.89 7.07,-2.89 h 0.32 c 2.68,0 4.99,0.961 6.92,2.89 1.93,1.93 2.89,4.231 2.89,6.911 v 146.109 c 0,2.777 -0.96,5.141 -2.89,7.07 -1.93,1.93 -4.24,2.891 -6.92,2.891"
         style="fill:#a5c658;fill-opacity:1;fill-rule:nonzero;stroke:none"
         id="path20" /><path
         d="m 2768.29,668.309 c 3.53,0 6.53,1.23 9,3.703 2.57,2.566 3.86,5.617 3.86,9.16 0,3.43 -1.29,6.43 -3.86,9 -2.47,2.469 -5.47,3.699 -9,3.699 -3.65,0 -6.7,-1.23 -9.16,-3.699 -2.47,-2.473 -3.7,-5.461 -3.7,-9 0,-3.641 1.23,-6.703 3.7,-9.16 2.46,-2.473 5.51,-3.703 9.16,-3.703"
         style="fill:#a5c658;fill-opacity:1;fill-rule:nonzero;stroke:none"
         id="path22" /><path
         d="m 2768.45,628.129 h -0.32 c -2.79,0 -5.15,-0.969 -7.08,-2.899 -1.92,-1.921 -2.89,-4.281 -2.89,-7.07 V 472.059 c 0,-2.68 0.97,-4.989 2.89,-6.918 1.93,-1.922 4.29,-2.891 7.08,-2.891 h 0.32 c 2.67,0 4.98,0.969 6.91,2.891 1.93,1.929 2.89,4.238 2.89,6.918 V 618.16 c 0,2.789 -0.96,5.149 -2.89,7.07 -1.93,1.93 -4.24,2.899 -6.91,2.899"
         style="fill:#a5c658;fill-opacity:1;fill-rule:nonzero;stroke:none"
         id="path24" /><path
         d="m 3475.91,694.859 c -2.79,0 -5.15,-0.961 -7.08,-2.89 -1.92,-1.93 -2.89,-4.289 -2.89,-7.071 V 476.602 c 0,-2.68 0.97,-4.981 2.89,-6.911 1.93,-1.929 4.29,-2.89 7.08,-2.89 h 0.32 c 2.68,0 4.98,0.961 6.91,2.89 1.93,1.93 2.89,4.231 2.89,6.911 v 208.296 c 0,2.782 -0.96,5.141 -2.89,7.071 -1.93,1.929 -4.23,2.89 -6.91,2.89 h -0.32"
         style="fill:#a5c658;fill-opacity:1;fill-rule:nonzero;stroke:none"
         id="path26" /><path
         d="m 3211.2,634.691 c -1.93,1.93 -4.23,2.891 -6.91,2.891 h -25.86 v 47.316 c 0,2.782 -0.96,5.141 -2.89,7.071 -1.93,1.929 -4.24,2.89 -6.92,2.89 h -0.32 c -2.78,0 -5.14,-0.961 -7.07,-2.89 -1.93,-1.93 -2.89,-4.289 -2.89,-7.071 v -47.316 h -25.7 c -2.79,0 -5.14,-0.961 -7.07,-2.891 -1.93,-1.929 -2.89,-4.23 -2.89,-6.91 v -0.32 c 0,-2.789 0.96,-5.141 2.89,-7.07 1.93,-1.93 4.28,-2.891 7.07,-2.891 h 25.7 V 476.602 c 0,-2.68 0.96,-4.981 2.89,-6.911 1.93,-1.929 4.29,-2.89 7.07,-2.89 h 0.32 c 2.68,0 4.99,0.961 6.92,2.89 1.93,1.93 2.89,4.231 2.89,6.911 V 617.5 h 25.86 c 2.68,0 4.98,0.961 6.91,2.891 1.93,1.929 2.89,4.281 2.89,7.07 v 0.32 c 0,2.68 -0.96,4.981 -2.89,6.91"
         style="fill:#a5c658;fill-opacity:1;fill-rule:nonzero;stroke:none"
         id="path28" /><path
         d="m 1605.55,533.82 c -1.15,7.801 -1.72,13.371 -1.72,16.7 0,18.609 6.54,34.511 19.63,47.71 13.2,13.2 29.11,19.809 47.71,19.809 20.9,0 39.49,-9.758 55.8,-29.277 z m 148.29,-2.59 c -2.18,2.989 -5.11,4.481 -8.78,4.481 -5.17,0 -8.62,-2.41 -10.34,-7.231 -4.59,-13.32 -12.57,-24.109 -23.94,-32.378 -11.83,-8.614 -25.03,-12.922 -39.61,-12.922 -21.93,0 -40.93,10.332 -57.01,31 13.66,6.09 36.74,16.48 69.24,31.179 26.18,11.821 47.3,21.352 63.38,28.59 2.64,1.262 4.47,3.211 5.51,5.852 1.03,2.758 0.92,5.449 -0.35,8.097 -7.12,15.614 -17.85,28.133 -32.2,37.543 -14.7,9.649 -30.89,14.469 -48.57,14.469 -24.57,0 -45.53,-8.672 -62.87,-26.012 -17.33,-17.328 -26,-38.289 -26,-62.859 0,-24.57 8.67,-45.527 26,-62.859 17.34,-17.34 38.3,-26.008 62.87,-26.008 19.06,0 36.39,5.566 52.01,16.707 15.16,10.902 25.78,25.141 31.86,42.711 1.27,3.441 0.86,6.66 -1.2,9.64"
         style="fill:#205629;fill-opacity:1;fill-rule:nonzero;stroke:none"
         id="path30" /><path
         d="m 2133.84,505.148 c -12.93,-12.929 -28.58,-19.386 -46.95,-19.386 -18.38,0 -34.09,6.457 -47.13,19.386 -12.93,13.043 -19.39,28.75 -19.39,47.122 0,18.261 6.46,33.91 19.39,46.96 13.04,13.04 28.75,19.559 47.13,19.559 18.48,0 34.13,-6.519 46.95,-19.559 13.04,-13.05 19.56,-28.699 19.56,-46.96 0,-18.372 -6.52,-34.079 -19.56,-47.122 z m 15.14,109.223 c -17.13,17.117 -37.83,25.68 -62.09,25.68 -24.28,0 -44.97,-8.563 -62.1,-25.68 -17.12,-17.133 -25.69,-37.832 -25.69,-62.101 0,-24.27 8.57,-44.961 25.69,-62.09 17.13,-17.129 37.82,-25.692 62.1,-25.692 22.11,0 44.28,9.871 66.51,29.602 v -19.219 c 0,-2.84 1.02,-5.269 3.07,-7.312 2.03,-2.047 4.47,-3.071 7.31,-3.071 h 0.51 c 2.83,0 5.27,1.024 7.31,3.071 2.05,2.043 3.07,4.472 3.07,7.312 v 77.399 c 0,24.269 -8.57,44.968 -25.69,62.101"
         style="fill:#205629;fill-opacity:1;fill-rule:nonzero;stroke:none"
         id="path32" /><path
         d="m 3376.97,505.148 c -12.93,-12.929 -28.58,-19.386 -46.95,-19.386 -18.38,0 -34.08,6.457 -47.13,19.386 -12.92,13.043 -19.39,28.75 -19.39,47.122 0,18.261 6.47,33.91 19.39,46.96 13.05,13.04 28.75,19.559 47.13,19.559 18.48,0 34.13,-6.519 46.95,-19.559 13.04,-13.05 19.56,-28.699 19.56,-46.96 0,-18.372 -6.52,-34.079 -19.56,-47.122 z m 15.14,109.223 c -17.13,17.117 -37.83,25.68 -62.09,25.68 -24.27,0 -44.97,-8.563 -62.1,-25.68 -17.12,-17.133 -25.69,-37.832 -25.69,-62.101 0,-24.27 8.57,-44.961 25.69,-62.09 17.13,-17.129 37.83,-25.692 62.1,-25.692 22.11,0 44.28,9.871 66.51,29.602 v -19.219 c 0,-2.84 1.02,-5.269 3.07,-7.312 2.04,-2.047 4.47,-3.071 7.31,-3.071 h 0.51 c 2.84,0 5.27,1.024 7.32,3.071 2.04,2.043 3.06,4.472 3.06,7.312 v 77.399 c 0,24.269 -8.57,44.968 -25.69,62.101"
         style="fill:#a5c658;fill-opacity:1;fill-rule:nonzero;stroke:none"
         id="path34" /><path
         d="m 931.828,505.148 c -12.93,-12.929 -28.582,-19.386 -46.953,-19.386 -18.371,0 -34.082,6.457 -47.125,19.386 -12.926,13.043 -19.391,28.75 -19.391,47.122 0,18.261 6.465,33.91 19.391,46.96 13.043,13.04 28.754,19.559 47.125,19.559 18.484,0 34.137,-6.519 46.953,-19.559 13.039,-13.05 19.563,-28.699 19.563,-46.96 0,-18.372 -6.524,-34.079 -19.563,-47.122 z m 15.141,109.223 c -17.129,17.117 -37.828,25.68 -62.094,25.68 -24.27,0 -44.969,-8.563 -62.094,-25.68 -17.129,-17.133 -25.687,-37.832 -25.687,-62.101 0,-24.27 8.558,-44.961 25.687,-62.09 17.125,-17.129 37.824,-25.692 62.094,-25.692 22.117,0 44.289,9.871 66.516,29.602 v -19.219 c 0,-2.84 1.019,-5.269 3.062,-7.312 2.039,-2.047 4.481,-3.071 7.317,-3.071 h 0.511 c 2.832,0 5.27,1.024 7.313,3.071 2.043,2.043 3.062,4.472 3.062,7.312 v 77.399 c 0,24.269 -8.562,44.968 -25.687,62.101"
         style="fill:#205629;fill-opacity:1;fill-rule:nonzero;stroke:none"
         id="path36" /><path
         d="m 594.355,552.27 c 0,18.261 6.524,33.91 19.563,46.96 12.82,13.04 28.473,19.559 46.957,19.559 18.371,0 34.078,-6.519 47.121,-19.559 12.93,-13.05 19.395,-28.699 19.395,-46.96 0,-18.372 -6.465,-34.079 -19.395,-47.122 -13.043,-12.929 -28.75,-19.386 -47.121,-19.386 -18.375,0 -34.023,6.457 -46.957,19.386 -13.039,13.043 -19.563,28.75 -19.563,47.122 z m -21.265,0 V 419.738 c 0,-2.84 1.023,-5.269 3.062,-7.308 2.043,-2.051 4.481,-3.071 7.317,-3.071 h 0.511 c 2.836,0 5.274,1.02 7.313,3.071 2.043,2.039 3.062,4.468 3.062,7.308 v 74.352 c 22.231,-19.731 44.403,-29.602 66.52,-29.602 24.27,0 44.969,8.563 62.094,25.692 17.125,17.129 25.687,37.82 25.687,62.09 0,24.269 -8.562,44.968 -25.687,62.101 -17.125,17.117 -37.824,25.68 -62.094,25.68 -24.27,0 -44.969,-8.563 -62.094,-25.68 C 581.656,597.238 573.09,576.539 573.09,552.27"
         style="fill:#205629;fill-opacity:1;fill-rule:nonzero;stroke:none"
         id="path38" /><path
         d="m 2690.56,550.949 c 0,-18.25 -6.52,-33.91 -19.56,-46.949 -12.82,-13.039 -28.47,-19.559 -46.96,-19.559 -18.37,0 -34.08,6.52 -47.12,19.559 -12.93,13.039 -19.39,28.699 -19.39,46.949 0,18.383 6.46,34.09 19.39,47.133 13.04,12.918 28.75,19.387 47.12,19.387 18.38,0 34.03,-6.469 46.96,-19.387 13.04,-13.043 19.56,-28.75 19.56,-47.133 z m 21.27,0 v 132.539 c 0,2.832 -1.02,5.274 -3.07,7.313 -2.04,2.039 -4.48,3.058 -7.31,3.058 h -0.51 c -2.84,0 -5.28,-1.019 -7.31,-3.058 -2.05,-2.039 -3.07,-4.481 -3.07,-7.313 v -74.359 c -22.23,19.742 -44.4,29.601 -66.52,29.601 -24.27,0 -44.96,-8.558 -62.09,-25.679 -17.13,-17.129 -25.69,-37.832 -25.69,-62.102 0,-24.269 8.56,-44.961 25.69,-62.09 17.13,-17.121 37.82,-25.687 62.09,-25.687 24.27,0 44.97,8.566 62.1,25.687 17.12,17.129 25.69,37.821 25.69,62.09"
         style="fill:#a5c658;fill-opacity:1;fill-rule:nonzero;stroke:none"
         id="path40" /><path
         d="m 1489.27,501.449 c -13.53,-13.859 -30.03,-20.801 -48.85,-20.801 -42.9,0 -70.3,34.661 -70.3,72.293 0,37.618 28.72,69.969 70.3,69.969 41.92,0 69.64,-36.308 69.64,-72.609 0,-18.153 -7.26,-34.66 -20.79,-48.852 z m 44.23,55.449 c -1.65,18.481 -6.93,35.321 -22.78,54.122 -16.83,19.808 -43.89,30.699 -70.95,30.699 -53.8,0 -92.75,-39.278 -92.75,-89.77 0,-52.148 39.94,-90.437 94.72,-90.437 22.45,0 41.59,7.918 69.31,35.648 -4.61,-52.469 -29.37,-79.539 -70.63,-79.539 -26.73,0 -43.89,8.578 -53.46,32.02 -1.24,3.558 -2.5,9.097 -4.64,10.929 -2.66,2.282 -5.78,3.16 -9.21,2.809 l -0.62,-0.059 c -3.42,-0.34 -6.24,-1.871 -8.46,-4.59 -2.2,-2.679 -3.12,-5.71 -2.81,-9.089 h -0.01 c 0,-0.012 0.01,-0.02 0.01,-0.032 0,-0.031 -0.01,-0.058 -0.01,-0.078 h 0.04 c 9.62,-34.59 43.9,-52.043 80.83,-52.043 62.04,0 87.79,39.934 89.44,96.043 0.66,24.098 3.3,44.551 1.98,63.367"
         style="fill:#205629;fill-opacity:1;fill-rule:nonzero;stroke:none"
         id="path42" /><path
         d="m 2966.08,501.449 c -13.53,-13.859 -30.03,-20.801 -48.85,-20.801 -42.9,0 -70.3,34.661 -70.3,72.293 0,37.618 28.72,69.969 70.3,69.969 41.92,0 69.64,-36.308 69.64,-72.609 0,-18.153 -7.26,-34.66 -20.79,-48.852 z m 44.23,55.449 c -1.66,18.481 -6.93,35.321 -22.78,54.122 -16.83,19.808 -43.89,30.699 -70.96,30.699 -53.79,0 -92.74,-39.278 -92.74,-89.77 0,-52.148 39.94,-90.437 94.72,-90.437 22.45,0 41.59,7.918 69.31,35.648 -4.62,-52.469 -29.37,-79.539 -70.63,-79.539 -26.73,0 -43.89,8.578 -53.46,32.02 -1.24,3.558 -2.5,9.097 -4.64,10.929 -2.66,2.282 -5.78,3.16 -9.21,2.809 l -0.62,-0.059 c -3.42,-0.34 -6.24,-1.871 -8.46,-4.59 -2.2,-2.679 -3.12,-5.71 -2.81,-9.089 h -0.01 c 0,-0.012 0.01,-0.02 0.01,-0.032 0,-0.031 -0.01,-0.058 -0.01,-0.078 h 0.04 c 9.62,-34.59 43.9,-52.043 80.82,-52.043 62.05,0 87.8,39.934 89.45,96.043 0.66,24.098 3.3,44.551 1.98,63.367"
         style="fill:#a5c658;fill-opacity:1;fill-rule:nonzero;stroke:none"
         id="path44" /><path
         d="m 1102.61,559.539 c -7.92,3.301 -19.47,5.602 -29.37,9.902 -10.56,4.289 -21.13,11.879 -21.13,26.411 0,15.168 12.22,26.386 27.73,26.386 21.79,0 27.06,-11.547 29.05,-25.738 h 0.04 c 0.14,-2.871 1.16,-5.398 3.27,-7.512 2.25,-2.25 4.95,-3.379 8.08,-3.379 h 0.56 c 3.13,0 5.82,1.129 8.08,3.379 2.11,2.114 3.13,4.641 3.27,7.512 h 0.13 c -0.01,0.121 -0.05,0.23 -0.06,0.352 0,0.078 0.04,0.136 0.04,0.207 h -0.08 c -3.44,28.05 -18.28,45.652 -51.06,45.652 -28.38,0 -52.15,-21.121 -52.15,-48.191 0,-28.051 17.17,-37.301 37.3,-44.551 5.28,-2.321 10.56,-3.629 15.18,-5.617 15.51,-5.93 29.71,-14.52 29.71,-33.661 0,-17.492 -14.2,-29.711 -32.68,-29.711 -23.76,0 -34.65,20.141 -34.65,37.961 h -0.04 c -0.03,3.071 -1.1,5.731 -3.25,7.95 -2.19,2.25 -4.8,3.379 -7.83,3.379 h -0.55 c -3.03,0 -5.64,-1.129 -7.83,-3.379 -2.15,-2.219 -3.22,-4.879 -3.25,-7.95 h -0.03 c 0.01,-0.031 0.01,-0.062 0.01,-0.089 0,-0.02 -0.01,-0.032 -0.01,-0.043 h 0.01 c 1.04,-32.938 21.49,-57.297 57.09,-57.297 32.02,0 57.43,20.468 57.43,50.828 0,22.781 -11.22,38.281 -33.01,47.199"
         style="fill:#205629;fill-opacity:1;fill-rule:nonzero;stroke:none"
         id="path46" /><path
         d="m 1265.58,559.539 c -7.92,3.301 -19.48,5.602 -29.38,9.902 -10.56,4.289 -21.12,11.879 -21.12,26.411 0,15.168 12.21,26.386 27.72,26.386 21.79,0 27.07,-11.547 29.05,-25.738 h 0.04 c 0.14,-2.871 1.17,-5.398 3.28,-7.512 2.25,-2.25 4.94,-3.379 8.07,-3.379 h 0.57 c 3.12,0 5.82,1.129 8.07,3.379 2.11,2.114 3.14,4.641 3.27,7.512 h 0.13 c -0.01,0.121 -0.04,0.23 -0.06,0.352 0,0.078 0.04,0.136 0.04,0.207 h -0.08 c -3.43,28.05 -18.28,45.652 -51.05,45.652 -28.39,0 -52.15,-21.121 -52.15,-48.191 0,-28.051 17.16,-37.301 37.29,-44.551 5.29,-2.321 10.56,-3.629 15.18,-5.617 15.52,-5.93 29.71,-14.52 29.71,-33.661 0,-17.492 -14.19,-29.711 -32.68,-29.711 -23.76,0 -34.65,20.141 -34.65,37.961 h -0.04 c -0.03,3.071 -1.1,5.731 -3.25,7.95 -2.18,2.25 -4.79,3.379 -7.83,3.379 h -0.55 c -3.03,0 -5.64,-1.129 -7.82,-3.379 -2.16,-2.219 -3.23,-4.879 -3.26,-7.95 h -0.02 c 0,-0.031 0,-0.062 0,-0.089 0,-0.02 0,-0.032 0,-0.043 h 0.01 c 1.03,-32.938 21.49,-57.297 57.08,-57.297 32.02,0 57.43,20.468 57.43,50.828 0,22.781 -11.22,38.281 -33,47.199"
         style="fill:#205629;fill-opacity:1;fill-rule:nonzero;stroke:none"
         id="path48" /><path
         d="m 1783.91,1371.02 c 36.53,0 66.14,29.61 66.14,66.14 0,36.52 -29.61,66.13 -66.14,66.13 -36.52,0 -66.13,-29.61 -66.13,-66.13 0,-36.53 29.61,-66.14 66.13,-66.14"
         style="fill:#a5c658;fill-opacity:1;fill-rule:nonzero;stroke:none"
         id="path50" /><path
         d="m 2029.56,1371.02 c 36.52,0 66.13,29.61 66.13,66.14 0,36.52 -29.61,66.13 -66.13,66.13 -36.52,0 -66.13,-29.61 -66.13,-66.13 0,-36.53 29.61,-66.14 66.13,-66.14"
         style="fill:#205629;fill-opacity:1;fill-rule:nonzero;stroke:none"
         id="path52" /><path
         d="m 2275.21,1371.02 c 36.52,0 66.13,29.61 66.13,66.14 0,36.52 -29.61,66.13 -66.13,66.13 -36.52,0 -66.13,-29.61 -66.13,-66.13 0,-36.53 29.61,-66.14 66.13,-66.14"
         style="fill:#c4e4b4;fill-opacity:1;fill-rule:nonzero;stroke:none"
         id="path54" /><path
         d="m 1783.91,1125.38 c 36.53,0 66.14,29.61 66.14,66.13 0,36.52 -29.61,66.13 -66.14,66.13 -36.52,0 -66.13,-29.61 -66.13,-66.13 0,-36.52 29.61,-66.13 66.13,-66.13"
         style="fill:#a1d489;fill-opacity:1;fill-rule:nonzero;stroke:none"
         id="path56" /><path
         d="m 2029.56,1125.38 c 36.52,0 66.13,29.61 66.13,66.13 0,36.52 -29.61,66.13 -66.13,66.13 -36.52,0 -66.13,-29.61 -66.13,-66.13 0,-36.52 29.61,-66.13 66.13,-66.13"
         style="fill:#78a669;fill-opacity:1;fill-rule:nonzero;stroke:none"
         id="path58" /><path
         d="m 2275.21,1125.38 c 36.52,0 66.13,29.61 66.13,66.13 0,36.52 -29.61,66.13 -66.13,66.13 -36.52,0 -66.13,-29.61 -66.13,-66.13 0,-36.52 29.61,-66.13 66.13,-66.13"
         style="fill:#a5c658;fill-opacity:1;fill-rule:nonzero;stroke:none"
         id="path60" /><path
         d="m 1783.91,879.738 c 36.53,0 66.14,29.606 66.14,66.129 0,36.524 -29.61,66.133 -66.14,66.133 -36.52,0 -66.13,-29.609 -66.13,-66.133 0,-36.523 29.61,-66.129 66.13,-66.129"
         style="fill:#205629;fill-opacity:1;fill-rule:nonzero;stroke:none"
         id="path62" /><path
         d="m 2029.56,879.738 c 36.52,0 66.13,29.606 66.13,66.129 0,36.524 -29.61,66.133 -66.13,66.133 -36.52,0 -66.13,-29.609 -66.13,-66.133 0,-36.523 29.61,-66.129 66.13,-66.129"
         style="fill:#a1d489;fill-opacity:1;fill-rule:nonzero;stroke:none"
         id="path64" /><path
         d="m 2275.21,879.738 c 36.52,0 66.13,29.606 66.13,66.129 0,36.524 -29.61,66.133 -66.13,66.133 -36.52,0 -66.13,-29.609 -66.13,-66.133 0,-36.523 29.61,-66.129 66.13,-66.129"
         style="fill:#205629;fill-opacity:1;fill-rule:nonzero;stroke:none"
         id="path66" /></g></g></svg>
