<svg width="95" height="34" viewBox="0 0 95 34" fill="none" xmlns="http://www.w3.org/2000/svg">
<path fill-rule="evenodd" clip-rule="evenodd" d="M25.1453 24.8811C25.5537 25.7251 26.4524 26.2969 27.4326 26.2969C29.257 26.2969 30.3463 24.8266 30.3463 22.8933C30.3463 20.9327 29.257 19.4622 27.4326 19.4622C26.4251 19.4622 25.5537 20.0612 25.1453 20.8782V24.8811ZM25.1453 33.4586H21.7687V16.7937H25.1453V17.8012C25.6899 17.1477 26.888 16.5214 28.1951 16.5214C31.7351 16.5214 33.75 19.4622 33.75 22.8933C33.75 26.3242 31.7351 29.2379 28.1951 29.2379C26.888 29.2379 25.6899 28.6116 25.1453 27.9581V33.4586Z" fill="#04080A"/>
<path fill-rule="evenodd" clip-rule="evenodd" d="M46.0035 28.9655H42.6271V27.8491C41.9463 28.6116 40.7754 29.2379 39.3594 29.2379C36.6363 29.2379 35.0843 27.4407 35.0843 24.7449V16.7937H38.4607V24.0641C38.4607 25.3439 39.0872 26.2154 40.4213 26.2154C41.4562 26.2154 42.3547 25.5891 42.5998 24.527V16.7937H46.0035V28.9655" fill="#04080A"/>
<path fill-rule="evenodd" clip-rule="evenodd" d="M51.6128 24.8811C52.0213 25.7251 52.92 26.2969 53.9002 26.2969C55.7246 26.2969 56.8138 24.8266 56.8138 22.8933C56.8138 20.9327 55.7246 19.4622 53.9002 19.4622C52.8926 19.4622 52.0213 20.0612 51.6128 20.8782V24.8811ZM51.6128 33.4586H48.2363V16.7937H51.6128V17.8012C52.1574 17.1477 53.3555 16.5214 54.6627 16.5214C58.2024 16.5214 60.2177 19.4622 60.2177 22.8933C60.2177 26.3242 58.2024 29.2379 54.6627 29.2379C53.3555 29.2379 52.1574 28.6116 51.6128 27.9581V33.4586Z" fill="#04080A"/>
<path fill-rule="evenodd" clip-rule="evenodd" d="M65.0646 24.8811C65.4732 25.7251 66.3717 26.2969 67.3519 26.2969C69.1765 26.2969 70.2656 24.8266 70.2656 22.8933C70.2656 20.9327 69.1765 19.4622 67.3519 19.4622C66.3444 19.4622 65.4732 20.0612 65.0646 20.8782V24.8811ZM65.0646 33.4586H61.6881V16.7937H65.0646V17.8012C65.6092 17.1477 66.8073 16.5214 68.1145 16.5214C71.6542 16.5214 73.6695 19.4622 73.6695 22.8933C73.6695 26.3242 71.6542 29.2379 68.1145 29.2379C66.8073 29.2379 65.6092 28.6116 65.0646 27.9581V33.4586Z" fill="#04080A"/>
<path fill-rule="evenodd" clip-rule="evenodd" d="M77.8355 21.559H82.5464C82.519 20.2791 81.7565 19.2717 80.3677 19.2717C79.0608 19.2717 78.1349 20.0612 77.8355 21.559ZM85.7866 24.9899C85.351 27.5768 83.4449 29.2379 80.3951 29.2379C76.8551 29.2379 74.4861 26.651 74.4861 22.8933C74.4861 19.2172 76.9368 16.5214 80.3405 16.5214C83.9078 16.5214 85.8684 18.9993 85.8684 22.5664V23.6013H77.7538C77.8627 25.4257 78.8974 26.5149 80.3951 26.5149C81.5386 26.5149 82.383 26.0247 82.6552 24.9899H85.7866Z" fill="#04080A"/>
<path fill-rule="evenodd" clip-rule="evenodd" d="M88.0739 19.5166H86.2223V16.7937H88.0739V13.4988H91.4231V16.7937H94.0919V19.5166H91.4231V24.8538C91.4231 25.8068 91.9406 26.2426 92.8119 26.2426C93.3292 26.2426 93.9012 26.0792 94.2824 25.834V28.8293C93.8194 29.0744 93.0026 29.2106 92.1039 29.2106C89.626 29.2106 88.0739 27.9853 88.0739 25.2894V19.5166" fill="#04080A"/>
<path fill-rule="evenodd" clip-rule="evenodd" d="M16.6661 16.6624V8.99985H10.8059L7.66252 5.85273V0H0V7.66252H5.86013L9.0017 10.8041L9.00355 14.86L5.85643 17.9997H0V25.6622H7.66252V19.8058L10.8059 16.6624H16.6661ZM2.55429 5.10823H5.10824V2.55428H2.55429V5.10823ZM2.55411 23.1081H5.10823V20.5538H2.55411V23.1081Z" fill="#FFAE1A"/>
</svg>
