<svg xmlns="http://www.w3.org/2000/svg" xmlns:xlink="http://www.w3.org/1999/xlink" width="368" height="368" viewBox="0 0 368 368">
  <defs>
    <clipPath id="clip-raksul-corporate">
      <rect width="368" height="368"/>
    </clipPath>
  </defs>
  <g id="raksul-corporate" clip-path="url(#clip-raksul-corporate)">
    <rect width="368" height="368" fill="#fff"/>
    <g id="raksul-corporate-2" data-name="raksul-corporate" transform="translate(-159.511 -125.014)">
      <path id="パス_1" data-name="パス 1" d="M208.194,256.906a41.178,41.178,0,1,0,41.175,41.178A41.178,41.178,0,0,0,208.194,256.906Zm20.923,16.666c-.442-.212-.9-.428-1.395-.64-6.737-2.9-11.237-3.933-12.9-3.84a23.48,23.48,0,0,0-9.589,3.074c-2.341,1.2-4.281,2.226-5.867,3.043s-2.918,1.5-3.989,2.014c-.511.17-3.158,1.409-3.5,1.5-3.721,1.429-5.634,2.313-5.912,2.41.007-.021-.6.094-1.829.369-.974.219-2.361.539-4.146.995a32.219,32.219,0,0,1,49.122-8.921Zm-38.611,41.07a4.309,4.309,0,0,1-.056,3.641,6.153,6.153,0,0,1-.866,1.13c-.428.469-.932.967-1.509,1.509a9.409,9.409,0,0,0-1.381,1.158,32.184,32.184,0,0,1-8.99-34.434c1.586.087,2.775.129,3.544.087a3.082,3.082,0,0,1,1.315,1.756C184.211,294.043,189.539,312.051,190.506,314.642Zm39.933,6.771a32.222,32.222,0,0,1-38.305,4.608c.348-.212.633-.383.824-.5.327-.184.518-.292.577-.313.483-.184,7.641-2.974,14.169-1.189a14.891,14.891,0,0,0,3.2.981c.355-.042,1.457-2.6,4.125-7.512,1.422-2.619,2.574-4.594,3.294-5.954a9.279,9.279,0,0,0,1.1-2.424,1.1,1.1,0,0,0-.741-1.1c-.57-.2-3.28,4.459-3.94,5.485-.762,1.471-1.123,1.21-2.285,1.353-.9-.212-1.791-.383-2.688-.518a9.6,9.6,0,0,0-2.021-.306c-1.715-.115-3.607-.014-3.968-.042a6.405,6.405,0,0,1-2.483-1.784,2.84,2.84,0,0,1-.414-.852q-2.708-10.992-5.419-21.987c-.17-1.13-.24-3.537-.271-5.335s.626-2.688,2.532-3.8c.313-.17,2.681-1.648,2.939-1.694.428-.077,1.478.077,1.972,1.565a25.9,25.9,0,0,1,.7,5.412c.056.369,2.09,17.876,2.361,19.382.007.049.021.108.028.156a30.953,30.953,0,0,1,.456,5.241c.25,1.36.8,2.1,1.649,2.268a2.221,2.221,0,0,0,.8,0c.39-.056,1.464-2.431,3.8-7.029a24.533,24.533,0,0,1,3.252-5.036,4.158,4.158,0,0,1,2.441-1.652q2.911,3.98,5.307,8.016c1.6,2.688,3.1,5.5,4.473,8.423C229.023,317.894,229.844,319.936,230.439,321.414Zm-8.1-40.987c2.567,1.485,3.777,2.64,3.77,3.335a3.681,3.681,0,0,1-.911,1.791,27.283,27.283,0,0,1-2.8,2.932,43.252,43.252,0,0,0-3.165,3.294c-.7.831-1.287,1.756-2.184,1.478a5.446,5.446,0,0,1-1.36-3.144c-.049-.7-.049-2.448.014-5.255.028-.271.049-.539.077-.81.056-1.621.129-2.925.2-3.927s.136-1.715.2-2.156C217.744,277.881,219.848,278.671,222.339,280.427Zm17.6,12.065a32.119,32.119,0,0,1-3.207,20.565c-.845-2.292-2.285-5.377-4.111-9.46-1.694-3.791-3.721-7.164-5.213-9.794-1.336-2.361-1.927-4-1.906-4.81.021-.525,1.367-2.09,4.316-4.518,1.395-1.158,2.518-2.042,3.342-2.674a13.119,13.119,0,0,1,1.642-1.151c.136-.063.257-.129.383-.191A32.154,32.154,0,0,1,239.937,292.492ZM208.194,343.9a45.816,45.816,0,1,1,45.818-45.814A45.864,45.864,0,0,1,208.194,343.9Zm0-90.592a44.774,44.774,0,1,0,44.778,44.774A44.824,44.824,0,0,0,208.194,253.31Z"/>
      <g id="グループ_2" data-name="グループ 2" transform="translate(264.191 263.479)">
        <path id="パス_2" data-name="パス 2" d="M496.862,319.981a16.829,16.829,0,0,0,5.843-12.76v-5.839a16.872,16.872,0,0,0-16.871-16.871H455.989a.87.87,0,0,0-.869.869V352.85a.87.87,0,0,0,.869.869h8.757a.87.87,0,0,0,.87-.869V324.961a.87.87,0,0,1,.869-.87h11.258a.878.878,0,0,1,.755.435l16.6,28.762a.873.873,0,0,0,.755.435H505.97a.87.87,0,0,0,.755-1.3l-16.11-27.906a.864.864,0,0,1,.473-1.255A16.923,16.923,0,0,0,496.862,319.981ZM466.489,294.46h17.063a8.653,8.653,0,0,1,8.653,8.653v2.379a8.653,8.653,0,0,1-8.653,8.653H466.489a.87.87,0,0,1-.869-.869V295.333A.87.87,0,0,1,466.489,294.46Z" transform="translate(-455.12 -284.507)"/>
        <path id="パス_3" data-name="パス 3" d="M886.658,314.4H876.485a8.653,8.653,0,0,1-8.653-8.653V303.1a8.653,8.653,0,0,1,8.653-8.653h6.57a8.649,8.649,0,0,1,8.6,7.721.865.865,0,0,0,1,.772l8.8-1.45a.865.865,0,0,0,.73-.88A16.871,16.871,0,0,0,885.329,284.5H874.2a16.872,16.872,0,0,0-16.871,16.871v5.578A16.872,16.872,0,0,0,874.2,323.821h10.176a8.653,8.653,0,0,1,8.653,8.653v2.64a8.653,8.653,0,0,1-8.653,8.653h-9.22a8.651,8.651,0,0,1-8.6-7.721.865.865,0,0,0-1-.772l-8.8,1.45a.864.864,0,0,0-.73.88,16.871,16.871,0,0,0,16.854,16.113h13.776a16.872,16.872,0,0,0,16.871-16.871v-5.579A16.874,16.874,0,0,0,886.658,314.4Z" transform="translate(-716.596 -284.5)"/>
        <g id="グループ_1" data-name="グループ 1" transform="translate(192.734 19.932)">
          <path id="パス_4" data-name="パス 4" d="M1039.064,342.679v30.845a8.169,8.169,0,0,1-8.17,8.17h-3.523a8.169,8.169,0,0,1-8.17-8.17V342.679a.87.87,0,0,0-.87-.869h-8.173a.87.87,0,0,0-.87.869v32.48a15.936,15.936,0,0,0,15.936,15.936h7.829a15.936,15.936,0,0,0,15.936-15.936v-32.48a.87.87,0,0,0-.869-.869h-8.173A.873.873,0,0,0,1039.064,342.679Z" transform="translate(-1009.29 -341.81)"/>
        </g>
        <path id="パス_5" data-name="パス 5" d="M1154.782,343.607V285.369a.87.87,0,0,0-.869-.869h-8.173a.87.87,0,0,0-.87.869V352.84a.87.87,0,0,0,.87.869h18.693a.87.87,0,0,0,.87-.869v-7.495a.87.87,0,0,0-.87-.87h-8.778A.871.871,0,0,1,1154.782,343.607Z" transform="translate(-904.983 -284.5)"/>
        <path id="パス_6" data-name="パス 6" d="M629.21,331.54h-19.1a.87.87,0,0,0-.869.869v7.655a.87.87,0,0,0,.869.869h16.944a8.174,8.174,0,0,1,8.114,7.192.877.877,0,0,1-.869.977h-12.9a15.936,15.936,0,0,0-15.936,15.936v3.419a15.933,15.933,0,0,0,15.936,15.932h22.867a.87.87,0,0,0,.87-.869v-.473h0V347.469A15.932,15.932,0,0,0,629.21,331.54ZM634.357,375H623.545a8.16,8.16,0,0,1-8.159-8.159v-.163a8.169,8.169,0,0,1,8.169-8.17h10.8a.87.87,0,0,1,.869.869V374.13A.87.87,0,0,1,634.357,375Z" transform="translate(-553.18 -315.18)"/>
        <path id="パス_7" data-name="パス 7" d="M780.068,352.26,758,327.807a.87.87,0,0,1,.017-1.186l19.862-20.739a.87.87,0,0,0-.63-1.471H766.542a.86.86,0,0,0-.63.271l-14.3,15.035h0V285.369a.87.87,0,0,0-.869-.869h-8.177a.87.87,0,0,0-.87.869v67.474a.87.87,0,0,0,.87.869h8.177a.87.87,0,0,0,.869-.869V337.159a.871.871,0,0,1,1.523-.577L768,353.418a.874.874,0,0,0,.654.3h10.771A.87.87,0,0,0,780.068,352.26Z" transform="translate(-642.031 -284.5)"/>
      </g>
    </g>
  </g>
</svg>
