<?xml version="1.0" encoding="utf-8"?>
<!-- Generator: Adobe Illustrator 24.0.0, SVG Export Plug-In . SVG Version: 6.00 Build 0)  -->
<svg version="1.1" id="Layer_1" xmlns="http://www.w3.org/2000/svg" xmlns:xlink="http://www.w3.org/1999/xlink" x="0px" y="0px"
	 viewBox="0 0 283.46 85.53" style="enable-background:new 0 0 283.46 85.53;" xml:space="preserve">
<style type="text/css">
	.st0{fill:#1B151B;}
</style>
<g>
	<g>
		<path class="st0" d="M60,37.62c-1.1,0-1.99,0.89-1.99,1.99c0,1.1,0.89,1.99,1.99,1.99c1.1,0,1.99-0.89,1.99-1.99
			C61.99,38.51,61.1,37.62,60,37.62"/>
		<path class="st0" d="M65.25,28.68h-17c-0.92,0-1.67,0.75-1.67,1.67c0,0.92,0.75,1.67,1.67,1.67h17c0.92,0,1.67-0.75,1.67-1.67
			C66.92,29.43,66.17,28.68,65.25,28.68"/>
		<path class="st0" d="M53.5,37.62c-1.1,0-1.99,0.89-1.99,1.99c0,1.1,0.89,1.99,1.99,1.99s1.99-0.89,1.99-1.99
			C55.49,38.51,54.6,37.62,53.5,37.62"/>
		<path class="st0" d="M115.41,40.05h-5.13c-0.23,0-0.42-0.19-0.42-0.42v-5.24c0-0.23,0.19-0.42,0.42-0.42h5.03
			c1.62,0,3.03,1.22,3.14,2.83C118.57,38.57,117.16,40.05,115.41,40.05 M119.04,44.93c-0.06-0.14-0.01-0.3,0.11-0.39
			c0.11-0.08,0.28-0.19,0.53-0.37c3.04-2.06,4.29-4.27,4.21-7.44c-0.11-4.58-3.91-8.21-8.49-8.21h-10.58
			c-0.23,0-0.42,0.19-0.42,0.42v27.67c0,0.23,0.19,0.42,0.42,0.42h4.6c0.23,0,0.42-0.19,0.42-0.42V45.92c0-0.23,0.19-0.42,0.42-0.42
			l2.77,0.01c0.26,0,0.49,0.16,0.59,0.4l4.33,10.72c0.1,0.24,0.33,0.4,0.59,0.4h5.16c0.23,0,0.38-0.23,0.29-0.44L119.04,44.93z"/>
		<path class="st0" d="M137.23,50.01c-0.25,1.62-1.38,2.44-3.37,2.44c-2.01,0-3.09-0.8-3.33-2.44c-0.25-1.66-0.25-4.57,0-6.22
			c0.27-1.71,1.27-2.44,3.33-2.44c1.99,0,3.12,0.82,3.37,2.44C137.48,45.44,137.48,48.35,137.23,50.01 M133.86,36.3
			c-4.59,0-7.79,2.88-8.37,7.52v0c-0.21,1.63-0.21,4.5,0,6.14c0.57,4.64,3.79,7.52,8.41,7.52c4.59,0,7.79-2.88,8.37-7.52
			c0.21-1.63,0.21-4.5,0-6.14C141.7,39.19,138.48,36.3,133.86,36.3"/>
		<path class="st0" d="M157.09,49.99c-0.09,1.59-1.37,2.62-3.25,2.62c-1.95,0-3.15-0.95-3.29-2.62l0,0c-0.12-1.65-0.12-4.55,0-6.2
			c0.09-1.2,0.74-2.62,3.29-2.62c1.88,0,3.15,1.03,3.25,2.62C157.22,45.44,157.22,48.34,157.09,49.99 M154.47,36.3
			c-1.75,0-2.63,0.41-3.45,1.13c-0.16,0.15-0.42,0.02-0.42-0.19v-8.3c0-0.23-0.19-0.42-0.42-0.42h-4.19c-0.23,0-0.42,0.19-0.42,0.42
			v27.66c0,0.23,0.19,0.42,0.42,0.42h2.76c0.2,0,0.39-0.09,0.51-0.25l1.02-1.35c0.1-0.14,0.31-0.13,0.41,0
			c0.74,1.02,1.79,2.05,3.79,2.05c4.11,0,7.33-3.16,7.66-7.51c0.12-1.64,0.12-4.51,0-6.15C161.8,39.46,158.58,36.3,154.47,36.3"/>
		<path class="st0" d="M249.82,49.99c-0.09,1.59-1.37,2.62-3.24,2.62c-2.55,0-3.19-1.42-3.29-2.62c-0.12-1.65-0.12-4.55,0-6.2v0
			c0.14-1.66,1.34-2.62,3.29-2.62c1.88,0,3.15,1.03,3.24,2.62C249.95,45.44,249.95,48.34,249.82,49.99 M254.86,43.82
			c-0.33-4.35-3.56-7.51-7.66-7.51c-2,0-3.05,1.03-3.79,2.05c-0.1,0.14-0.3,0.14-0.41,0l-1.02-1.35c-0.12-0.16-0.31-0.25-0.51-0.25
			h-2.76c-0.23,0-0.42,0.19-0.42,0.42v27.44c0,0.23,0.19,0.42,0.42,0.42h4.19c0.23,0,0.42-0.19,0.42-0.42v-8.08
			c0-0.22,0.26-0.34,0.42-0.19c0.81,0.73,1.7,1.14,3.45,1.14c4.11,0,7.33-3.16,7.66-7.51C254.98,48.33,254.98,45.46,254.86,43.82"/>
		<path class="st0" d="M176.39,50.01c-0.25,1.62-1.38,2.44-3.37,2.44c-2.01,0-3.1-0.8-3.33-2.44c-0.25-1.66-0.25-4.57,0-6.22
			c0.27-1.71,1.27-2.44,3.33-2.44c1.99,0,3.12,0.82,3.37,2.44C176.64,45.44,176.64,48.35,176.39,50.01 M173.02,36.3
			c-4.59,0-7.79,2.88-8.37,7.52v0c-0.21,1.63-0.21,4.5,0,6.14c0.57,4.64,3.79,7.52,8.41,7.52c4.59,0,7.79-2.88,8.37-7.52
			c0.21-1.63,0.21-4.5,0-6.14C180.86,39.19,177.64,36.3,173.02,36.3"/>
		<path class="st0" d="M192.42,36.3c-4.61,0-7.83,2.88-8.41,7.52c-0.21,1.63-0.21,4.5,0,6.14c0.57,4.64,3.79,7.52,8.41,7.52
			c4.1,0,8.24-2.72,8.24-7.91v-0.24c0-0.23-0.19-0.42-0.42-0.42h-3.96c-0.21,0-0.39,0.15-0.42,0.36c-0.01,0.05-0.02,0.11-0.03,0.17
			c-0.31,2.11-1.33,3.02-3.41,3.02c-2.05,0-3.18-0.82-3.37-2.45c-0.21-1.65-0.21-4.56,0-6.21c0.22-1.69,1.25-2.44,3.33-2.44
			c2.14,0,3.33,1.05,3.45,3.03c0,0.05,0.01,0.09,0.01,0.13c0.02,0.22,0.2,0.38,0.42,0.38h3.97c0.23,0,0.42-0.19,0.42-0.42v-0.24
			C200.66,39.56,197.28,36.3,192.42,36.3"/>
		<path class="st0" d="M214.83,50.01c-0.25,1.62-1.38,2.44-3.37,2.44c-2.01,0-3.1-0.8-3.33-2.44c-0.25-1.66-0.25-4.57,0-6.22
			c0.27-1.71,1.27-2.44,3.33-2.44c1.99,0,3.12,0.82,3.37,2.44C215.08,45.44,215.08,48.35,214.83,50.01 M211.46,36.3
			c-4.59,0-7.79,2.88-8.37,7.52v0c-0.21,1.63-0.21,4.5,0,6.14c0.57,4.64,3.79,7.52,8.41,7.52c4.59,0,7.79-2.88,8.37-7.52
			c0.21-1.63,0.21-4.5,0-6.14C219.3,39.19,216.08,36.3,211.46,36.3"/>
		<path class="st0" d="M235.3,36.76h-1.64c-2.56,0-3.68,0.9-4.5,1.56c-0.34,0.27-1,0.92-1.38,1.31c-0.13,0.13-0.36,0.08-0.42-0.1
			l-0.79-2.33c-0.09-0.26-0.33-0.43-0.6-0.43h-2.47c-0.23,0-0.42,0.19-0.42,0.42v19.43c0,0.23,0.19,0.42,0.42,0.42h4.19
			c0.23,0,0.42-0.19,0.42-0.42V46.52c0-3.22,2.06-5.14,5.51-5.14h1.68c0.23,0,0.42-0.19,0.42-0.42v-3.78
			C235.72,36.95,235.53,36.76,235.3,36.76"/>
		<path class="st0" d="M84.97,41.44c0,3.64-2.25,6.73-5.43,8.03c-0.42,0.17-0.88-0.13-0.88-0.59V32.56c0-0.45,0.46-0.76,0.88-0.59
			c3.18,1.3,5.43,4.4,5.43,8.04V41.44z M69.79,40.14c2.28,2.66,3.75,6.02,4.05,9.72c0.03,0.37-0.26,0.7-0.63,0.7H56.75H40.29
			c-0.38,0-0.66-0.32-0.63-0.7c0.3-3.7,1.78-7.06,4.05-9.72c0.26-0.31,0.19-0.73-0.15-0.95c-3.1-1.98-5.04-5.6-4.57-9.65
			c0.51-4.4,4.02-8.05,8.4-8.7c2.05-0.31,4.01,0.01,5.71,0.79c1.16,0.53,2.4,0.8,3.65,0.8c1.24,0,2.48-0.26,3.65-0.8
			c1.7-0.78,3.66-1.09,5.71-0.79c4.38,0.66,7.89,4.3,8.4,8.7c0.47,4.04-1.47,7.67-4.57,9.65C69.6,39.41,69.53,39.83,69.79,40.14
			 M56.75,68.46c-8.45,0-15.45-6.11-16.89-14.14c-0.07-0.39,0.23-0.76,0.63-0.76h16.26h16.26c0.4,0,0.7,0.36,0.63,0.76
			C72.2,62.36,65.2,68.46,56.75,68.46 M34.85,48.88c0,0.45-0.46,0.76-0.88,0.59c-3.18-1.3-5.43-4.4-5.43-8.03V40
			c0-3.64,2.25-6.73,5.43-8.04c0.42-0.17,0.88,0.13,0.88,0.59V48.88z M80.98,28.43c-0.82-0.33-1.7-0.41-2.54-0.25
			c-0.16,0.03-0.3-0.06-0.33-0.22c-1.14-5.63-5.69-10.04-11.44-10.9c-2.7-0.4-5.42-0.02-7.86,1.09c-0.65,0.3-1.35,0.45-2.05,0.45
			c-0.7,0-1.4-0.15-2.05-0.45c-2.44-1.12-5.16-1.5-7.86-1.09c-5.75,0.86-10.3,5.27-11.44,10.9c-0.03,0.16-0.18,0.25-0.34,0.22
			c-0.84-0.16-1.72-0.09-2.54,0.25c-4.74,1.94-7.8,6.48-7.8,11.57v1.43c0,5.08,3.06,9.62,7.8,11.57c0.55,0.22,1.12,0.33,1.69,0.33
			c0.52,0,1.04-0.1,1.54-0.28c0.2-0.08,0.41,0.1,0.37,0.31c-0.1,0.53-0.11,1.08-0.01,1.63c1.79,10.02,10.47,17.29,20.65,17.29
			c10.18,0,18.86-7.27,20.65-17.29c0.1-0.55,0.09-1.1-0.01-1.63c-0.04-0.21,0.17-0.39,0.37-0.31c0.49,0.18,1.01,0.28,1.54,0.28
			c0.57,0,1.15-0.11,1.7-0.33c4.74-1.94,7.8-6.48,7.8-11.57V40C88.79,34.92,85.72,30.38,80.98,28.43"/>
	</g>
</g>
</svg>
