<svg xmlns="http://www.w3.org/2000/svg" viewBox="0 0 542.22 137.86"  xmlns:v="https://vecta.io/nano"><path d="M57.67 131.86L6.06 100.15l25.71-15.63M83.8 53.28l25.73 46.98-51.88 31.53L6 37.47M58.03 6L6.16 37.53l51.61 31.71 51.88-31.53L58.03 6z" fill="none" stroke="#25d3d0" stroke-width="12" stroke-linecap="round" stroke-linejoin="round" stroke-miterlimit="10"/><g fill="#2d2d2d"><path d="M150.72 98.35c-3.43 0-6.7-.33-9.81-.97-3.11-.65-5.67-1.56-7.68-2.75l2.85-14.89c2.22 1.3 4.74 2.36 7.56 3.19s5.47 1.24 7.95 1.24c2.11 0 3.79-.24 5.03-.71s1.97-1.36 2.18-2.66c.26-1.48-.4-2.55-1.98-3.23l-6.96-2.88c-3.43-1.42-6.04-3.17-7.84-5.27-1.79-2.1-2.69-4.8-2.69-8.11 0-1.36.16-2.78.48-4.25 1.16-6.14 3.76-10.6 7.8-13.38s9.83-4.16 17.37-4.16c1.79 0 3.68.13 5.66.4s3.86.59 5.66.98c1.79.38 3.3.81 4.51 1.28l-2.85 14.98c-2.43-1.18-4.72-2.02-6.89-2.53-2.16-.5-4.17-.75-6.02-.75-1.32 0-2.59.07-3.8.22s-2.2.47-2.97.97-1.15 1.28-1.15 2.35c0 .95.62 1.67 1.86 2.17s3.21 1.2 5.9 2.08c4.48 1.48 7.58 3.46 9.3 5.94 1.71 2.48 2.57 5.29 2.57 8.42a23.88 23.88 0 0 1-.48 4.7c-1 5.32-3.58 9.59-7.72 12.8-4.13 3.21-10.08 4.82-17.84 4.82zm23.07-.89l10.76-57.07h17.02l-3.72 19.94h15.12l3.72-19.94h17.02l-10.76 57.07h-17.02l3.72-19.94h-15.12l-3.72 19.94h-17.02zm75.77.89c-4.38 0-8.22-.72-11.52-2.17s-5.86-3.69-7.68-6.73-2.73-6.96-2.73-11.74c0-1.36.07-2.75.2-4.16.13-1.42.36-2.92.67-4.52 1.37-7.15 3.42-12.88 6.13-17.19 2.72-4.31 6.23-7.44 10.53-9.39s9.51-2.92 15.63-2.92c6.75 0 12.1 1.68 16.03 5.05s5.9 8.63 5.9 15.77c0 1.3-.07 2.67-.2 4.12s-.36 2.97-.67 4.56c-1.32 7.03-3.34 12.7-6.06 17.01s-6.23 7.44-10.53 9.39c-4.29 1.95-9.52 2.92-15.7 2.92zm3.09-16.13c3.27 0 5.83-1.03 7.68-3.1s3.22-5.43 4.12-10.1c.47-2.48.71-4.55.71-6.2 0-2.6-.58-4.43-1.74-5.49s-3.06-1.59-5.7-1.59c-3.32 0-5.91.99-7.76 2.97s-3.22 5.42-4.12 10.32c-.48 2.36-.71 4.37-.71 6.03 0 2.54.59 4.37 1.78 5.49 1.19 1.11 3.1 1.67 5.74 1.67z"/><path d="M285.61,97.46l8.15-43.15h-13.61l2.61-13.91h44.32l-2.61,13.91h-13.69l-8.15,43.15H285.61z"/><path d="M331.73 98.35c-3.43 0-6.7-.33-9.81-.97s-5.67-1.56-7.68-2.75l2.85-14.89c2.22 1.3 4.74 2.36 7.56 3.19s5.47 1.24 7.96 1.24c2.11 0 3.79-.24 5.03-.71s1.97-1.36 2.18-2.66c.26-1.48-.4-2.55-1.98-3.23l-6.96-2.88c-3.43-1.42-6.04-3.17-7.84-5.27-1.79-2.1-2.69-4.8-2.69-8.11 0-1.36.16-2.78.48-4.25 1.16-6.14 3.76-10.6 7.8-13.38s9.83-4.16 17.37-4.16c1.79 0 3.68.13 5.66.4s3.86.59 5.66.98c1.79.38 3.3.81 4.51 1.28l-2.85 14.98c-2.43-1.18-4.72-2.02-6.89-2.53-2.17-.5-4.17-.75-6.02-.75-1.32 0-2.59.07-3.8.22s-2.2.47-2.97.97-1.15 1.28-1.15 2.35c0 .95.62 1.67 1.86 2.17s3.21 1.2 5.9 2.08c4.48 1.48 7.58 3.46 9.3 5.94 1.71 2.48 2.57 5.29 2.57 8.42 0 1.54-.16 3.1-.47 4.7-1 5.32-3.58 9.59-7.72 12.8-4.16 3.21-10.11 4.82-17.86 4.82z"/><path d="M363.18 97.46l8.15-43.15h-13.61l2.61-13.91h44.32l-2.61 13.91h-13.69l-8.15 43.15h-17.02zm20.75 0l30.31-57.07h17.81l8.87 57.07H423.9l-1.82-11.34h-13.85l-6.02 11.34h-18.28zm28.89-24.63h9.58l-2.22-13.82-7.36 13.82zm51.58 25.52c-4.91 0-9.2-.84-12.86-2.53-3.67-1.68-6.53-4.17-8.59-7.44s-3.09-7.31-3.09-12.1c0-2.24.24-4.64.71-7.18 1.85-9.69 5.51-17.04 11-22.06s13.46-7.53 23.9-7.53c3.11 0 5.9.27 8.35.8s4.74 1.3 6.85 2.3l-3.17 16.57c-2.11-1.24-4.21-2.14-6.29-2.7s-4.63-.84-7.64-.84c-4.27 0-7.73 1.02-10.37 3.06s-4.41 5.51-5.3 10.41c-.16.95-.29 1.83-.4 2.66s-.16 1.59-.16 2.3c0 3.01.88 5.13 2.65 6.34s4.66 1.82 8.67 1.82a35 35 0 0 0 7.64-.84c2.5-.56 5.05-1.43 7.64-2.61l-3.17 16.66c-2.48.95-5.03 1.67-7.64 2.17-2.59.49-5.51.74-8.73.74zm17.51-.89l10.76-57.07h17.02l-3.4 18.08 16.7-18.08h19.23l-22.08 23.57 12.74 33.5h-18.05l-7.44-21.44-5.54 5.76-2.93 15.68h-17.01z"/></g></svg>