<svg width="89" height="35" preserveAspectRatio="xMinYMin meet" xmlns="http://www.w3.org/2000/svg" viewBox="0 0 65 25.5" class="m-logo__logo">
    <g>
        <path fill="#6F6F6E" d="M4.6 15.2c0 0.7 0.3 1.3 0.8 1.6c0.5 0.3 1.1 0.5 1.8 0.5c0.9 0 2.3-0.4 2.3-1.6c0-1.1-1.5-1.4-2.3-1.6 c-3-0.8-6.8-0.8-6.8-4.8C0.3 6 4.1 5 6.9 5c3.2 0 6.6 0.9 6.7 4.7H9.3c0-0.6-0.2-1-0.6-1.3C8.2 8.2 7.7 8.1 7.1 8.1 C6.3 8.1 5 8.2 5 9.2c0 1.4 3.2 1.6 5.4 2.1c3 0.6 3.7 2.7 3.7 3.9c0 3.9-3.7 5.2-7 5.2c-3.5 0-7-1.2-7.2-5.2H4.6z"></path>
        <path fill="#6F6F6E" d="M30.7 20.1H26v-2h-0.1c-0.9 1.5-2.8 2.4-4.5 2.4c-4.2 0-5.4-2.4-5.4-6.3V5.4h4.8v8.5c0 1.9 0.8 2.6 2.4 2.6 c1 0 2.6-0.7 2.6-3.3V5.4h4.8V20.1z"></path>
        <polygon fill="#6F6F6E" points="42.2,20.1 36.6,20.1 31.8,5.4 36.7,5.4 39.4,15.1 39.5,15.1 42.2,5.4 47.1,5.4"></polygon>
        <path fill="#6F6F6E" d="M48 9.9C48.1 8 49 6.8 50.3 6c1.3-0.7 3-1 4.7-1c3.5 0 6.8 0.8 6.8 4.9v6.4c0 1.2 0 2.6 0.6 3.8h-4.8 c-0.2-0.5-0.2-0.9-0.3-1.4c-1.2 1.3-3.1 1.8-4.8 1.8c-2.8 0-5-1.4-5-4.4c0-4.8 5.2-4.4 8.5-5.1c0.8-0.2 1.3-0.5 1.3-1.4 c0-1.1-1.3-1.5-2.3-1.5c-1.3 0-2.2 0.6-2.4 1.8H48z M54.2 17.5c2.3 0 3-1.3 2.9-4.3c-0.7 0.4-1.9 0.5-3 0.8c-1.1 0.3-2 0.7-2 1.9 C52.2 17.1 53.1 17.5 54.2 17.5"></path>
    </g>
</svg>