<svg width="112" height="58" xmlns="http://www.w3.org/2000/svg">
 <g>
  <title>background</title>
  <rect fill="none" id="canvas_background" height="402" width="582" y="-1" x="-1"/>
 </g>
 <g>
  <title>Layer 1</title>
  <path id="svg_1" d="m42.742,23.568001c4.397,0.081 7.884,3.752 7.884,8.139l0,7.41a0.723,0.723 0 0 1 -0.724,0.723l-2.658,0a0.723,0.723 0 0 1 -0.724,-0.723l0,-7.483c0,-3.586 -2.787,-3.974 -3.985,-3.974s-3.986,0.388 -3.986,3.974l0,7.483a0.723,0.723 0 0 1 -0.723,0.723l-2.658,0a0.723,0.723 0 0 1 -0.725,-0.723l0,-7.483c0,-4.894 3.344,-8.16 8.3,-8.066l-0.001,0zm14.891,8.267l0,0.154c0,3.791 2.875,4.357 4.588,4.357c1.714,0 4.59,-0.566 4.59,-4.357c0,-3.793 -2.876,-4.358 -4.59,-4.358c-1.68,0 -4.51,0.546 -4.587,4.204l-0.002,0l0.001,0zm4.588,8.606c-5.2,0 -8.695,-3.396 -8.695,-8.452l0,-13.708c0,-0.399 0.324,-0.723 0.724,-0.723l1.449,0a1.93,1.93 0 0 1 1.933,1.927l0,5.139c1.295,-0.702 2.848,-1.089 4.59,-1.089c5.2,0 8.694,3.398 8.694,8.454c0,5.056 -3.494,8.452 -8.695,8.452zm26.482,-0.002c-4.397,-0.082 -7.884,-3.753 -7.884,-8.139l0,-7.41c0,-0.399 0.324,-0.723 0.724,-0.723l2.657,0c0.4,0 0.725,0.324 0.725,0.723l0,7.482c0,3.587 2.787,3.975 3.985,3.975s3.985,-0.388 3.985,-3.975l0,-7.482c0,-0.399 0.325,-0.723 0.725,-0.723l2.656,0c0.401,0 0.725,0.324 0.725,0.723l0,7.482c0,4.895 -3.343,8.161 -8.298,8.067zm-11.508,-0.6l-2.655,0a0.724,0.724 0 0 1 -0.726,-0.722l0,-20.836c0,-0.398 0.325,-0.722 0.726,-0.722l1.448,0a1.93,1.93 0 0 1 1.933,1.927l0,19.63a0.724,0.724 0 0 1 -0.726,0.723zm-51.361,-4.354c2,-0.693 3.81,-1.778 5.35,-3.165l0,0.052c0,4.827 -3.252,8.07 -8.093,8.07c-3.701,0 -6.468,-1.902 -7.567,-4.955a15.657,15.657 0 0 0 6.755,0.8a15.56,15.56 0 0 0 3.555,-0.802zm-6.727,-4.15a0.368,0.368 0 0 1 -0.476,0.35a14.417,14.417 0 0 1 -3.63,-1.75l0,-5.03c0,-0.399 0.324,-0.722 0.725,-0.722l2.656,0c0.4,0 0.725,0.323 0.725,0.722l0,6.43zm7.97,-6.43c0,-0.399 0.325,-0.723 0.726,-0.723l2.657,0c0.4,0 0.723,0.324 0.723,0.723l0,5.03a14.397,14.397 0 0 1 -3.63,1.75a0.368,0.368 0 0 1 -0.476,-0.35l0,-6.43z" fill-rule="evenodd" fill="#FA6019"/>
 </g>
</svg>
