<svg xmlns="http://www.w3.org/2000/svg" width="522" height="298" viewBox="0 0 522 298">
  <g fill="none" fill-rule="evenodd" transform="translate(1 1)">
    <path fill="#F8781A" d="M60.9829,63.4044 L37.8749,63.4044 C35.3499,63.4044 34.0369,65.3294 35.0159,67.6804 L50.7779,105.7644 C51.7569,108.1294 50.6089,110.8844 48.2539,111.8784 L46.7169,112.4664 C44.3439,113.4544 41.6019,112.3594 40.6219,109.9994 L24.8689,71.9134 C23.8669,69.5524 21.5739,69.1124 19.7619,70.9174 L3.3589,87.3894 C1.5429,89.1974 0.0599,88.6094 0.0599,86.0624 L0.0599,2.4364 C0.0599,-0.0856 1.5429,-0.6916 3.3589,1.0574 L62.3539,60.1184 C64.1709,61.9214 63.5569,63.4044 60.9829,63.4044 Z M150.3218,164.7022 C180.6298,164.7642 202.6778,186.8752 202.7398,217.3842 L202.7398,287.6922 C202.5798,290.3902 200.3318,292.4732 197.5848,292.4732 C194.7348,292.4732 192.4288,290.2652 192.3658,287.4742 L192.3218,217.3842 C192.3218,192.9082 174.7608,175.4012 150.3218,175.4012 C125.8458,175.4012 108.0678,192.9082 108.0678,217.3842 L108.0678,287.4742 C108.0098,290.2652 105.7128,292.4732 102.8538,292.4732 C100.0128,292.4732 97.7068,290.2652 97.6358,287.4742 L97.6358,270.8972 C88.6958,285.8852 72.4528,295.3782 52.5408,295.3782 C22.2378,295.3332 0.1088,273.2582 0.0598,242.9802 L0.0598,172.8812 C0.1088,170.0762 2.4198,167.8322 5.2788,167.8322 C8.1278,167.8322 10.4338,170.0762 10.4918,172.8812 L10.4918,242.9802 C10.4918,267.4472 28.2748,284.9582 52.5408,284.9582 C77.2258,284.9582 94.7278,267.4472 94.7278,242.9802 L94.7858,172.8812 C94.8438,170.0762 97.1458,167.8322 100.0128,167.8322 C102.8008,167.8322 104.9998,169.9732 105.1598,172.6542 L105.1598,189.1682 C107.2438,185.6692 109.6568,182.4362 112.5158,179.5872 C121.9018,170.2452 135.0718,164.7022 150.3218,164.7022 Z"/>
    <path fill="#FFF" d="M515.7422,165.9796 C518.5472,165.9796 520.8452,168.1706 520.8892,170.9046 L520.8892,243.6936 C520.8452,273.9256 498.7242,296.0366 468.2702,296.0986 C437.9662,296.0366 415.8652,273.9256 415.7932,243.6936 L415.7932,171.0286 C415.8652,168.2236 418.1442,165.9796 421.0022,165.9796 C423.8612,165.9796 426.1672,168.2236 426.2212,171.0286 L426.2212,243.6936 C426.2212,268.1016 444.0132,285.6176 468.2702,285.6796 C492.9632,285.6176 510.4712,268.1016 510.4712,243.6936 L510.5142,171.0286 C510.5772,168.2236 512.8922,165.9796 515.7422,165.9796 Z M283.958,164.7022 C318.374,164.7022 346.139,194.2892 346.192,230.5672 C346.139,266.3482 318.374,295.3682 283.958,295.3682 C249.563,295.3682 221.788,266.3482 221.739,230.5672 L221.739,118.1562 C221.788,115.4132 224.086,113.1642 226.949,113.1642 C229.812,113.1642 232.113,115.4132 232.153,118.1562 L232.153,195.4292 C242.919,177.1202 261.967,164.7022 283.958,164.7022 Z M283.958,284.9402 C312.451,284.8962 335.773,260.4792 335.773,230.5672 C335.773,200.0952 312.398,175.4542 283.958,175.4012 C255.494,175.4542 232.153,200.0952 232.153,230.5672 C232.153,260.4792 255.494,284.8962 283.958,284.9402 Z M406.728,290.2745 C406.728,293.0265 404.76,295.2125 402.285,295.2795 L401.198,295.3195 C389.177,295.3195 379.63,290.9965 373.201,283.3115 C366.718,275.6175 363.334,264.7445 363.334,251.7475 L363.334,118.1565 C363.334,115.4135 365.632,113.1645 368.481,113.1645 C371.331,113.1645 373.646,115.4135 373.691,118.1565 L373.753,251.7475 C373.807,271.5035 381.99,284.7405 402.391,285.3905 C404.76,285.4445 406.728,287.5765 406.728,290.2745 Z"/>
  </g>
</svg>
