<?xml version="1.0" encoding="UTF-8" standalone="no"?>
<svg
   xmlns:dc="http://purl.org/dc/elements/1.1/"
   xmlns:cc="http://creativecommons.org/ns#"
   xmlns:rdf="http://www.w3.org/1999/02/22-rdf-syntax-ns#"
   xmlns:svg="http://www.w3.org/2000/svg"
   xmlns="http://www.w3.org/2000/svg"
   viewBox="0 0 693.33331 333.25333"
   height="333.25333"
   width="693.33331"
   xml:space="preserve"
   id="svg2"
   version="1.1"><metadata
     id="metadata8"><rdf:RDF><cc:Work
         rdf:about=""><dc:format>image/svg+xml</dc:format><dc:type
           rdf:resource="http://purl.org/dc/dcmitype/StillImage" /></cc:Work></rdf:RDF></metadata><defs
     id="defs6" /><g
     transform="matrix(1.3333333,0,0,-1.3333333,0,333.25333)"
     id="g10"><g
       transform="scale(0.1)"
       id="g12"><path
         id="path14"
         style="fill:#59c9e1;fill-opacity:1;fill-rule:nonzero;stroke:none"
         d="m 4751.24,859.941 c -62.84,0 -116.43,-22.179 -160.77,-66.511 -44.33,-44.34 -66.5,-97.918 -66.5,-160.77 0,-62.84 22.17,-116.418 66.5,-160.762 44.34,-44.328 97.93,-66.5 160.77,-66.5 57.26,0 114.65,25.543 172.21,76.641 v -49.777 c 0,-7.34 2.65,-13.653 7.93,-18.942 5.29,-5.281 11.6,-7.922 18.94,-7.922 h 1.32 c 7.34,0 13.66,2.641 18.94,7.922 5.29,5.289 7.93,11.602 7.93,18.942 V 632.66 c 0,62.852 -22.18,116.43 -66.5,160.77 -44.35,44.332 -97.94,66.511 -160.77,66.511 m 0,-55.062 c 47.86,0 88.38,-16.879 121.57,-50.649 33.76,-33.761 50.64,-74.289 50.64,-121.57 0,-47.558 -16.88,-88.23 -50.64,-122 -33.48,-33.469 -74.01,-50.199 -121.57,-50.199 -47.56,0 -88.24,16.73 -122.01,50.199 -33.46,33.77 -50.2,74.442 -50.2,122 0,47.281 16.74,87.809 50.2,121.57 33.77,33.77 74.45,50.649 122.01,50.649 m 413.08,55.062 c -7.63,0 -14.09,-2.652 -19.37,-7.929 -5.29,-5.293 -7.93,-11.75 -7.93,-19.383 V 432.262 c 0,-7.34 2.64,-13.653 7.93,-18.942 5.28,-5.281 11.74,-7.922 19.37,-7.922 h 0.88 c 7.34,0 13.66,2.641 18.95,7.922 5.28,5.289 7.92,11.602 7.92,18.942 v 400.367 c 0,7.633 -2.64,14.09 -7.92,19.383 -5.29,5.277 -11.61,7.929 -18.95,7.929 z m 25.11,120.231 c 7.05,7.047 10.57,15.418 10.57,25.118 0,9.39 -3.52,17.62 -10.57,24.66 -6.76,6.75 -14.98,10.14 -24.67,10.14 -9.98,0 -18.35,-3.39 -25.1,-10.14 -6.75,-6.76 -10.13,-14.97 -10.13,-24.66 0,-9.989 3.38,-18.36 10.13,-25.118 6.75,-6.75 15.12,-10.121 25.1,-10.121 9.69,0 17.91,3.371 24.67,10.121" /><path
         id="path16"
         style="fill:#295178;fill-opacity:1;fill-rule:nonzero;stroke:none"
         d="m 55.0547,832.621 c 0,7.641 -2.6406,14.109 -7.9297,19.391 -5.2891,5.277 -11.6016,7.929 -18.9336,7.929 h -1.3242 c -7.3438,0 -13.6524,-2.652 -18.93751,-7.929 -5.28516,-5.282 -7.93359625,-11.75 -7.93359625,-19.391 V 590.82 c 0,-51.379 18.05860625,-95.129 54.17970625,-131.238 36.1133,-36.133 79.8632,-54.184 131.2542,-54.184 61.066,0 113.781,28.774 158.121,86.332 44.043,-57.558 96.597,-86.332 157.672,-86.332 51.386,0 95.14,18.051 131.254,54.184 36.125,36.109 54.179,79.859 54.179,131.238 v 241.801 c 0,7.641 -2.504,14.109 -7.488,19.391 -5.289,5.277 -11.754,7.929 -19.375,7.929 h -0.891 c -7.343,0 -13.648,-2.652 -18.933,-7.929 -5.289,-5.282 -7.93,-11.75 -7.93,-19.391 V 590.82 c 0,-35.82 -12.769,-66.5 -38.32,-92.039 -25.547,-25.562 -56.375,-38.32 -92.496,-38.32 -35.821,0 -66.5,12.758 -92.051,38.32 C 383.625,524.32 370.855,555 370.855,590.82 v 241.801 c 0,7.641 -2.64,14.109 -7.929,19.391 -5.289,5.277 -11.602,7.929 -18.934,7.929 h -0.89 c -7.637,0 -14.086,-2.652 -19.375,-7.929 -5.282,-5.282 -7.93,-11.75 -7.93,-19.391 V 590.82 c 0,-35.82 -12.77,-66.5 -38.317,-92.039 -25.55,-25.562 -56.234,-38.32 -92.05,-38.32 -35.828,0 -66.508,12.758 -92.055,38.32 C 67.8242,524.32 55.0547,555 55.0547,590.82 Z M 1185.62,729.129 875.109,588.629 c -2.941,19.961 -4.406,34.203 -4.406,42.723 0,47.558 16.738,88.23 50.215,122 33.762,33.757 74.434,50.648 122.002,50.648 53.44,0 101.01,-24.961 142.7,-74.871 m -18.49,93.812 c -37.59,24.661 -79,37 -124.21,37 -62.842,0 -116.428,-22.179 -160.764,-66.5 -44.336,-44.351 -66.504,-97.929 -66.504,-160.769 0,-62.84 22.168,-116.43 66.504,-160.774 44.336,-44.328 97.922,-66.5 160.764,-66.5 48.74,0 93.07,14.243 133.01,42.723 38.76,27.891 65.92,64.309 81.48,109.231 3.24,8.808 2.21,17.027 -3.08,24.66 -5.58,7.636 -13.07,11.449 -22.46,11.449 -13.22,0 -22.02,-6.16 -26.42,-18.492 -11.76,-34.059 -32.16,-61.66 -61.22,-82.797 -30.25,-22.031 -64.02,-33.043 -101.31,-33.043 -56.088,0 -104.682,26.422 -145.791,79.293 34.941,15.547 93.961,42.117 177.061,79.707 66.95,30.25 120.97,54.609 162.08,73.121 6.75,3.219 11.46,8.211 14.1,14.969 2.64,7.051 2.34,13.941 -0.88,20.703 -18.21,39.93 -45.66,71.937 -82.36,96.019 m 468.58,-193.132 c 0,7.632 -2.65,14.089 -7.93,19.39 -5.29,5.27 -11.75,7.922 -19.39,7.922 h -210.97 c -7.34,0 -13.64,-2.652 -18.93,-7.922 -5.29,-5.301 -7.93,-11.758 -7.93,-19.39 v -0.879 c 0,-7.34 2.64,-13.66 7.93,-18.938 5.29,-5.293 11.59,-7.922 18.93,-7.922 h 210.97 c 7.64,0 14.1,2.629 19.39,7.922 5.28,5.278 7.93,11.598 7.93,18.938 z m 175.23,44.703 c 0,35.82 12.78,66.508 38.32,92.047 25.55,25.55 56.23,38.32 92.06,38.32 35.82,0 66.51,-12.77 92.05,-38.32 25.55,-25.539 38.32,-56.227 38.32,-92.047 v -242.25 c 0,-7.34 2.64,-13.653 7.93,-18.93 5.28,-5.293 11.74,-7.934 19.38,-7.934 h 0.88 c 7.33,0 13.66,2.641 18.93,7.934 5.29,5.277 7.93,11.59 7.93,18.93 v 242.25 c 0,35.82 12.78,66.508 38.32,92.047 25.55,25.55 56.23,38.32 92.06,38.32 36.11,0 66.95,-12.77 92.49,-38.32 25.55,-25.539 38.32,-56.227 38.32,-92.047 v -242.25 c 0,-7.34 2.64,-13.653 7.93,-18.93 5.28,-5.293 11.59,-7.934 18.94,-7.934 h 0.88 c 7.63,0 14.1,2.641 19.38,7.934 4.99,4.988 7.49,11.297 7.49,18.93 v 242.25 c 0,51.078 -18.06,94.84 -54.18,131.25 -36.12,36.109 -79.87,54.179 -131.25,54.179 -61.08,0 -113.64,-29.07 -157.68,-87.211 -44.34,58.141 -97.05,87.211 -158.12,87.211 -51.39,0 -95.14,-18.07 -131.26,-54.179 -36.11,-36.41 -54.17,-80.172 -54.17,-131.25 v -242.25 c 0,-7.34 2.64,-13.653 7.93,-18.93 5.29,-5.293 11.6,-7.934 18.94,-7.934 h 1.32 c 7.33,0 13.66,2.641 18.94,7.934 5.28,5.277 7.92,11.59 7.92,18.93 z m 1001.09,185.429 c -62.84,0 -116.44,-22.179 -160.76,-66.5 -44.35,-44.351 -66.52,-97.929 -66.52,-160.769 0,-62.84 22.17,-116.43 66.52,-160.774 44.32,-44.328 97.92,-66.5 160.76,-66.5 57.25,0 114.66,25.543 172.21,76.633 v -49.769 c 0,-7.34 2.64,-13.653 7.93,-18.93 5.28,-5.293 11.6,-7.934 18.94,-7.934 h 1.32 c 7.33,0 13.65,2.641 18.93,7.934 5.3,5.277 7.93,11.59 7.93,18.93 v 200.41 c 0,62.84 -22.16,116.418 -66.5,160.769 -44.35,44.321 -97.93,66.5 -160.76,66.5 m 0,-55.062 c 47.85,0 88.38,-16.891 121.56,-50.649 33.76,-33.769 50.65,-74.289 50.65,-121.558 0,-47.57 -16.89,-88.25 -50.65,-122.012 -33.48,-33.469 -74,-50.199 -121.56,-50.199 -47.57,0 -88.24,16.73 -122.01,50.199 -33.47,33.762 -50.21,74.442 -50.21,122.012 0,47.269 16.74,87.789 50.21,121.558 33.77,33.758 74.44,50.649 122.01,50.649 m 396.34,235.641 c -7.34,0 -13.65,-2.5 -18.94,-7.5 -5.28,-5.27 -7.93,-11.73 -7.93,-19.37 V 432.262 c 0,-7.34 2.65,-13.653 7.93,-18.93 5.29,-5.293 11.6,-7.934 18.94,-7.934 h 1.32 c 7.34,0 13.66,2.641 18.94,7.934 5.29,5.277 7.93,11.59 7.93,18.93 v 193.797 h 62.54 c 47.27,0 87.8,-16.739 121.57,-50.207 33.47,-33.192 50.35,-73.563 50.64,-121.133 v -22.457 c 0,-7.34 2.65,-13.653 7.93,-18.93 5.3,-5.293 11.6,-7.934 18.94,-7.934 h 1.33 c 7.33,0 13.65,2.641 18.93,7.934 5.29,5.277 7.93,11.59 7.93,18.93 v 22.457 c 0,40.531 -10.13,78.261 -30.39,113.211 -19.37,33.761 -51.38,64.152 -96.01,91.172 64,47.847 99.24,104.82 105.7,170.89 0.88,8.219 -1.32,15.258 -6.6,21.137 -5.28,5.871 -11.9,8.812 -19.83,8.812 h -1.31 c -6.76,0 -12.78,-2.351 -18.07,-7.05 -5.28,-4.7 -8.21,-10.422 -8.81,-17.18 -4.39,-43.16 -22.9,-79.582 -55.49,-109.231 C 3362.38,696.809 3323.77,682 3279.72,682 h -43.16 v 331.65 c 0,7.64 -2.64,14.1 -7.93,19.37 -5.28,5 -11.6,7.5 -18.94,7.5 z m 803.77,-311.391 -310.52,-140.5 c -2.94,19.961 -4.41,34.203 -4.41,42.723 0,47.558 16.74,88.23 50.21,122 33.77,33.757 74.44,50.648 122.01,50.648 53.44,0 101.01,-24.961 142.71,-74.871 m -18.51,93.812 c -37.59,24.661 -78.99,37 -124.2,37 -62.84,0 -116.44,-22.179 -160.76,-66.5 -44.35,-44.351 -66.52,-97.929 -66.52,-160.769 0,-62.84 22.17,-116.43 66.52,-160.774 44.32,-44.328 97.92,-66.5 160.76,-66.5 48.73,0 93.08,14.243 133.01,42.723 38.76,27.891 65.92,64.309 81.48,109.231 3.23,8.808 2.21,17.027 -3.08,24.66 -5.58,7.636 -13.07,11.449 -22.45,11.449 -13.23,0 -22.04,-6.16 -26.44,-18.492 -11.75,-34.059 -32.15,-61.66 -61.22,-82.797 -30.25,-22.031 -64.02,-33.043 -101.3,-33.043 -56.08,0 -104.68,26.422 -145.79,79.293 34.93,15.547 93.96,42.117 177.06,79.707 66.95,30.25 120.97,54.609 162.08,73.121 6.76,3.219 11.45,8.211 14.1,14.969 2.64,7.051 2.34,13.941 -0.88,20.703 -18.21,39.93 -45.67,71.937 -82.37,96.019 m 341.97,-340.41 c -9.01,9.91 -20.74,14.867 -35.17,14.867 -14.44,0 -26.17,-4.957 -35.19,-14.867 -9.01,-9.929 -13.52,-21.199 -13.52,-33.832 0,-12.629 4.51,-23.91 13.52,-33.828 9.02,-9.922 20.75,-14.879 35.19,-14.879 14.43,0 26.16,4.957 35.17,14.879 9.03,9.918 13.53,21.199 13.53,33.828 0,12.633 -4.5,23.903 -13.53,33.832" /><path
         id="path18"
         style="fill:#295178;fill-opacity:1;fill-rule:nonzero;stroke:none"
         d="m 2073.88,1339.82 c 94.44,0 171,76.55 171,171 0,94.44 -76.56,170.99 -171,170.99 -94.44,0 -171,-76.55 -171,-170.99 0,-94.45 76.56,-171 171,-171" /><path
         id="path20"
         style="fill:#295178;fill-opacity:1;fill-rule:nonzero;stroke:none"
         d="m 2427.05,1171.7 c 60.89,0 110.25,49.35 110.25,110.24 0,60.89 -49.36,110.25 -110.25,110.25 -60.89,0 -110.25,-49.36 -110.25,-110.25 0,-60.89 49.36,-110.24 110.25,-110.24" /><path
         id="path22"
         style="fill:#3d90be;fill-opacity:1;fill-rule:nonzero;stroke:none"
         d="m 2427.05,1628.64 c 60.89,0 110.25,49.36 110.25,110.25 0,60.89 -49.36,110.25 -110.25,110.25 -60.89,0 -110.25,-49.36 -110.25,-110.25 0,-60.89 49.36,-110.25 110.25,-110.25" /><path
         id="path24"
         style="fill:#295178;fill-opacity:1;fill-rule:nonzero;stroke:none"
         d="m 2798.42,1380.55 c 72.24,0 130.81,58.57 130.81,130.82 0,72.24 -58.57,130.81 -130.81,130.81 -72.25,0 -130.82,-58.57 -130.82,-130.81 0,-72.25 58.57,-130.82 130.82,-130.82" /><path
         id="path26"
         style="fill:#59c9e1;fill-opacity:1;fill-rule:nonzero;stroke:none"
         d="m 3170.24,2006.38 c 94.39,0 170.91,76.51 170.91,170.91 0,94.39 -76.52,170.9 -170.91,170.9 -94.39,0 -170.92,-76.51 -170.92,-170.9 0,-94.4 76.53,-170.91 170.92,-170.91" /><path
         id="path28"
         style="fill:#59c9e1;fill-opacity:1;fill-rule:nonzero;stroke:none"
         d="m 2798.4,1838.54 c 60.89,0 110.25,49.36 110.25,110.25 0,60.89 -49.36,110.25 -110.25,110.25 -60.88,0 -110.24,-49.36 -110.24,-110.25 0,-60.89 49.36,-110.25 110.24,-110.25" /><path
         id="path30"
         style="fill:#59c9e1;fill-opacity:1;fill-rule:nonzero;stroke:none"
         d="m 3171.23,1629.38 c 60.89,0 110.24,49.36 110.24,110.25 0,60.89 -49.35,110.25 -110.24,110.25 -60.89,0 -110.26,-49.36 -110.26,-110.25 0,-60.89 49.37,-110.25 110.26,-110.25" /><path
         id="path32"
         style="fill:#66ccce;fill-opacity:1;fill-rule:nonzero;stroke:none"
         d="m 3545.14,1840.34 c 59.07,0 106.95,47.87 106.95,106.94 0,59.06 -47.88,106.93 -106.95,106.93 -59.06,0 -106.94,-47.87 -106.94,-106.93 0,-59.07 47.88,-106.94 106.94,-106.94" /><path
         id="path34"
         style="fill:#3d90be;fill-opacity:1;fill-rule:nonzero;stroke:none"
         d="m 2017,1949.68 c 40.33,0 73.03,32.7 73.03,73.03 0,40.33 -32.7,73.02 -73.03,73.02 -40.32,0 -73.02,-32.69 -73.02,-73.02 0,-40.33 32.7,-73.03 73.02,-73.03" /><path
         id="path36"
         style="fill:#59c9e1;fill-opacity:1;fill-rule:nonzero;stroke:none"
         d="m 2799.34,2353.33 c 40.33,0 73.03,32.7 73.03,73.03 0,40.33 -32.7,73.02 -73.03,73.02 -40.33,0 -73.03,-32.69 -73.03,-73.02 0,-40.33 32.7,-73.03 73.03,-73.03" /><path
         id="path38"
         style="fill:#66ccce;fill-opacity:1;fill-rule:nonzero;stroke:none"
         d="m 1805.27,1694.29 c 24.73,0 44.77,20.04 44.77,44.76 0,24.73 -20.04,44.77 -44.77,44.77 -24.72,0 -44.76,-20.04 -44.76,-44.77 0,-24.72 20.04,-44.76 44.76,-44.76" /><path
         id="path40"
         style="fill:#59c9e1;fill-opacity:1;fill-rule:nonzero;stroke:none"
         d="m 3528.47,1612.82 c 24.72,0 44.77,20.05 44.77,44.77 0,24.73 -20.05,44.77 -44.77,44.77 -24.72,0 -44.76,-20.04 -44.76,-44.77 0,-24.72 20.04,-44.77 44.76,-44.77" /><path
         id="path42"
         style="fill:#3d90be;fill-opacity:1;fill-rule:nonzero;stroke:none"
         d="m 2427.21,2005.55 c 116.1,0 210.22,94.12 210.22,210.22 0,116.1 -94.12,210.21 -210.22,210.21 -116.1,0 -210.22,-94.11 -210.22,-210.21 0,-116.1 94.12,-210.22 210.22,-210.22" /><path
         id="path44"
         style="fill:#295178;fill-opacity:1;fill-rule:nonzero;stroke:none"
         d="m 1332.36,110.09 c -2.05,-5.559 -4.95,-10.3791 -8.71,-14.4689 -3.76,-4.0898 -8.29,-7.3203 -13.61,-9.6797 -5.31,-2.3828 -11.32,-3.5625 -18.02,-3.5625 -6.7,0 -12.71,1.1797 -18.02,3.5625 -5.32,2.3594 -9.8,5.5899 -13.48,9.6797 -3.68,4.0898 -6.54,8.9099 -8.59,14.4689 -2.04,5.551 -3.06,11.531 -3.06,17.898 0,6.371 1.02,12.344 3.06,17.903 2.05,5.55 4.91,10.379 8.59,14.461 3.68,4.089 8.16,7.32 13.48,9.687 5.31,2.371 11.32,3.563 18.02,3.563 6.7,0 12.71,-1.192 18.02,-3.563 5.32,-2.367 9.85,-5.598 13.61,-9.687 3.76,-4.082 6.66,-8.911 8.71,-14.461 2.04,-5.559 3.07,-11.532 3.07,-17.903 0,-6.367 -1.03,-12.347 -3.07,-17.898 m 16.18,41.93 c -3.03,7.351 -7.23,13.73 -12.63,19.121 -5.39,5.398 -11.81,9.609 -19.24,12.629 -7.45,3.019 -15.66,4.539 -24.65,4.539 -8.82,0 -16.96,-1.52 -24.39,-4.539 -7.44,-3.02 -13.86,-7.231 -19.25,-12.629 -5.4,-5.391 -9.6,-11.77 -12.63,-19.121 -3.03,-7.348 -4.53,-15.372 -4.53,-24.032 0,-8.668 1.5,-16.668 4.53,-24.027 3.03,-7.3516 7.23,-13.7305 12.63,-19.129 5.39,-5.3906 11.81,-9.6132 19.25,-12.6328 7.43,-3.0078 15.57,-4.5273 24.39,-4.5273 8.99,0 17.2,1.5195 24.65,4.5273 7.43,3.0196 13.85,7.2422 19.24,12.6328 5.4,5.3985 9.6,11.7774 12.63,19.129 3.02,7.359 4.54,15.359 4.54,24.027 0,8.66 -1.52,16.684 -4.54,24.032 m 160.48,-81.4106 c -0.33,4.25 -0.61,8.75 -0.86,13.4922 -0.24,4.7382 -0.37,8.6601 -0.37,11.7695 v 89.4879 h -16.18 v -58.847 c 0,-10.461 -1.64,-18.621 -4.91,-24.512 -3.27,-5.8906 -6.98,-10.3008 -11.15,-13.2383 -4.17,-2.9414 -8.13,-4.75 -11.9,-5.3906 -3.76,-0.6602 -6.04,-0.9922 -6.86,-0.9922 -6.05,0 -11.07,0.8633 -15.08,2.582 -4,1.711 -7.19,4.25 -9.56,7.6094 -2.37,3.3399 -4.05,7.4687 -5.02,12.3707 -0.99,4.899 -1.48,10.539 -1.48,16.918 v 63.5 h -16.18 v -72.82 c 0,-14.3906 3.51,-25.457 10.55,-33.2304 7.02,-7.7578 17.9,-11.6367 32.6,-11.6367 3.76,0 7.56,0.5273 11.4,1.5976 3.84,1.0625 7.49,2.5196 10.92,4.4102 3.43,1.8711 6.54,4.1211 9.31,6.75 2.78,2.6016 5.07,5.4687 6.87,8.5703 h 0.49 c 0,-3.1016 0.04,-6.168 0.12,-9.1992 0.08,-3.0195 0.29,-6.082 0.62,-9.1914 z m 65.46,0 h 16.19 v 64.7426 c 0,3.918 0.69,8 2.08,12.25 1.39,4.25 3.56,8.218 6.5,11.898 2.94,3.672 6.62,6.699 11.03,9.07 4.41,2.371 9.72,3.559 15.94,3.559 4.09,0 7.19,-0.41 9.32,-1.231 l 3.18,15.934 c -3.43,0.988 -7.43,1.477 -12.01,1.477 -5.07,0 -9.6,-0.7 -13.61,-2.09 -4.01,-1.387 -7.52,-3.219 -10.54,-5.508 -3.03,-2.289 -5.6,-4.871 -7.72,-7.731 -2.13,-2.859 -3.76,-5.839 -4.9,-8.949 h -0.5 v 21.328 h -15.94 c 0.17,-8.328 0.37,-15.121 0.62,-20.339 0.25,-5.239 0.36,-10.379 0.36,-15.45 z m 200.57,114.7496 c 0.33,-4.25 0.62,-8.738 0.86,-13.48 0.25,-4.738 0.37,-8.668 0.37,-11.77 V 70.6094 h 16.18 v 58.8516 c 0,10.461 1.63,18.629 4.9,24.519 3.27,5.891 6.99,10.29 11.16,13.231 4.17,2.949 8.13,4.75 11.89,5.398 3.76,0.653 6.05,0.993 6.87,0.993 11.93,0 20.1,-3.403 24.51,-10.18 4.42,-6.781 6.62,-16.563 6.62,-29.301 V 70.6094 h 16.19 v 72.8316 c 0,14.379 -3.52,25.45 -10.54,33.219 -7.04,7.762 -17.9,11.649 -32.61,11.649 -3.76,0 -7.57,-0.539 -11.4,-1.598 -3.85,-1.07 -7.48,-2.531 -10.91,-4.41 -3.45,-1.879 -6.55,-4.129 -9.32,-6.75 -2.78,-2.602 -5.08,-5.469 -6.87,-8.571 h -0.49 c 0,3.102 -0.04,6.161 -0.12,9.192 -0.08,3.019 -0.29,6.078 -0.61,9.187 z m 238.08,-57.621 v -8.34 c 0,-5.058 -0.69,-9.839 -2.07,-14.328 -1.4,-4.511 -3.56,-8.4294 -6.51,-11.7809 -2.94,-3.3477 -6.58,-6 -10.91,-7.9688 -4.33,-1.9492 -9.43,-2.9414 -15.32,-2.9414 -3.27,0 -6.5,0.3711 -9.69,1.1016 -3.18,0.75 -6.09,1.9687 -8.7,3.6914 -2.62,1.707 -4.7,3.9179 -6.26,6.6172 -1.55,2.6914 -2.33,5.9218 -2.33,9.6799 0,5.722 2.01,10.222 6.01,13.48 4.01,3.27 8.83,5.68 14.47,7.242 5.64,1.551 11.53,2.539 17.65,2.95 6.13,0.398 11.24,0.597 15.33,0.597 z m -8.08,13.242 c -6.87,0 -14.43,-0.332 -22.69,-0.98 -8.25,-0.66 -16.02,-2.289 -23.29,-4.898 -7.27,-2.622 -13.33,-6.582 -18.15,-11.891 -4.82,-5.313 -7.23,-12.629 -7.23,-21.941 0,-5.5708 1.11,-10.4302 3.31,-14.5981 2.21,-4.1719 5.14,-7.6836 8.83,-10.543 3.67,-2.8594 7.88,-4.9883 12.62,-6.3789 4.75,-1.3789 9.65,-2.0781 14.72,-2.0781 9.31,0 17.2,1.6797 23.66,5.0195 6.46,3.3477 12.05,8.8672 16.79,16.5586 h 0.49 c 0,-3.1094 0.13,-6.2891 0.38,-9.5586 0.24,-3.2812 0.61,-6.3008 1.1,-9.082 h 15.69 c -0.49,3.1094 -0.94,7.0703 -1.35,11.8906 -0.41,4.8203 -0.61,9.4414 -0.61,13.8516 v 51.2504 c 0,7.039 -1.14,13.078 -3.43,18.148 -2.29,5.07 -5.32,9.281 -9.08,12.629 -3.76,3.351 -8.21,5.84 -13.36,7.48 -5.15,1.633 -10.5,2.45 -16.06,2.45 -21.58,0 -37.76,-5.559 -48.55,-16.68 l 9.81,-11.52 c 9.97,8.993 21.66,13.493 35.06,13.493 19.62,0 29.42,-9.903 29.42,-29.68 v -2.942 z m 88.76,-70.3706 h 16.17 v 58.8516 c 0,10.461 1.52,18.629 4.55,24.519 3.01,5.891 6.41,10.29 10.17,13.231 3.76,2.949 7.39,4.75 10.91,5.398 3.51,0.653 5.76,0.993 6.74,0.993 11.12,0 18.72,-3.114 22.8,-9.332 4.09,-6.211 6.14,-15.11 6.14,-26.719 V 70.6094 h 16.18 v 61.0626 c 0,5.387 0.57,10.578 1.71,15.558 1.15,4.989 2.99,9.45 5.52,13.36 2.53,3.93 5.84,7.082 9.93,9.449 4.08,2.371 9.16,3.563 15.21,3.563 11.11,0 18.71,-3.114 22.8,-9.332 4.08,-6.211 6.13,-15.11 6.13,-26.719 V 70.6094 h 16.18 v 72.8316 c 0,14.379 -3.52,25.45 -10.54,33.219 -7.04,7.762 -17.9,11.649 -32.61,11.649 -7.69,0 -15.08,-2.129 -22.19,-6.379 -7.11,-4.25 -12.3,-10.051 -15.58,-17.41 -1.96,4.91 -4.37,8.921 -7.23,12.019 -2.86,3.109 -5.92,5.52 -9.19,7.231 -3.28,1.718 -6.67,2.91 -10.18,3.562 -3.51,0.648 -6.83,0.977 -9.93,0.977 -6.87,0 -13.77,-1.719 -20.72,-5.149 -6.94,-3.441 -12.38,-8.5 -16.3,-15.199 h -0.5 v 17.398 h -17.41 c 0.33,-4.25 0.62,-8.5 0.87,-12.75 0.24,-4.238 0.37,-8.5 0.37,-12.738 z m 247.64,66.1996 c 0,4.75 1.1,9.332 3.31,13.73 2.2,4.422 5.15,8.34 8.83,11.781 3.67,3.43 7.96,6.16 12.87,8.211 4.9,2.039 9.97,3.071 15.2,3.071 11.77,0 20.92,-3.403 27.46,-10.18 6.54,-6.781 9.81,-15.652 9.81,-26.613 z m 95.13,-13.239 v 7.371 c 0,7.84 -1.22,15.231 -3.67,22.18 -2.46,6.949 -6.01,12.988 -10.67,18.149 -4.66,5.14 -10.42,9.261 -17.28,12.378 -6.87,3.102 -14.64,4.661 -23.3,4.661 -8.18,0 -15.77,-1.52 -22.8,-4.539 -7.03,-3.02 -13.16,-7.231 -18.39,-12.629 -5.24,-5.391 -9.32,-11.77 -12.26,-19.121 -2.94,-7.348 -4.41,-15.372 -4.41,-24.032 0,-8.668 1.5,-16.668 4.53,-24.027 3.02,-7.3516 7.15,-13.7305 12.38,-19.129 5.23,-5.3906 11.48,-9.6132 18.76,-12.6328 7.27,-3.0078 15.16,-4.5273 23.66,-4.5273 9.48,0 18.35,1.8789 26.61,5.6367 8.25,3.7617 15.81,9.9727 22.68,18.6328 l -12.51,10.2966 c -3.27,-5.2263 -8.05,-9.8474 -14.34,-13.8396 -6.3,-4.0195 -13.78,-6.0195 -22.44,-6.0195 -5.72,0 -11.03,1.0625 -15.93,3.1914 -4.91,2.1211 -9.24,5.0195 -13,8.6992 -3.76,3.6914 -6.79,8.0505 -9.07,13.1215 -2.3,5.07 -3.68,10.461 -4.17,16.179 z m 90.97,-29.6598 h -19.86 l -16.42,-57.6211 h 16.18 z m 250.96,16.1798 c -2.05,-5.559 -4.95,-10.3791 -8.71,-14.4689 -3.76,-4.0898 -8.29,-7.3203 -13.6,-9.6797 -5.31,-2.3828 -11.32,-3.5625 -18.03,-3.5625 -6.7,0 -12.7,1.1797 -18.02,3.5625 -5.31,2.3594 -9.8,5.5899 -13.48,9.6797 -3.68,4.0898 -6.55,8.9099 -8.59,14.4689 -2.05,5.551 -3.05,11.531 -3.05,17.898 0,6.371 1,12.344 3.05,17.903 2.04,5.55 4.91,10.379 8.59,14.461 3.68,4.089 8.17,7.32 13.48,9.687 5.32,2.371 11.32,3.563 18.02,3.563 6.71,0 12.72,-1.192 18.03,-3.563 5.31,-2.367 9.84,-5.598 13.6,-9.687 3.76,-4.082 6.66,-8.911 8.71,-14.461 2.04,-5.559 3.07,-11.532 3.07,-17.903 0,-6.367 -1.03,-12.347 -3.07,-17.898 m 16.18,41.93 c -3.02,7.351 -7.23,13.73 -12.63,19.121 -5.39,5.398 -11.81,9.609 -19.25,12.629 -7.43,3.019 -15.65,4.539 -24.64,4.539 -8.82,0 -16.96,-1.52 -24.39,-4.539 -7.45,-3.02 -13.86,-7.231 -19.25,-12.629 -5.39,-5.391 -9.6,-11.77 -12.63,-19.121 -3.03,-7.348 -4.53,-15.372 -4.53,-24.032 0,-8.668 1.5,-16.668 4.53,-24.027 3.03,-7.3516 7.24,-13.7305 12.63,-19.129 5.39,-5.3906 11.8,-9.6132 19.25,-12.6328 7.43,-3.0078 15.57,-4.5273 24.39,-4.5273 8.99,0 17.21,1.5195 24.64,4.5273 7.44,3.0196 13.86,7.2422 19.25,12.6328 5.4,5.3985 9.61,11.7774 12.63,19.129 3.02,7.359 4.53,15.359 4.53,24.027 0,8.66 -1.51,16.684 -4.53,24.032 m 160.48,-81.4106 c -0.33,4.25 -0.61,8.75 -0.86,13.4922 -0.24,4.7382 -0.37,8.6601 -0.37,11.7695 v 89.4879 h -16.18 v -58.847 c 0,-10.461 -1.64,-18.621 -4.9,-24.512 -3.27,-5.8906 -6.99,-10.3008 -11.16,-13.2383 -4.17,-2.9414 -8.13,-4.75 -11.89,-5.3906 -3.76,-0.6602 -6.04,-0.9922 -6.86,-0.9922 -6.05,0 -11.08,0.8633 -15.08,2.582 -4.02,1.711 -7.2,4.25 -9.56,7.6094 -2.39,3.3399 -4.06,7.4687 -5.03,12.3707 -0.99,4.899 -1.48,10.539 -1.48,16.918 v 63.5 h -16.18 v -72.82 c 0,-14.3906 3.51,-25.457 10.55,-33.2304 7.02,-7.7578 17.89,-11.6367 32.61,-11.6367 3.76,0 7.55,0.5273 11.39,1.5976 3.84,1.0625 7.48,2.5196 10.92,4.4102 3.43,1.8711 6.53,4.1211 9.32,6.75 2.77,2.6016 5.06,5.4687 6.86,8.5703 h 0.49 c 0,-3.1016 0.04,-6.168 0.12,-9.1992 0.09,-3.0195 0.28,-6.082 0.62,-9.1914 z m 65.47,0 h 16.17 v 64.7426 c 0,3.918 0.7,8 2.09,12.25 1.39,4.25 3.56,8.218 6.51,11.898 2.94,3.672 6.61,6.699 11.03,9.07 4.41,2.371 9.72,3.559 15.93,3.559 4.08,0 7.2,-0.41 9.32,-1.231 l 3.19,15.934 c -3.44,0.988 -7.44,1.477 -12.01,1.477 -5.08,0 -9.61,-0.7 -13.62,-2.09 -4,-1.387 -7.52,-3.219 -10.54,-5.508 -3.02,-2.289 -5.6,-4.871 -7.73,-7.731 -2.13,-2.859 -3.76,-5.839 -4.9,-8.949 h -0.49 v 21.328 h -15.94 c 0.17,-8.328 0.38,-15.121 0.62,-20.339 0.24,-5.239 0.37,-10.379 0.37,-15.45 z m 303.42,39.4806 c -2.04,-5.559 -4.94,-10.3791 -8.7,-14.4689 -3.76,-4.0898 -8.3,-7.3203 -13.62,-9.6797 -5.31,-2.3828 -11.31,-3.5625 -18.01,-3.5625 -6.7,0 -12.84,1.1797 -18.39,3.5625 -5.56,2.3594 -10.38,5.5899 -14.46,9.6797 -4.1,4.0898 -7.28,8.9099 -9.58,14.4689 -2.28,5.551 -3.43,11.531 -3.43,17.898 0,6.371 1.15,12.344 3.43,17.903 2.3,5.55 5.48,10.379 9.58,14.461 4.08,4.089 8.9,7.32 14.46,9.687 5.55,2.371 11.69,3.563 18.39,3.563 6.7,0 12.7,-1.192 18.01,-3.563 5.32,-2.367 9.86,-5.598 13.62,-9.687 3.76,-4.082 6.66,-8.911 8.7,-14.461 2.04,-5.559 3.07,-11.532 3.07,-17.903 0,-6.367 -1.03,-12.347 -3.07,-17.898 M 3222.43,0 h 16.18 v 89.7383 h 0.49 c 2.62,-3.918 5.72,-7.2695 9.31,-10.0469 3.6,-2.793 7.36,-5.0703 11.28,-6.8711 3.93,-1.8008 7.97,-3.1094 12.14,-3.9297 4.17,-0.8203 8.14,-1.2187 11.9,-1.2187 8.98,0 17.19,1.5195 24.65,4.5273 7.43,3.0196 13.84,7.2422 19.24,12.6328 5.39,5.3985 9.6,11.7774 12.62,19.129 3.03,7.359 4.54,15.359 4.54,24.027 0,8.66 -1.51,16.684 -4.54,24.032 -3.02,7.351 -7.23,13.73 -12.62,19.121 -5.4,5.398 -11.81,9.609 -19.24,12.629 -7.46,3.019 -15.67,4.539 -24.65,4.539 -3.76,0 -7.73,-0.411 -11.9,-1.219 -4.17,-0.82 -8.21,-2.141 -12.14,-3.93 -3.92,-1.808 -7.68,-4.09 -11.28,-6.859 -3.59,-2.789 -6.69,-6.141 -9.31,-10.059 h -0.49 v 19.117 h -16.18 z m 250.34,127.738 v -8.34 c 0,-5.058 -0.69,-9.839 -2.09,-14.328 -1.38,-4.511 -3.54,-8.4294 -6.49,-11.7809 -2.94,-3.3477 -6.59,-6 -10.91,-7.9688 -4.34,-1.9492 -9.44,-2.9414 -15.33,-2.9414 -3.27,0 -6.49,0.3711 -9.68,1.1016 -3.19,0.75 -6.09,1.9687 -8.7,3.6914 -2.62,1.707 -4.71,3.9179 -6.26,6.6172 -1.56,2.6914 -2.33,5.9218 -2.33,9.6799 0,5.722 2,10.222 6.01,13.48 4,3.27 8.83,5.68 14.47,7.242 5.64,1.551 11.51,2.539 17.65,2.95 6.13,0.398 11.24,0.597 15.33,0.597 z m -8.09,13.242 c -6.86,0 -14.43,-0.332 -22.68,-0.98 -8.25,-0.66 -16.03,-2.289 -23.3,-4.898 -7.28,-2.622 -13.32,-6.582 -18.14,-11.891 -4.82,-5.313 -7.23,-12.629 -7.23,-21.941 0,-5.5708 1.1,-10.4302 3.31,-14.5981 2.2,-4.1719 5.14,-7.6836 8.83,-10.543 3.67,-2.8594 7.88,-4.9883 12.62,-6.3789 4.75,-1.3789 9.64,-2.0781 14.72,-2.0781 9.31,0 17.2,1.6797 23.65,5.0195 6.46,3.3477 12.05,8.8672 16.8,16.5586 h 0.5 c 0,-3.1094 0.11,-6.2891 0.36,-9.5586 0.24,-3.2812 0.61,-6.3008 1.1,-9.082 h 15.69 c -0.48,3.1094 -0.94,7.0703 -1.34,11.8906 -0.41,4.8203 -0.61,9.4414 -0.61,13.8516 v 51.2504 c 0,7.039 -1.15,13.078 -3.44,18.148 -2.29,5.07 -5.31,9.281 -9.07,12.629 -3.77,3.351 -8.21,5.84 -13.36,7.48 -5.15,1.633 -10.51,2.45 -16.06,2.45 -21.58,0 -37.77,-5.559 -48.55,-16.68 l 9.81,-11.52 c 9.97,8.993 21.65,13.493 35.06,13.493 19.62,0 29.42,-9.903 29.42,-29.68 v -2.942 z m 164.04,26.731 c -3.76,7.519 -9.08,12.82 -15.94,15.937 -6.87,3.102 -14.32,4.661 -22.31,4.661 -5.4,0 -10.63,-0.7 -15.7,-2.09 -5.07,-1.387 -9.6,-3.469 -13.61,-6.25 -4.01,-2.778 -7.19,-6.367 -9.56,-10.778 -2.38,-4.429 -3.56,-9.57 -3.56,-15.461 0,-5.39 1.15,-9.921 3.43,-13.609 2.3,-3.672 5.03,-6.66 8.21,-8.941 3.21,-2.301 6.46,-4 9.82,-5.16 3.35,-1.141 6,-1.95 7.97,-2.45 l 15.69,-3.672 c 6.05,-1.468 11.2,-3.476 15.45,-6.019 4.25,-2.527 6.38,-6.649 6.38,-12.379 0,-3.2578 -0.78,-6.1211 -2.34,-8.5703 -1.55,-2.4492 -3.59,-4.4609 -6.13,-6.0078 -2.54,-1.5625 -5.43,-2.6914 -8.7,-3.4414 -3.27,-0.7305 -6.53,-1.1016 -9.81,-1.1016 -6.86,0 -12.79,1.5508 -17.78,4.6719 -4.98,3.0898 -9.11,7.2578 -12.37,12.5 l -13.98,-9.5586 c 5.39,-8.1914 11.89,-13.9531 19.49,-17.3008 7.6,-3.3398 15.82,-5.0195 24.64,-5.0195 5.56,0 11.04,0.6601 16.43,1.9687 5.39,1.3008 10.18,3.3789 14.35,6.25 4.16,2.8516 7.51,6.5313 10.04,11.0313 2.54,4.4883 3.8,9.8476 3.8,16.0581 0,8.168 -2.65,15 -7.96,20.469 -5.32,5.481 -11.98,9.121 -19.99,10.91 l -16.42,3.93 c -7.52,1.801 -13.17,3.922 -16.92,6.383 -3.77,2.449 -5.64,6.359 -5.64,11.758 0,3.101 0.69,5.73 2.08,7.84 1.39,2.121 3.22,3.89 5.52,5.281 2.28,1.39 4.86,2.41 7.72,3.058 2.86,0.653 5.69,0.993 8.46,0.993 5.89,0 10.87,-1.403 14.96,-4.172 4.08,-2.782 7.35,-6.539 9.8,-11.282 z m 131.42,0 c -3.77,7.519 -9.08,12.82 -15.94,15.937 -6.87,3.102 -14.31,4.661 -22.31,4.661 -5.4,0 -10.62,-0.7 -15.7,-2.09 -5.06,-1.387 -9.6,-3.469 -13.61,-6.25 -4,-2.778 -7.18,-6.367 -9.56,-10.778 -2.37,-4.429 -3.55,-9.57 -3.55,-15.461 0,-5.39 1.13,-9.921 3.43,-13.609 2.28,-3.672 5.03,-6.66 8.21,-8.941 3.19,-2.301 6.45,-4 9.81,-5.16 3.35,-1.141 6.01,-1.95 7.97,-2.45 l 15.7,-3.672 c 6.04,-1.468 11.19,-3.476 15.45,-6.019 4.23,-2.527 6.37,-6.649 6.37,-12.379 0,-3.2578 -0.79,-6.1211 -2.33,-8.5703 -1.55,-2.4492 -3.6,-4.4609 -6.13,-6.0078 -2.54,-1.5625 -5.43,-2.6914 -8.71,-3.4414 -3.27,-0.7305 -6.54,-1.1016 -9.8,-1.1016 -6.87,0 -12.79,1.5508 -17.78,4.6719 -4.99,3.0898 -9.11,7.2578 -12.39,12.5 l -13.97,-9.5586 c 5.4,-8.1914 11.88,-13.9531 19.49,-17.3008 7.6,-3.3398 15.82,-5.0195 24.65,-5.0195 5.56,0 11.03,0.6601 16.43,1.9687 5.39,1.3008 10.16,3.3789 14.33,6.25 4.17,2.8516 7.53,6.5313 10.06,11.0313 2.53,4.4883 3.8,9.8476 3.8,16.0581 0,8.168 -2.66,15 -7.97,20.469 -5.31,5.481 -11.97,9.121 -19.98,10.91 l -16.44,3.93 c -7.52,1.801 -13.15,3.922 -16.91,6.383 -3.76,2.449 -5.63,6.359 -5.63,11.758 0,3.101 0.69,5.73 2.08,7.84 1.38,2.121 3.22,3.89 5.51,5.281 2.29,1.39 4.87,2.41 7.73,3.058 2.86,0.653 5.68,0.993 8.45,0.993 5.88,0 10.87,-1.403 14.97,-4.172 4.08,-2.782 7.35,-6.539 9.8,-11.282 z m 76,70.258 c -2.45,2.191 -5.15,3.301 -8.09,3.301 -2.94,0 -5.64,-1.11 -8.09,-3.301 -2.44,-2.219 -3.67,-5.039 -3.67,-8.469 0,-3.441 1.23,-6.25 3.67,-8.469 2.45,-2.191 5.15,-3.301 8.09,-3.301 2.94,0 5.64,1.11 8.09,3.301 2.46,2.219 3.68,5.028 3.68,8.469 0,3.43 -1.22,6.25 -3.68,8.469 m 0,-52.61 h -16.18 V 70.6094 h 16.18 z m 161.22,-75.269 c -2.05,-5.559 -4.94,-10.3791 -8.7,-14.4689 -3.76,-4.0898 -8.31,-7.3203 -13.61,-9.6797 -5.32,-2.3828 -11.32,-3.5625 -18.02,-3.5625 -6.71,0 -12.72,1.1797 -18.03,3.5625 -5.31,2.3594 -9.8,5.5899 -13.49,9.6797 -3.67,4.0898 -6.54,8.9099 -8.58,14.4689 -2.04,5.551 -3.06,11.531 -3.06,17.898 0,6.371 1.02,12.344 3.06,17.903 2.04,5.55 4.91,10.379 8.58,14.461 3.69,4.089 8.18,7.32 13.49,9.687 5.31,2.371 11.32,3.563 18.03,3.563 6.7,0 12.7,-1.192 18.02,-3.563 5.3,-2.367 9.85,-5.598 13.61,-9.687 3.76,-4.082 6.65,-8.911 8.7,-14.461 2.04,-5.559 3.07,-11.532 3.07,-17.903 0,-6.367 -1.03,-12.347 -3.07,-17.898 m 16.18,41.93 c -3.03,7.351 -7.24,13.73 -12.63,19.121 -5.39,5.398 -11.81,9.609 -19.24,12.629 -7.45,3.019 -15.66,4.539 -24.64,4.539 -8.83,0 -16.97,-1.52 -24.4,-4.539 -7.44,-3.02 -13.85,-7.231 -19.24,-12.629 -5.41,-5.391 -9.61,-11.77 -12.64,-19.121 -3.03,-7.348 -4.53,-15.372 -4.53,-24.032 0,-8.668 1.5,-16.668 4.53,-24.027 3.03,-7.3516 7.23,-13.7305 12.64,-19.129 5.39,-5.3906 11.8,-9.6132 19.24,-12.6328 7.43,-3.0078 15.57,-4.5273 24.4,-4.5273 8.98,0 17.19,1.5195 24.64,4.5273 7.43,3.0196 13.85,7.2422 19.24,12.6328 5.39,5.3985 9.6,11.7774 12.63,19.129 3.02,7.359 4.53,15.359 4.53,24.027 0,8.66 -1.51,16.684 -4.53,24.032 m 59.7,33.339 c 0.33,-4.25 0.61,-8.738 0.86,-13.48 0.24,-4.738 0.37,-8.668 0.37,-11.77 V 70.6094 h 16.18 v 58.8516 c 0,10.461 1.63,18.629 4.91,24.519 3.26,5.891 6.99,10.29 11.16,13.231 4.17,2.949 8.12,4.75 11.89,5.398 3.76,0.653 6.04,0.993 6.86,0.993 11.93,0 20.1,-3.403 24.52,-10.18 4.42,-6.781 6.62,-16.563 6.62,-29.301 V 70.6094 h 16.18 v 72.8316 c 0,14.379 -3.52,25.45 -10.55,33.219 -7.02,7.762 -17.89,11.649 -32.6,11.649 -3.76,0 -7.56,-0.539 -11.4,-1.598 -3.85,-1.07 -7.48,-2.531 -10.92,-4.41 -3.43,-1.879 -6.53,-4.129 -9.32,-6.75 -2.78,-2.602 -5.06,-5.469 -6.86,-8.571 h -0.49 c 0,3.102 -0.04,6.161 -0.12,9.192 -0.08,3.019 -0.29,6.078 -0.61,9.187 h -16.68" /></g></g></svg>