<?xml version="1.0" standalone="no"?>
<!DOCTYPE svg PUBLIC "-//W3C//DTD SVG 20010904//EN"
 "http://www.w3.org/TR/2001/REC-SVG-20010904/DTD/svg10.dtd">
<svg version="1.0" xmlns="http://www.w3.org/2000/svg"
 width="600.000000pt" height="600.000000pt" viewBox="0 0 600.000000 600.000000"
 preserveAspectRatio="xMidYMid meet">
<metadata>
Created by potrace 1.11, written by Peter Selinger 2001-2013
</metadata>
<g transform="translate(0.000000,600.000000) scale(0.100000,-0.100000)"
fill="#000000" stroke="none">
<path d="M2440 4984 c-119 -32 -217 -116 -274 -234 -29 -61 -31 -72 -31 -175
0 -105 2 -114 33 -178 42 -85 115 -158 201 -200 63 -31 71 -32 186 -32 109 0
125 3 178 27 112 53 209 171 236 289 24 103 4 224 -52 318 -92 154 -296 233
-477 185z"/>
<path d="M3390 4989 c-75 -15 -163 -64 -219 -124 -198 -210 -135 -544 126
-668 64 -30 74 -32 183 -32 108 0 119 2 182 32 117 55 190 139 229 264 47 151
5 304 -114 417 -108 101 -241 140 -387 111z"/>
<path d="M2765 4091 c-218 -46 -340 -101 -442 -199 -77 -74 -93 -101 -93 -163
l0 -39 781 0 780 0 -7 23 c-29 94 -51 135 -99 183 -75 75 -191 131 -375 180
-132 36 -409 43 -545 15z"/>
<path d="M3929 3684 c52 -144 312 -843 395 -1061 36 -94 86 -238 112 -320 67
-214 118 -307 229 -418 73 -74 106 -99 175 -132 47 -23 112 -49 145 -57 368
-93 741 100 873 452 20 54 26 91 30 189 6 153 -12 239 -76 366 -37 75 -62 108
-132 178 -83 83 -92 90 -270 177 -208 102 -1488 721 -1508 729 -7 3 4 -39 27
-103z"/>
<path d="M1515 3481 c-1116 -545 -1165 -571 -1261 -688 -165 -204 -194 -524
-68 -763 95 -180 273 -320 469 -366 95 -22 278 -22 370 1 93 22 237 93 304
148 120 101 172 186 256 422 138 393 238 670 387 1075 179 488 174 470 162
470 -5 -1 -283 -135 -619 -299z"/>
<path d="M2160 3000 l0 -210 830 0 830 0 0 210 0 210 -830 0 -830 0 0 -210z"/>
<path d="M2170 2140 l0 -200 825 0 825 0 0 200 0 200 -825 0 -825 0 0 -200z"/>
<path d="M2230 1413 c1 -87 23 -136 86 -192 162 -142 392 -215 684 -215 162
-1 230 8 385 51 199 54 346 161 380 276 9 31 15 76 13 99 l-3 43 -772 3 -773
2 0 -67z"/>
</g>
</svg>
