<svg viewBox="0 0 944 153" xmlns="http://www.w3.org/2000/svg" fill-rule="evenodd" clip-rule="evenodd" stroke-linejoin="round" stroke-miterlimit="1.414"><path d="M131.575 107.153c0 2.137-1.832 3.052-3.969 3.968-8.547 3.664-17.706 7.022-27.475 7.022-13.737 0-20.148-8.548-36.633-8.548-11.906 0-24.422 4.274-34.497 8.853-.61.305-1.221.305-1.831.611v23.201c0 6.381-4.807 10.379-10.074 10.379-5.801 0-10.38-4.579-10.38-10.379V30.528C2.748 27.475 0 22.591 0 17.096A17.068 17.068 0 0117.096 0a17.068 17.068 0 0117.095 17.096c0 5.495-2.442 10.379-6.716 13.432v9.463c1.23-.409 17.52-8.547 34.191-8.547 19.459 0 29.12 8.242 37.855 8.242 11.6 0 24.422-8.242 27.475-8.242 2.442 0 4.579 1.831 4.579 3.968v71.741z" fill="#ececec" fill-rule="nonzero"/><text x="170.315" y="111.967" font-family="'ArialMT','Arial',sans-serif" font-size="118" fill="#ececec">Font <tspan x="432.704px 509.277px 594.493px" y="111.967px 111.967px 111.967px">Awe</tspan>some</text></svg>